SplineFontDB: 3.0
FontName: BubblegumSans-Regular
FullName: Bubblegum Sans
FamilyName: Bubblegum Sans
Weight: Regular
Copyright: Copyright (c) 2011 Angel Koziupa (sudtipos@sudtipos.com),\nCopyright (c) 2011 Alejandro Paul (sudtipos@sudtipos.com),\nwith Reserved Font Name "Bubblegum Sans"
Version: 001.001
ItalicAngle: 0
UnderlinePosition: -50
UnderlineWidth: 50
Ascent: 800
Descent: 200
sfntRevision: 0x00010042
LayerCount: 2
Layer: 0 1 "Back"  1
Layer: 1 1 "Fore"  0
NeedsXUIDChange: 1
XUID: [1021 288 713564382 8953457]
FSType: 0
OS2Version: 2
OS2_WeightWidthSlopeOnly: 0
OS2_UseTypoMetrics: 1
CreationTime: 1321731647
ModificationTime: 1321761009
PfmFamily: 17
TTFWeight: 400
TTFWidth: 5
LineGap: 0
VLineGap: 0
Panose: 2 0 5 6 0 0 0 2 0 4
OS2TypoAscent: 52
OS2TypoAOffset: 1
OS2TypoDescent: -111
OS2TypoDOffset: 1
OS2TypoLinegap: 0
OS2WinAscent: 0
OS2WinAOffset: 1
OS2WinDescent: 0
OS2WinDOffset: 1
HheadAscent: 0
HheadAOffset: 1
HheadDescent: 0
HheadDOffset: 1
OS2SubXSize: 700
OS2SubYSize: 650
OS2SubXOff: 0
OS2SubYOff: 140
OS2SupXSize: 700
OS2SupYSize: 650
OS2SupXOff: 0
OS2SupYOff: 477
OS2StrikeYSize: 50
OS2StrikeYPos: 250
OS2Vendor: 'SUDT'
OS2CodePages: 20000001.00000000
OS2UnicodeRanges: 80000027.5000004b.00000000.00000000
Lookup: 258 0 0 "'kern' Horizontal Kerning in Latin lookup 0"  {"'kern' Horizontal Kerning in Latin lookup 0 subtable"  } ['kern' ('DFLT' <'dflt' > 'latn' <'dflt' > ) ]
MarkAttachClasses: 1
DEI: 91125
TtTable: prep
PUSHW_1
 511
SCANCTRL
PUSHB_1
 4
SCANTYPE
EndTTInstrs
LangName: 1033 "" "" "" "Bubblegum Sans" "BubblegumSans-Regular" "Version 1.001" "" "Bubblegum Sans is a trademark of Angel Koziupa and Alejandro Paul." "Angel Koziupa and Alejandro Paul" "Angel Koziupa and Alejandro Paul" "" "http://www.sudtipos.com" "http://www.sudtipos.com" "This Font Software is licensed under the SIL Open Font License,+AA0A-Version 1.1. This license is available with a FAQ at:+AA0A-http://scripts.sil.org/OFL" "http://scripts.sil.org/OFL" 
GaspTable: 1 65535 15

StartChar: M
Encoding: 77 77 1
Width: 729
Flags: HMW
HStem: -46 21G<581.5 613.5> 645 20G<602.5 651>
VStem: 41 132<-35 191> 563 130<50 103 -22.5 147.5>
LayerCount: 2
Fore
SplineSet
77 -41 m 0,0,1
 55 -41 55 -41 41 -35 c 1,2,3
 41 133 41 133 69.5 443.5 c 2,4,-1
 79 547 l 1,5,6
 65 564 65 564 52.5 599 c 128,-1,7
 40 634 40 634 40 648 c 1,8,-1
 41 651 l 1,9,10
 44 655 44 655 91 658 c 128,-1,11
 138 661 138 661 194.5 661 c 128,-1,12
 251 661 251 661 256 656 c 128,-1,13
 261 651 261 651 304 530.5 c 128,-1,14
 347 410 347 410 368 344 c 0,15,16
 370 339 370 339 373 339 c 128,-1,17
 376 339 376 339 383 360.5 c 128,-1,18
 390 382 390 382 441 510.5 c 128,-1,19
 492 639 492 639 509 656 c 0,20,21
 518 665 518 665 606 665 c 128,-1,22
 694 665 694 665 694 660 c 0,23,24
 694 643 694 643 680.5 601 c 128,-1,25
 667 559 667 559 658 542 c 1,26,27
 693 225 693 225 693 -19 c 0,28,29
 693 -28.5294117647 693 -28.5294117647 652.5 -37.2647058824 c 128,-1,30
 612 -46 612 -46 586.091016764 -45.7932762391 c 128,-1,31
 560.182033528 -45.5865524781 560.182033528 -45.5865524781 560 -42 c 0,32,33
 563 -1 563 -1 563 90.5 c 128,-1,34
 563 182 563 182 558.5 308.5 c 0,35,36
 552.932806324 465 552.932806324 465 546 465 c 1,37,-1
 540 459 l 1,38,39
 520 422 520 422 488.5 334 c 128,-1,40
 457 246 457 246 436 176.5 c 2,41,-1
 415 107 l 1,42,43
 410 96 410 96 385.5 96 c 128,-1,44
 361 96 361 96 345.5 99 c 128,-1,45
 330 102 330 102 329 105 c 0,46,47
 326 116 326 116 267 280.5 c 128,-1,48
 208 445 208 445 199 456 c 1,49,50
 196 462 196 462 194 462 c 128,-1,51
 192 462 192 462 191 455 c 0,52,53
 173 364 173 364 173 187.5 c 128,-1,54
 173 11 173 11 178 -17 c 1,55,56
 153 -41 153 -41 77 -41 c 0,0,1
EndSplineSet
EndChar

StartChar: U
Encoding: 85 85 2
Width: 591
Flags: HMW
HStem: -33 21G<199 351.5> 675 20G<433.5 457.5>
VStem: 49 129<271 386.5 271 406.5> 425 126<286.5 446.5 214.5 499.5>
LayerCount: 2
Fore
SplineSet
186 624 m 2,0,-1
 178 349 l 1,1,2
 178 89 178 89 288 89 c 0,3,4
 321 89 321 89 344 102.5 c 128,-1,5
 367 116 367 116 386.5 151.5 c 0,6,7
 425 221.58974359 425 221.58974359 425 422.294871795 c 128,-1,8
 425 623 425 623 414 690 c 1,9,10
 425 695 425 695 442 695 c 0,11,12
 517 695 517 695 542 669 c 1,13,14
 551 624 551 624 551 384 c 0,15,16
 551 139.316455696 551 139.316455696 469.5 47.5 c 0,17,18
 430 3 430 3 383.5 -15 c 128,-1,19
 337 -33 337 -33 276 -33 c 0,20,21
 157 -33 157 -33 103 57.5 c 128,-1,22
 49 148 49 148 49 370 c 0,23,24
 49 454 49 454 51.5 501 c 128,-1,25
 54 548 54 548 53 549 c 0,26,27
 47 560 47 560 38.5 587 c 128,-1,28
 30 614 30 614 30 626 c 0,29,30
 30 630 30 630 49 637.5 c 0,31,32
 98.4 657 98.4 657 140.2 657 c 128,-1,33
 182 657 182 657 184 655 c 128,-1,34
 186 653 186 653 186 624 c 2,0,-1
EndSplineSet
EndChar

StartChar: X
Encoding: 88 88 3
Width: 626
Flags: HMW
HStem: -54 21G 655 20G<462.5 499.5>
LayerCount: 2
Fore
SplineSet
310 233 m 1,0,1
 156 -14 156 -14 149 -23.5 c 128,-1,2
 142 -33 142 -33 137 -33 c 0,3,4
 97 -33 97 -33 64 -22 c 128,-1,5
 31 -11 31 -11 18 -1 c 128,-1,6
 5 9 5 9 5 12.5 c 128,-1,7
 5 16 5 16 13 23 c 0,8,9
 89 100 89 100 247 346 c 1,10,11
 133 551 133 551 111 570 c 0,12,13
 103 577 103 577 83 585 c 128,-1,14
 63 593 63 593 47 593 c 1,15,16
 46 595 46 595 46 604.5 c 128,-1,17
 46 614 46 614 52.5 633.5 c 128,-1,18
 59 653 59 653 62 656 c 128,-1,19
 65 659 65 659 81 662 c 0,20,21
 123.666666667 670 123.666666667 670 168.333333333 670 c 128,-1,22
 213 670 213 670 215.5 668 c 128,-1,23
 218 666 218 666 230.5 641.5 c 0,24,25
 285.857142857 533 285.857142857 533 322 464 c 1,26,27
 456 675 456 675 469 675 c 0,28,29
 497 675 497 675 527 663 c 128,-1,30
 557 651 557 651 574 637.5 c 128,-1,31
 591 624 591 624 591 618 c 1,32,33
 521 559 521 559 384 350 c 1,34,35
 543 67 543 67 621 10 c 1,36,37
 621 -3 621 -3 573.5 -28.5 c 128,-1,38
 526 -54 526 -54 490 -54 c 2,39,-1
 486 -54 l 1,40,41
 449 -18 449 -18 310 233 c 1,0,1
EndSplineSet
EndChar

StartChar: a
Encoding: 97 97 4
Width: 459
Flags: HMW
HStem: -57 21G<331 356.5> -22 21G<125 207> 358 94<161 197.5>
VStem: 25 123<116.5 165 116.5 197.5> 296 111<159 223 198 203>
LayerCount: 2
Fore
SplineSet
407 223 m 2,0,1
 407 98 407 98 410 77 c 0,2,3
 418 22 418 22 444 -2 c 1,4,5
 444 -13 444 -13 404.5 -35 c 128,-1,6
 365 -57 365 -57 333 -57 c 0,7,8
 323.526315789 -57 323.526315789 -57 313.763157895 -30.5 c 128,-1,9
 304 -4 304 -4 302.5 9 c 128,-1,10
 301 22 301 22 300 22 c 2,11,-1
 297 20 l 1,12,13
 244 -22 244 -22 173 -22 c 128,-1,14
 102 -22 102 -22 63.5 12.5 c 128,-1,15
 25 47 25 47 25 103 c 128,-1,16
 25 159 25 159 49.5 197.5 c 128,-1,17
 74 236 74 236 107 256 c 128,-1,18
 140 276 140 276 179.5 288.5 c 0,19,20
 241.12 308 241.12 308 276 308 c 1,21,-1
 278 309 l 1,22,23
 278 358 278 358 154 358 c 0,24,25
 105 358 105 358 81 354 c 1,26,-1
 80 354 l 1,27,28
 80 374 80 374 92.5 404 c 128,-1,29
 105 434 105 434 113.5 443 c 128,-1,30
 122 452 122 452 185 452 c 0,31,32
 299 452 299 452 353 408.5 c 128,-1,33
 407 365 407 365 407 274 c 2,34,-1
 407 223 l 2,0,1
296 159 m 2,35,-1
 296 197 l 2,36,37
 296 219 296 219 295 219 c 0,38,39
 228.318181818 219 228.318181818 219 179 184 c 0,40,41
 148 162 148 162 148 129 c 0,42,43
 148 108 148 108 163 94 c 128,-1,44
 178 80 178 80 208.5 80 c 128,-1,45
 239 80 239 80 267.5 98 c 128,-1,46
 296 116 296 116 296 159 c 2,35,-1
EndSplineSet
EndChar

StartChar: o
Encoding: 111 111 5
Width: 484
Flags: HMW
HStem: -26 21G<173 309.5> 422 20G<204 287>
VStem: 339 115<154.5 242>
LayerCount: 2
Fore
SplineSet
396.5 43.5 m 128,-1,1
 339 -26 339 -26 240.5 -26 c 128,-1,2
 142 -26 142 -26 86 35 c 128,-1,3
 30 96 30 96 30 193.5 c 128,-1,4
 30 291 30 291 99.5 366.5 c 128,-1,5
 169 442 169 442 287 442 c 1,6,7
 335 440 335 440 339 436 c 128,-1,8
 343 432 343 432 343 417 c 128,-1,9
 343 402 343 402 340 384 c 1,10,11
 354.884615385 384 354.884615385 384 378.442307692 366.5 c 128,-1,12
 402 349 402 349 417 331 c 128,-1,13
 432 313 432 313 443 280.5 c 128,-1,14
 454 248 454 248 454 208 c 0,15,0
 454 113 454 113 396.5 43.5 c 128,-1,1
308.5 278.5 m 0,16,17
 285.470588235 293 285.470588235 293 263 293 c 2,18,-1
 255 293 l 1,19,20
 253 297 253 297 253 310 c 128,-1,21
 253 323 253 323 256 335 c 1,22,23
 215 335 215 335 179.5 298 c 128,-1,24
 144 261 144 261 144 195 c 0,25,26
 144 117.461538462 144 117.461538462 193.5 87 c 0,27,28
 213 75 213 75 246.5 75 c 128,-1,29
 280 75 280 75 309.5 106 c 128,-1,30
 339 137 339 137 339 198.148148148 c 128,-1,31
 339 259.296296296 339 259.296296296 308.5 278.5 c 0,16,17
EndSplineSet
EndChar

StartChar: paragraph
Encoding: 182 182 6
Width: 520
Flags: HMW
HStem: -28 21G<410.5 438> -15 21G<249 267.5> 643 20G<423 423>
LayerCount: 2
Fore
SplineSet
465 247 m 1,0,-1
 466 -16 l 1,1,2
 450 -28 450 -28 431 -28 c 0,3,4
 397.2 -28 397.2 -28 381 -19 c 1,5,6
 387 23 387 23 387 224 c 2,7,-1
 386 462 l 2,8,9
 386 572 386 572 388 592 c 1,10,11
 357 592 357 592 325 578 c 1,12,13
 318 571 318 571 318 428 c 1,14,-1
 321 73 l 2,15,16
 321 18 321 18 319 8 c 1,17,18
 315 -2 315 -2 295.5 -8.5 c 128,-1,19
 276 -15 276 -15 256.117239976 -14.7505597395 c 128,-1,20
 236.234479951 -14.5011194789 236.234479951 -14.5011194789 236 -12 c 1,21,22
 243 5 243 5 243 124 c 128,-1,23
 243 243 243 243 242 253 c 1,24,25
 189 266 189 266 145 286.5 c 128,-1,26
 101 307 101 307 65.5 348 c 128,-1,27
 30 389 30 389 30 441 c 0,28,29
 30 501.181818182 30 501.181818182 77.5 553 c 0,30,31
 136.014792899 616.834319527 136.014792899 616.834319527 261 645 c 0,32,33
 332 661 332 661 423 663 c 1,34,-1
 431 663 l 2,35,36
 469 663 469 663 469 657 c 0,37,38
 463 548 463 548 463 395 c 1,39,-1
 465 247 l 1,0,-1
EndSplineSet
EndChar

StartChar: AE
Encoding: 198 198 7
Width: 855
Flags: HMW
HStem: -68 21G<476 511.5> 302 99<681.5 697.5 660.5 699 660.5 706> 673 20G<384 412>
LayerCount: 2
Fore
SplineSet
776 0 m 0,0,1
 770 -6 770 -6 607 -8 c 1,2,-1
 613 -19 l 1,3,4
 613 -24 613 -24 593 -35.5 c 128,-1,5
 573 -47 573 -47 541 -57.5 c 128,-1,6
 509 -68 509 -68 483 -68 c 0,7,8
 473 -68 473 -68 436.5 50 c 128,-1,9
 400 168 400 168 388 224 c 1,10,11
 374 225 374 225 302 225 c 128,-1,12
 230 225 230 225 218 221 c 1,13,14
 162 35 162 35 155 -50 c 0,15,16
 155 -51 155 -51 130.5 -51 c 128,-1,17
 106 -51 106 -51 80.5 -48 c 0,18,19
 25 -41.4705882353 25 -41.4705882353 25 -34 c 0,20,21
 25 1 25 1 99 219 c 1,22,23
 86 230 86 230 68.5 264 c 128,-1,24
 51 298 51 298 51 321 c 0,25,26
 51 323 51 323 134 325 c 1,27,28
 219 567 219 567 228 576 c 0,29,30
 232 580 232 580 265.5 586.5 c 128,-1,31
 299 593 299 593 305 593 c 1,32,-1
 303 606.5 l 2,33,34
 301 620 301 620 298.5 636 c 128,-1,35
 296 652 296 652 296 656.5 c 128,-1,36
 296 661 296 661 312.5 669.5 c 128,-1,37
 329 678 329 678 357.5 685.5 c 128,-1,38
 386 693 386 693 412 693 c 1,39,40
 429 591 429 591 431.5 591 c 128,-1,41
 434 591 434 591 435 593 c 1,42,43
 435 656 435 656 441 662 c 1,44,45
 522 666 522 666 664.5 666 c 128,-1,46
 807 666 807 666 807 662 c 0,47,48
 807 641 807 641 797.5 616 c 128,-1,49
 788 591 788 591 777.5 576.5 c 128,-1,50
 767 562 767 562 762.5 563.5 c 128,-1,51
 758 565 758 565 722.5 565 c 128,-1,52
 687 565 687 565 622 560.5 c 128,-1,53
 557 556 557 556 551 550 c 128,-1,54
 545 544 545 544 545 441 c 1,55,-1
 546 399 l 1,56,57
 640 401 640 401 690 401 c 128,-1,58
 740 401 740 401 740 398 c 0,59,60
 740 359.352941176 740 359.352941176 716.5 316.5 c 0,61,62
 708 301 708 301 706 302 c 1,63,-1
 699 302 l 2,64,65
 670 302 670 302 610 296.5 c 128,-1,66
 550 291 550 291 547.5 288.5 c 128,-1,67
 545 286 545 286 545 203 c 128,-1,68
 545 120 545 120 549 116 c 0,69,70
 564 101 564 101 720 101 c 0,71,72
 774 101 774 101 793 104 c 0,73,74
 825 109.052631579 825 109.052631579 825 106 c 0,75,76
 825 83 825 83 809.5 50.5 c 128,-1,77
 794 18 794 18 776 0 c 0,0,1
252 328 m 1,78,-1
 319 329 l 2,79,80
 362 329 362 329 364 327 c 1,81,82
 332 462 332 462 324 501 c 0,83,84
 322.5 504 322.5 504 320.25 504 c 128,-1,85
 318 504 318 504 314 495 c 128,-1,86
 310 486 310 486 284.5 419.5 c 128,-1,87
 259 353 259 353 252 328 c 1,78,-1
EndSplineSet
EndChar

StartChar: braceleft
Encoding: 123 123 8
Width: 247
Flags: HMW
HStem: -108 21G<176 186> 735 20G<176 186>
LayerCount: 2
Fore
SplineSet
65 492 m 2,0,-1
 64 637 l 2,1,2
 64 680 64 680 66 683 c 0,3,4
 72 696 72 696 121.5 725.5 c 128,-1,5
 171 755 171 755 186 755 c 1,6,7
 218 748 218 748 237 725 c 1,8,9
 165 668 165 668 160 643 c 1,10,11
 157 543 157 543 157 471.5 c 128,-1,12
 157 400 157 400 160 382 c 1,13,14
 100 335 100 335 100 323 c 0,15,16
 100 313 100 313 145 277 c 2,17,-1
 160 265 l 1,18,19
 157 246 157 246 157 180 c 1,20,-1
 160 4 l 1,21,22
 163.64516129 -17.8709677419 163.64516129 -17.8709677419 219 -64 c 2,23,-1
 237 -79 l 1,24,25
 220.246376812 -99.9420289855 220.246376812 -99.9420289855 186 -108 c 1,26,27
 171 -108 171 -108 121.5 -78.5 c 128,-1,28
 72 -49 72 -49 66 -37 c 0,29,30
 64 -33 64 -33 64 19 c 2,31,-1
 65 153 l 2,32,33
 65 234 65 234 61 262 c 1,34,35
 5 313 5 313 5 323 c 0,36,37
 5 331 5 331 47 371.5 c 2,38,-1
 61 385 l 1,39,40
 65 412 65 412 65 492 c 2,0,-1
EndSplineSet
EndChar

StartChar: caron
Encoding: 711 711 9
Width: 484
Flags: HMW
HStem: 488 21G<208 212.5 272.5 277> 599 20G<163.5 170 314 320.5>
LayerCount: 2
Fore
SplineSet
242 553 m 1,0,1
 251 558 251 558 278 583.5 c 128,-1,2
 305 609 305 609 314 619 c 1,3,4
 323 619 323 619 336 608 c 128,-1,5
 349 597 349 597 351 588 c 1,6,7
 351 576 351 576 323 538 c 128,-1,8
 295 500 295 500 277 488 c 1,9,10
 261 488 261 488 242 502 c 1,11,12
 221 488 221 488 208 488 c 1,13,14
 189 500 189 500 161.5 538 c 128,-1,15
 134 576 134 576 134 588 c 1,16,17
 136 597 136 597 148.5 608 c 128,-1,18
 161 619 161 619 170 619 c 1,19,20
 178 610 178 610 206 584 c 128,-1,21
 234 558 234 558 242 553 c 1,0,1
EndSplineSet
EndChar

StartChar: onequarter
Encoding: 188 188 10
Width: 672
Flags: HMW
HStem: -38 21G<72 90> -19 21G<529 545> 86 60<396 473> 678 20G<527 544.5>
LayerCount: 2
Fore
SplineSet
593 89 m 1,0,1
 593 24 593 24 599 -2 c 1,2,3
 599 -7 599 -7 575 -13 c 128,-1,4
 551 -19 551 -19 534 -19 c 1,5,-1
 520 -18 l 1,6,7
 517 -15 517 -15 517 4.5 c 128,-1,8
 517 24 517 24 519 88 c 1,9,10
 477 86 477 86 416.5 86 c 128,-1,11
 356 86 356 86 352 88 c 1,12,13
 342.0625 97.9375 342.0625 97.9375 340 133 c 0,14,15
 340 148 340 148 406 247.5 c 128,-1,16
 472 347 472 347 507 386 c 1,17,18
 512 395 512 395 546 395 c 128,-1,19
 580 395 580 395 580 392 c 128,-1,20
 580 389 580 389 562.5 368.5 c 128,-1,21
 545 348 545 348 545 345 c 1,22,23
 595 344 595 344 595 337 c 0,24,25
 592 239 592 239 592 148 c 1,26,27
 620 148 620 148 626 149 c 128,-1,28
 632 150 632 150 632 147 c 0,29,30
 632 132 632 132 624 113.5 c 128,-1,31
 616 95 616 95 612 91 c 1,32,-1
 593 89 l 1,0,1
47 -27 m 1,33,-1
 504 694 l 1,34,35
 517 698 517 698 530 698 c 0,36,37
 555 698 555 698 575 686 c 1,38,-1
 115 -35 l 1,39,40
 98 -38 98 -38 86 -38 c 0,41,42
 62.4 -38 62.4 -38 47 -27 c 1,33,-1
165 635 m 2,43,-1
 162 416 l 2,44,45
 162 357 162 357 165 354 c 1,46,47
 177 355 177 355 185 355 c 128,-1,48
 193 355 193 355 193 354 c 0,49,50
 197 342 197 342 197 320 c 128,-1,51
 197 298 197 298 194 298 c 2,52,-1
 178 298 l 2,53,54
 131 298 131 298 87.5 292 c 2,55,-1
 73 290 l 1,56,57
 70 293 70 293 70 317.5 c 128,-1,58
 70 342 70 342 73 345 c 1,59,-1
 96 349 l 1,60,-1
 95 376 l 1,61,-1
 99 544 l 2,62,63
 99 582 99 582 95 586 c 0,64,65
 95 587 95 587 90.5 587 c 128,-1,66
 86 587 86 587 73.5 584.5 c 2,67,-1
 41 578 l 2,68,69
 40 578 40 578 40 599 c 128,-1,70
 40 620 40 620 45.5 625.5 c 128,-1,71
 51 631 51 631 101.5 651 c 128,-1,72
 152 671 152 671 162 671 c 2,73,-1
 163 671 l 1,74,75
 165 669 165 669 165 635 c 2,43,-1
462 146 m 2,76,-1
 522 147 l 1,77,78
 525 221 525 221 525 267 c 128,-1,79
 525 313 525 313 523 313 c 1,80,81
 513.487804878 303.487804878 513.487804878 303.487804878 467.243902439 233.243902439 c 128,-1,82
 421 163 421 163 421 149 c 0,83,84
 421 146 421 146 462 146 c 2,76,-1
EndSplineSet
EndChar

StartChar: B
Encoding: 66 66 11
Width: 579
Flags: HMW
HStem: -46 21G<130 239> 657 20G<184 286>
VStem: 364 148<486.5 534> 410 139<162.5 240>
LayerCount: 2
Fore
SplineSet
223 68 m 0,0,1
 290 68 290 68 350 107 c 128,-1,2
 410 146 410 146 410 199 c 0,3,4
 410 237 410 237 379.5 262 c 0,5,6
 328.26 304 328.26 304 235 304 c 0,7,8
 212 304 212 304 210.5 303 c 128,-1,9
 209 302 209 302 209 210 c 128,-1,10
 209 118 209 118 218 69 c 1,11,12
 220 68 220 68 223 68 c 0,0,1
345.5 457.5 m 128,-1,14
 364 479 364 479 364 502.5 c 128,-1,15
 364 526 364 526 350 540 c 128,-1,16
 336 554 336 554 315 561 c 128,-1,17
 294 568 294 568 274.5 571 c 128,-1,18
 255 574 255 574 237 574 c 128,-1,19
 219 574 219 574 217.5 572.5 c 128,-1,20
 216 571 216 571 213.5 490.5 c 128,-1,21
 211 410 211 410 211 405 c 1,22,23
 212 404 212 404 221.5 404 c 128,-1,24
 231 404 231 404 253 409.5 c 128,-1,25
 275 415 275 415 301 425.5 c 128,-1,13
 327 436 327 436 345.5 457.5 c 128,-1,14
84 140 m 2,26,-1
 89 522 l 2,27,28
 89 562 89 562 87 564 c 0,29,30
 76 575 76 575 58 612.5 c 128,-1,31
 40 650 40 650 40 661 c 1,32,-1
 41 664 l 1,33,34
 47 669 47 669 104.5 673 c 128,-1,35
 162 677 162 677 218.5 677 c 128,-1,36
 275 677 275 677 322 670 c 128,-1,37
 369 663 369 663 413.5 648 c 128,-1,38
 458 633 458 633 485 603.5 c 128,-1,39
 512 574 512 574 512 537.5 c 128,-1,40
 512 501 512 501 496.5 471.5 c 128,-1,41
 481 442 481 442 457.5 422 c 0,42,43
 422.606060606 392.303030303 422.606060606 392.303030303 390 376 c 0,44,45
 388 374 388 374 388 373 c 0,46,47
 389 372 389 372 402.5 368 c 128,-1,48
 416 364 416 364 428.5 358.5 c 128,-1,49
 441 353 441 353 459 344 c 128,-1,50
 477 335 477 335 492 322.5 c 128,-1,51
 507 310 507 310 520.5 294 c 0,52,53
 549 260.222222222 549 260.222222222 549 201.611111111 c 128,-1,54
 549 143 549 143 513 92 c 128,-1,55
 477 41 477 41 417 12 c 0,56,57
 297 -46 297 -46 144 -46 c 1,58,-1
 93 -43 l 1,59,60
 90 -39 90 -39 87 29.5 c 128,-1,61
 84 98 84 98 84 140 c 2,26,-1
EndSplineSet
EndChar

StartChar: C
Encoding: 67 67 12
Width: 600
Flags: HMW
HStem: -31 21G<229.5 405> 659 20G<281 460.5>
VStem: 35 133<234 347.5>
LayerCount: 2
Fore
SplineSet
331 -31 m 0,0,1
 185 -31 185 -31 110 53 c 128,-1,2
 35 137 35 137 35 270 c 0,3,4
 35 383.086206897 35 383.086206897 85 480.5 c 0,5,6
 114 537 114 537 158 580 c 128,-1,7
 202 623 202 623 277 651 c 128,-1,8
 352 679 352 679 447 679 c 0,9,10
 479.285714286 679 479.285714286 679 504.142857143 673 c 128,-1,11
 529 667 529 667 529 665 c 0,12,13
 529 616.571428571 529 616.571428571 522.5 555.285714286 c 128,-1,14
 516 494 516 494 515 493 c 0,15,16
 510 488 510 488 473.5 477 c 128,-1,17
 437 466 437 466 419 466 c 1,18,-1
 419 472 l 2,19,20
 419 517 419 517 406 535 c 128,-1,21
 393 553 393 553 361 553 c 0,22,23
 290 553 290 553 229 478.5 c 128,-1,24
 168 404 168 404 168 274 c 0,25,26
 168 204.777777778 168 204.777777778 202 150 c 0,27,28
 220 121 220 121 254.5 103 c 128,-1,29
 289 85 289 85 336 85 c 0,30,31
 430 85 430 85 519 172 c 1,32,33
 523 172 523 172 535.5 159.5 c 128,-1,34
 548 147 548 147 560.5 126.5 c 0,35,36
 585 86.32 585 86.32 585 77.16 c 128,-1,37
 585 68 585 68 554 43.5 c 128,-1,38
 523 19 523 19 460 -6 c 128,-1,39
 397 -31 397 -31 331 -31 c 0,0,1
EndSplineSet
EndChar

StartChar: D
Encoding: 68 68 13
Width: 625
Flags: HMW
HStem: -32 21G<128 214> 659 20G<125 301>
VStem: 83 127<103.5 349> 462 133<252 451>
LayerCount: 2
Fore
SplineSet
442 249.5 m 128,-1,1
 462 299 462 299 462 355 c 128,-1,2
 462 411 462 411 442 450.5 c 128,-1,3
 422 490 422 490 395 510.5 c 128,-1,4
 368 531 368 531 333 544 c 0,5,6
 279.153846154 564 279.153846154 564 230 564 c 0,7,8
 217 564 217 564 217 563 c 0,9,10
 210 556 210 556 210 327 c 128,-1,11
 210 98 210 98 217 91 c 0,12,13
 219 89 219 89 231.5 89 c 128,-1,14
 244 89 244 89 269.5 96 c 128,-1,15
 295 103 295 103 329.5 122.5 c 128,-1,16
 364 142 364 142 393 171 c 128,-1,0
 422 200 422 200 442 249.5 c 128,-1,1
83 152 m 1,17,-1
 86 547 l 1,18,19
 75 564 75 564 58 607.5 c 128,-1,20
 41 651 41 651 41 659.5 c 128,-1,21
 41 668 41 668 42 669 c 0,22,23
 52 679 52 679 160 679 c 0,24,25
 368 679 368 679 481.5 592 c 128,-1,26
 595 505 595 505 595 359 c 0,27,28
 595 287 595 287 572 226.5 c 128,-1,29
 549 166 549 166 510.5 124.5 c 128,-1,30
 472 83 472 83 424.5 51.5 c 128,-1,31
 377 20 377 20 324 2.5 c 0,32,33
 219.514285714 -32 219.514285714 -32 135 -32 c 0,34,35
 95 -32 95 -32 89 -26 c 128,-1,36
 83 -20 83 -20 83 152 c 1,17,-1
EndSplineSet
EndChar

StartChar: E
Encoding: 69 69 14
Width: 530
Flags: HMW
HStem: -18 21G<212.5 315.5> 644 20G<354 420.5>
VStem: 94 123<425 513>
LayerCount: 2
Fore
SplineSet
93 391 m 1,0,-1
 94 499 l 2,1,2
 94 542 94 542 92 546 c 1,3,4
 81 557 81 557 63.5 599 c 128,-1,5
 46 641 46 641 46 653 c 1,6,7
 57 664 57 664 397 664 c 0,8,9
 481 664 481 664 481 660 c 0,10,11
 481 639 481 639 471.5 614 c 128,-1,12
 462 589 462 589 451.5 574 c 128,-1,13
 441 559 441 559 436.5 560.5 c 128,-1,14
 432 562 432 562 395.5 562 c 128,-1,15
 359 562 359 562 294 557.5 c 128,-1,16
 229 553 229 553 223 547 c 128,-1,17
 217 541 217 541 217 437 c 1,18,-1
 218 395 l 1,19,20
 258 396 258 396 336 396 c 128,-1,21
 414 396 414 396 414 393 c 0,22,23
 414 357.117647059 414 357.117647059 389.5 311 c 0,24,25
 381 295 381 295 379 296 c 1,26,27
 353 296 353 296 290 291.5 c 128,-1,28
 227 287 227 287 217 281 c 0,29,30
 216 280 216 280 216 197 c 128,-1,31
 216 114 216 114 221 109 c 0,32,33
 237 93 237 93 393 93 c 0,34,35
 456 93 456 93 478 96.5 c 128,-1,36
 500 100 500 100 500 99 c 0,37,38
 500 75 500 75 484 42 c 128,-1,39
 468 9 468 9 450 -8 c 0,40,41
 440 -18 440 -18 270.5 -18 c 128,-1,42
 101 -18 101 -18 95 -10 c 1,43,44
 89 -5 89 -5 89 86.5 c 128,-1,45
 89 178 89 178 91 280 c 1,46,47
 73 296 73 296 56.5 330 c 128,-1,48
 40 364 40 364 40 388 c 0,49,50
 40 389 40 389 93 391 c 1,0,-1
EndSplineSet
EndChar

StartChar: F
Encoding: 70 70 15
Width: 507
Flags: HMW
HStem: -33 21G<110 152.5> 299 100<345.5 366 366 367.5 330.5 376> 644 20G<350.5 416.5>
VStem: 93 121
LayerCount: 2
Fore
SplineSet
122 -33 m 1,0,-1
 91 -30 l 1,1,2
 89 -20 89 -20 89 106.5 c 128,-1,3
 89 233 89 233 90 284 c 1,4,5
 73 300 73 300 56.5 333.5 c 128,-1,6
 40 367 40 367 40 391 c 0,7,8
 40 392 40 392 92 394 c 1,9,10
 93 436 93 436 93 491 c 128,-1,11
 93 546 93 546 92 547 c 0,12,13
 81 558 81 558 63.5 599.5 c 128,-1,14
 46 641 46 641 46 653 c 1,15,16
 57 664 57 664 393 664 c 0,17,18
 477 664 477 664 477 660 c 0,19,20
 477 639 477 639 467.5 614 c 128,-1,21
 458 589 458 589 447.5 574.5 c 128,-1,22
 437 560 437 560 434 561 c 128,-1,23
 431 562 431 562 398 562 c 128,-1,24
 365 562 365 562 296 557.5 c 128,-1,25
 227 553 227 553 221 547.5 c 128,-1,26
 215 542 215 542 215 439 c 1,27,-1
 216 397 l 1,28,29
 310 399 310 399 360 399 c 128,-1,30
 410 399 410 399 410 396 c 0,31,32
 410 357.352941176 410 357.352941176 386.5 314.5 c 0,33,34
 378 299 378 299 376 299 c 2,35,-1
 366 299 l 2,36,37
 334 299 334 299 277 294 c 128,-1,38
 220 289 220 289 217 286 c 128,-1,39
 214 283 214 283 214 161 c 128,-1,40
 214 39 214 39 227 -5 c 1,41,42
 227 -17.9019607843 227 -17.9019607843 188.5 -25.4509803922 c 128,-1,43
 150 -33 150 -33 122 -33 c 1,0,-1
EndSplineSet
EndChar

StartChar: G
Encoding: 71 71 16
Width: 631
Flags: HMW
HStem: -39 21G<474 496> -30 21G<205 329.5> 651 20G<256 433.5>
VStem: 35 132<226 344.5>
LayerCount: 2
Fore
SplineSet
351 282 m 1,0,-1
 290 279 l 2,1,2
 286 279 286 279 286 292 c 128,-1,3
 286 305 286 305 295 336 c 128,-1,4
 304 367 304 367 318 381 c 128,-1,5
 332 395 332 395 554 395 c 0,6,7
 611 395 611 395 611 390 c 0,8,9
 611 367 611 367 598.5 327.5 c 128,-1,10
 586 288 586 288 577 275 c 1,11,12
 576 6 576 6 570.5 -4 c 128,-1,13
 565 -14 565 -14 534 -26.5 c 128,-1,14
 503 -39 503 -39 481.5 -39 c 128,-1,15
 460 -39 460 -39 460 -36 c 0,16,17
 460 18 460 18 455 29 c 1,18,-1
 453 31 l 1,19,-1
 450 29 l 1,20,21
 391 -30 391 -30 296 -30 c 0,22,23
 166 -30 166 -30 100.5 54 c 128,-1,24
 35 138 35 138 35 271 c 0,25,26
 35 382.549019608 35 382.549019608 76.5 474.5 c 0,27,28
 102 531 102 531 142.5 573 c 128,-1,29
 183 615 183 615 254.5 643 c 128,-1,30
 326 671 326 671 420 671 c 0,31,32
 441 671 441 671 478 666 c 128,-1,33
 515 661 515 661 517.5 658 c 128,-1,34
 520 655 520 655 520 636 c 128,-1,35
 520 617 520 617 515 584 c 128,-1,36
 510 551 510 551 504 545 c 1,37,38
 473 561 473 561 399 561 c 0,39,40
 293 561 293 561 230 490 c 128,-1,41
 167 419 167 419 167 282 c 0,42,43
 167 194 167 194 203 141 c 128,-1,44
 239 88 239 88 304 88 c 128,-1,45
 369 88 369 88 409.5 120 c 128,-1,46
 450 152 450 152 450 174 c 2,47,-1
 450 206 l 2,48,49
 450 267 450 267 444 273 c 1,50,51
 437 282 437 282 351 282 c 1,0,-1
EndSplineSet
EndChar

StartChar: H
Encoding: 72 72 17
Width: 628
Flags: HMW
HStem: -43 21G<462.5 488> -23 21G<125.5 155> 657 20G<504 533>
VStem: 89 122 419 114
LayerCount: 2
Fore
SplineSet
211 392 m 1,0,-1
 344 393 l 2,1,2
 418 393 418 393 418 391 c 1,3,4
 418 522 418 522 422 582 c 128,-1,5
 426 642 426 642 426 644 c 128,-1,6
 426 646 426 646 440.5 654 c 128,-1,7
 455 662 455 662 481 669.5 c 128,-1,8
 507 677 507 677 525.5 677 c 128,-1,9
 544 677 544 677 544 673 c 0,10,11
 533 526 533 526 533 359.5 c 128,-1,12
 533 193 533 193 543 112 c 128,-1,13
 553 31 553 31 587 -3 c 1,14,15
 587 -5 587 -5 577.5 -13 c 128,-1,16
 568 -21 568 -21 532.5 -32 c 128,-1,17
 497 -43 497 -43 466 -43 c 1,18,-1
 454 -41 l 1,19,20
 435 -22 435 -22 427.5 37.5 c 128,-1,21
 420 97 420 97 419 288 c 1,22,23
 402 289 402 289 310.5 289 c 128,-1,24
 219 289 219 289 210 286 c 1,25,26
 209 258 209 258 209 162.5 c 128,-1,27
 209 67 209 67 217 3 c 1,28,29
 217 -7.7619047619 217 -7.7619047619 185 -15.380952381 c 128,-1,30
 153 -23 153 -23 125.5 -23 c 128,-1,31
 98 -23 98 -23 92.5 -17.5 c 128,-1,32
 87 -12 87 -12 87 166 c 2,33,-1
 87 284 l 1,34,35
 74 296 74 296 57 330 c 128,-1,36
 40 364 40 364 40 386 c 0,37,38
 40 389 40 389 89 389 c 1,39,40
 90 460 90 460 90 552 c 2,41,-1
 90 573 l 1,42,43
 64 621 64 621 64 668 c 0,44,45
 64 672 64 672 65 673 c 0,46,47
 71 674 71 674 76 674 c 128,-1,48
 81 674 81 674 98.5 674 c 128,-1,49
 116 674 116 674 148 667.5 c 128,-1,50
 180 661 180 661 199 653 c 128,-1,51
 218 645 218 645 218 640 c 0,52,53
 211 591 211 591 211 412 c 2,54,-1
 211 392 l 1,0,-1
EndSplineSet
EndChar

StartChar: I
Encoding: 73 73 18
Width: 307
Flags: HMW
HStem: -24 21G<47 48> -10 21G<233 257.5> 647 20G<199 256>
VStem: 45 164 89 120<253.5 267.5> 89 173<43 267.5>
LayerCount: 2
Fore
SplineSet
258 89 m 0,0,1
 262 89 262 89 262 39.5 c 128,-1,2
 262 -10 262 -10 256 -10 c 0,3,4
 111 -10 111 -10 48 -24 c 0,5,6
 45 -24 45 -24 45 20 c 128,-1,7
 45 64 45 64 52 73 c 1,8,9
 64 79 64 79 91 79 c 1,10,11
 89 113 89 113 89 321.5 c 128,-1,12
 89 530 89 530 94 560 c 1,13,-1
 92 560 l 2,14,15
 65 560 65 560 47 554 c 0,16,17
 45 554 45 554 45 599.5 c 128,-1,18
 45 645 45 645 51 651 c 0,19,20
 56.7234042553 656.723404255 56.7234042553 656.723404255 130.861702128 661.861702128 c 128,-1,21
 205 667 205 667 255 667 c 0,22,23
 258 667 258 667 258 651 c 2,24,-1
 255 577 l 2,25,26
 255 573 255 573 252 573 c 0,27,28
 218 573 218 573 216 571.5 c 128,-1,29
 214 570 214 570 213 530.5 c 0,30,31
 209 372.5 209 372.5 209 256.75 c 128,-1,32
 209 141 209 141 217 88 c 1,33,34
 230 89 230 89 258 89 c 0,0,1
EndSplineSet
EndChar

StartChar: J
Encoding: 74 74 19
Width: 506
Flags: HMW
HStem: -26 21G<32 46> -24 21G<188.5 277> 654 20G<400.5 464.5>
VStem: 20 107<26 267> 328 124<392.5 429 332 451.5>
LayerCount: 2
Fore
SplineSet
450 573 m 2,0,-1
 452 382 l 1,1,2
 452 181 452 181 442 140 c 0,3,4
 422 59 422 59 364 17.5 c 128,-1,5
 306 -24 306 -24 227 -24 c 0,6,7
 193 -24 193 -24 165.5 -18 c 128,-1,8
 138 -12 138 -12 128 -5.5 c 2,9,-1
 118 1 l 1,10,11
 83 -26 83 -26 35 -26 c 0,12,13
 25 -26 25 -26 24 -25 c 2,14,-1
 20 26 l 1,15,16
 20 159.375 20 159.375 31 218.5 c 2,17,-1
 35 240 l 1,18,19
 41 248 41 248 72 257.5 c 128,-1,20
 103 267 103 267 127 267 c 1,21,22
 127 157 127 157 153 119.5 c 128,-1,23
 179 82 179 82 232 82 c 0,24,25
 327 82 327 82 327 259 c 1,26,-1
 328 416 l 2,27,28
 328 538 328 538 317 549 c 0,29,30
 297 569 297 569 234 569 c 2,31,-1
 230 569 l 1,32,33
 226 571 226 571 226 589 c 128,-1,34
 226 607 226 607 231 626 c 128,-1,35
 236 645 236 645 239.5 648.5 c 128,-1,36
 243 652 243 652 271 657.5 c 0,37,38
 355 674 355 674 462 674 c 0,39,40
 476 674 476 674 476 672 c 0,41,42
 476 648 476 648 463 611 c 128,-1,43
 450 574 450 574 450 573 c 2,0,-1
EndSplineSet
EndChar

StartChar: K
Encoding: 75 75 20
Width: 568
Flags: HMW
HStem: -44 21G<434 468> 671 20G<421 452>
VStem: 76 125<424.5 645>
LayerCount: 2
Fore
SplineSet
65 20 m 1,0,-1
 76 487 l 1,1,2
 76 558 76 558 71 565.5 c 128,-1,3
 66 573 66 573 53 603.5 c 128,-1,4
 40 634 40 634 40 643 c 0,5,6
 40 647 40 647 60.5 654.5 c 0,7,8
 113.8 674 113.8 674 155.4 674 c 128,-1,9
 197 674 197 674 199 671.5 c 128,-1,10
 201 669 201 669 201 632.5 c 128,-1,11
 201 596 201 596 196 446 c 0,12,13
 196 440 196 440 198 440 c 128,-1,14
 200 440 200 440 203 444 c 0,15,16
 259 518 259 518 338 604.5 c 128,-1,17
 417 691 417 691 433.5 691 c 128,-1,18
 450 691 450 691 476 680 c 128,-1,19
 502 669 502 669 519.5 656.5 c 128,-1,20
 537 644 537 644 537 640 c 2,21,-1
 537 639 l 1,22,23
 498 614 498 614 450 570 c 128,-1,24
 402 526 402 526 372 493 c 128,-1,25
 342 460 342 460 342 455 c 0,26,27
 342 418 342 418 423.5 239.5 c 128,-1,28
 505 61 505 61 557 8 c 0,29,30
 558 7 558 7 552.5 1.5 c 128,-1,31
 547 -4 547 -4 535 -11.5 c 128,-1,32
 523 -19 523 -19 508 -26.5 c 0,33,34
 473 -44 473 -44 434 -44 c 1,35,36
 398 -8 398 -8 354 90.5 c 128,-1,37
 310 189 310 189 281.5 269 c 128,-1,38
 253 349 253 349 251 349 c 0,39,40
 246 349 246 349 219.5 307.5 c 128,-1,41
 193 266 193 266 193 258 c 2,42,-1
 193 193 l 2,43,44
 193 21 193 21 199 -8 c 0,45,46
 200 -11 200 -11 188 -17 c 0,47,48
 154 -34 154 -34 102 -34 c 1,49,-1
 68 -29 l 1,50,51
 65 -26 65 -26 65 20 c 1,0,-1
EndSplineSet
EndChar

StartChar: L
Encoding: 76 76 21
Width: 547
Flags: HMW
HStem: -28 21G<487 495> -21 21G<105 117> 668 20G<146 174>
VStem: 77 123<188.5 489>
LayerCount: 2
Fore
SplineSet
206 625 m 2,0,-1
 200 213 l 1,1,2
 200 136 200 136 203 99 c 1,3,4
 219 95 219 95 254.5 95 c 128,-1,5
 290 95 290 95 315.5 101 c 128,-1,6
 341 107 341 107 358.5 122.5 c 128,-1,7
 376 138 376 138 387 151.5 c 128,-1,8
 398 165 398 165 406.5 192 c 0,9,10
 417.89 228.18 417.89 228.18 430 287 c 0,11,12
 430 288 430 288 444.5 288 c 128,-1,13
 459 288 459 288 490.5 274.5 c 128,-1,14
 522 261 522 261 522 254 c 0,15,16
 522 177 522 177 514.5 79.5 c 0,17,18
 506.230769231 -28 506.230769231 -28 494.615384615 -28 c 128,-1,19
 483 -28 483 -28 450 -19.5 c 128,-1,20
 417 -11 417 -11 400 -4 c 1,21,22
 309.553191489 -19.0744680851 309.553191489 -19.0744680851 167 -20.5 c 2,23,-1
 117 -21 l 1,24,-1
 77 -16 l 1,25,26
 73 -12 73 -12 73 72 c 2,27,-1
 77 455 l 1,28,29
 77 572 77 572 71.5 579.5 c 128,-1,30
 66 587 66 587 53 617.5 c 128,-1,31
 40 648 40 648 40 657 c 0,32,33
 40 661 40 661 61.5 668.5 c 0,34,35
 117.4 688 117.4 688 159.2 688 c 128,-1,36
 201 688 201 688 203.5 685 c 128,-1,37
 206 682 206 682 206 625 c 2,0,-1
EndSplineSet
EndChar

StartChar: b
Encoding: 98 98 22
Width: 466
Flags: HMW
HStem: -71 21G<61.5 78.5> 657 20G<134 156.5>
VStem: 55 113 318 118<160.5 266>
LayerCount: 2
Fore
SplineSet
57 144 m 2,0,-1
 55 513 l 2,1,2
 55 638 55 638 60 643 c 0,3,4
 72 655 72 655 99.5 666 c 128,-1,5
 127 677 127 677 152 677 c 128,-1,6
 177 677 177 677 177 673 c 0,7,8
 175 663 175 663 171.5 559.5 c 128,-1,9
 168 456 168 456 169 431 c 1,10,-1
 185 431 l 2,11,12
 296.285714286 431 296.285714286 431 365.5 380 c 0,13,14
 394 359 394 359 415 317.5 c 128,-1,15
 436 276 436 276 436 221 c 0,16,17
 436 126 436 126 359 62.5 c 128,-1,18
 282 -1 282 -1 170 -19 c 1,19,20
 170 -42 170 -42 169 -44 c 0,21,22
 156 -57 156 -57 123.5 -64 c 128,-1,23
 91 -71 91 -71 70.5 -71 c 128,-1,24
 50 -71 50 -71 50 -68 c 0,25,26
 57 -40 57 -40 57 144 c 2,0,-1
172 91 m 1,27,28
 198.466666667 91 198.466666667 91 226.233333333 99.5 c 128,-1,29
 254 108 254 108 271.5 121 c 128,-1,30
 289 134 289 134 303.5 162 c 128,-1,31
 318 190 318 190 318 235 c 128,-1,32
 318 280 318 280 286.5 304 c 128,-1,33
 255 328 255 328 214 328 c 1,34,-1
 168 325 l 1,35,-1
 168 253 l 2,36,37
 168 118 168 118 172 91 c 1,27,28
EndSplineSet
EndChar

StartChar: c
Encoding: 99 99 23
Width: 386
Flags: HMW
HStem: -29 21G<173 286.5> 424 20G<238.5 323>
VStem: 30 123<156.5 260.5>
LayerCount: 2
Fore
SplineSet
254 -29 m 0,0,1
 140 -29 140 -29 85 29 c 128,-1,2
 30 87 30 87 30 175 c 0,3,4
 30 298 30 298 112.5 371 c 128,-1,5
 195 444 195 444 314 444 c 0,6,7
 337 444 337 444 341 443 c 1,8,9
 347 438 347 438 347 395 c 128,-1,10
 347 352 347 352 335 343 c 1,11,-1
 328 343 l 2,12,13
 251 343 251 343 203 307 c 0,14,15
 183 292 183 292 168 260 c 128,-1,16
 153 228 153 228 153 183 c 128,-1,17
 153 138 153 138 180 108.5 c 128,-1,18
 207 79 207 79 267 79 c 0,19,20
 314 79 314 79 350 97 c 0,21,22
 354 99 354 99 355 99 c 0,23,24
 363 91 363 91 363 45 c 128,-1,25
 363 -1 363 -1 352 -10 c 1,26,27
 319 -29 319 -29 254 -29 c 0,0,1
EndSplineSet
EndChar

StartChar: d
Encoding: 100 100 24
Width: 484
Flags: HMW
HStem: -36 21G<335 358> -19 21G<127.5 192.5> 657 20G<375 397.5>
VStem: 30 120<158 221 158 223.5> 298 112
LayerCount: 2
Fore
SplineSet
300 429 m 1,0,-1
 298 577 l 2,1,2
 298 639 298 639 301 642 c 0,3,4
 313 654 313 654 340.5 665.5 c 128,-1,5
 368 677 368 677 393 677 c 128,-1,6
 418 677 418 677 418 673 c 0,7,8
 410 507 410 507 410 320 c 128,-1,9
 410 133 410 133 416 97 c 1,10,11
 423 43 423 43 449 17 c 1,12,13
 449 7 449 7 407.5 -14.5 c 128,-1,14
 366 -36 366 -36 337 -36 c 0,15,16
 334 -36 334 -36 327.5 -27.5 c 0,17,18
 309.142259414 -3.49372384937 309.142259414 -3.49372384937 305 40 c 0,19,20
 305 43 305 43 303 43 c 1,21,-1
 300 41 l 1,22,23
 258 -19 258 -19 175 -19 c 0,24,25
 108 -19 108 -19 69 34 c 128,-1,26
 30 87 30 87 30 153 c 0,27,28
 30 266 30 266 100 345.5 c 128,-1,29
 170 425 170 425 300 429 c 1,0,-1
302 324 m 0,30,31
 302 326 302 326 291 326 c 2,32,-1
 287 326 l 2,33,34
 223 326 223 326 186.5 285 c 128,-1,35
 150 244 150 244 150 181 c 0,36,37
 150 144 150 144 167.5 120.5 c 128,-1,38
 185 97 185 97 220.5 97 c 128,-1,39
 256 97 256 97 277.5 128 c 128,-1,40
 299 159 299 159 299 177 c 0,41,42
 299 288 299 288 302 324 c 0,30,31
EndSplineSet
EndChar

StartChar: e
Encoding: 101 101 25
Width: 423
Flags: HMW
HStem: -23 21G<167 285.5> 347 90<223 257.5>
LayerCount: 2
Fore
SplineSet
281 318 m 0,0,1
 281 347 281 347 250 347 c 0,2,3
 209 347 209 347 178 305 c 128,-1,4
 147 263 147 263 147 204 c 0,5,6
 147 190 147 190 151 190 c 0,7,8
 187 191 187 191 234 231.5 c 128,-1,9
 281 272 281 272 281 318 c 0,0,1
368 0 m 1,10,11
 334 -23 334 -23 235 -23 c 128,-1,12
 136 -23 136 -23 83 36 c 128,-1,13
 30 95 30 95 30 193.5 c 128,-1,14
 30 292 30 292 93.5 364.5 c 128,-1,15
 157 437 157 437 272 437 c 0,16,17
 319 437 319 437 358.5 412 c 128,-1,18
 398 387 398 387 398 324.5 c 128,-1,19
 398 262 398 262 343.5 201 c 128,-1,20
 289 140 289 140 195 108 c 1,21,22
 195 96.4 195 96.4 219.5 88.7 c 128,-1,23
 244 81 244 81 268 81 c 0,24,25
 344 81 344 81 388 108 c 0,26,27
 389 109 389 109 391 109 c 128,-1,28
 393 109 393 109 393 90 c 0,29,30
 393 32 393 32 368 0 c 1,10,11
EndSplineSet
EndChar

StartChar: f
Encoding: 102 102 26
Width: 300
Flags: HMW
HStem: -91 21G<76.5 114.5> 436 91<182 186 186 191> 717 20G<230 268>
VStem: 70 111<313 343>
LayerCount: 2
Fore
SplineSet
181 386 m 1,0,-1
 186 -14 l 2,1,2
 186 -53 186 -53 184 -63 c 1,3,4
 146 -91 146 -91 83 -91 c 1,5,-1
 55 -86 l 1,6,7
 70 25 70 25 70 324 c 0,8,9
 70 399 70 399 69 434 c 1,10,-1
 25 432 l 1,11,12
 20 437 20 437 20 476 c 128,-1,13
 20 515 20 515 29 524 c 1,14,15
 47 525 47 525 68 526 c 1,16,-1
 66 647 l 1,17,18
 64 663 64 663 140 700 c 128,-1,19
 216 737 216 737 264 737 c 0,20,21
 270 737 270 737 279.5 714.5 c 128,-1,22
 289 692 289 692 289 679.5 c 128,-1,23
 289 667 289 667 288 664 c 1,24,25
 285 664 285 664 262 653.5 c 128,-1,26
 239 643 239 643 214 626.5 c 128,-1,27
 189 610 189 610 188 598 c 0,28,29
 184 572 184 572 182 527 c 1,30,-1
 186 527 l 2,31,32
 267 527 267 527 267 524 c 0,33,34
 267 477.333333333 267 477.333333333 248.5 446.5 c 0,35,36
 241 434 241 434 236 434 c 0,37,38
 204 436 204 436 181 436 c 1,39,-1
 181 386 l 1,0,-1
EndSplineSet
EndChar

StartChar: g
Encoding: 103 103 27
Width: 458
Flags: HMW
HStem: -311 21G<147 188.5> -10 21G<126.5 191.5> 418 20G<224.5 325>
VStem: 27 120<171.5 229.5 171.5 237.5> 309 109<-66 25 -126.5 55.5>
LayerCount: 2
Fore
SplineSet
416 248 m 1,0,-1
 418 11 l 2,1,2
 418 -67 418 -67 397 -127.5 c 128,-1,3
 376 -188 376 -188 346 -221.5 c 128,-1,4
 316 -255 316 -255 277 -276.5 c 0,5,6
 214.418604651 -311 214.418604651 -311 150 -311 c 0,7,8
 147 -311 147 -311 138 -296 c 128,-1,9
 129 -281 129 -281 121 -255 c 128,-1,10
 113 -229 113 -229 113 -207 c 1,11,-1
 132 -207 l 2,12,13
 152 -207 152 -207 170.5 -203.5 c 128,-1,14
 189 -200 189 -200 216 -184 c 128,-1,15
 243 -168 243 -168 262 -142 c 128,-1,16
 281 -116 281 -116 295 -65 c 128,-1,17
 309 -14 309 -14 309 54 c 0,18,19
 309 58 309 58 308 58 c 2,20,-1
 305 55 l 1,21,22
 263 -10 263 -10 174 -10 c 0,23,24
 107 -10 107 -10 67 43 c 128,-1,25
 27 96 27 96 27 162 c 0,26,27
 27 282 27 282 104 360 c 128,-1,28
 181 438 181 438 325 438 c 0,29,30
 360 438 360 438 360 433 c 0,31,32
 363 416 363 416 363 396 c 1,33,-1
 362 381 l 1,34,-1
 373 381 l 2,35,36
 405 381 405 381 416 375 c 1,37,-1
 416 248 l 1,0,-1
307 332 m 1,38,-1
 286 335 l 1,39,40
 222 335 222 335 184.5 293.5 c 128,-1,41
 147 252 147 252 147 190 c 0,42,43
 147 159 147 159 165.5 136 c 128,-1,44
 184 113 184 113 219.5 113 c 128,-1,45
 255 113 255 113 279 141 c 128,-1,46
 303 169 303 169 303 186 c 0,47,48
 303 300 303 300 307 332 c 1,38,-1
EndSplineSet
EndChar

StartChar: h
Encoding: 104 104 28
Width: 457
Flags: HMW
HStem: -39 21G<318.5 349> -26 21G<46 66.5> 657 20G<123.5 146>
VStem: 45 118 305 112<104 185.5>
LayerCount: 2
Fore
SplineSet
48 194 m 1,0,-1
 45 541 l 2,1,2
 45 638 45 638 50 643 c 0,3,4
 62 655 62 655 89 666 c 128,-1,5
 116 677 116 677 141 677 c 128,-1,6
 166 677 166 677 166 673 c 0,7,8
 165 664 165 664 162 542 c 128,-1,9
 159 420 159 420 159 382 c 2,10,-1
 159 373 l 2,11,12
 159 368 159 368 162 368 c 1,13,-1
 182 387.5 l 2,14,15
 193 398 193 398 226.5 415.5 c 128,-1,16
 260 433 260 433 289.5 433 c 128,-1,17
 319 433 319 433 338.5 423 c 128,-1,18
 358 413 358 413 371 399 c 128,-1,19
 384 385 384 385 393 358.5 c 128,-1,20
 402 332 402 332 406.5 309.5 c 128,-1,21
 411 287 411 287 413.5 248.5 c 0,22,23
 417 194.6 417 194.6 417 114 c 0,24,-1
 413.000674987 -19.0310829933 l 1,25,26
 410.482063618 -26.5035872765 410.482063618 -26.5035872765 379.241031809 -32.7517936382 c 128,-1,27
 348 -39 348 -39 328 -39 c 1,28,-1
 295 -34 l 1,29,30
 305 56 305 56 305 139 c 128,-1,31
 305 222 305 222 293 265 c 128,-1,32
 281 308 281 308 244 308 c 0,33,34
 220 308 220 308 199 289 c 128,-1,35
 178 270 178 270 169.5 251 c 2,36,-1
 161 232 l 1,37,38
 163 163 163 163 163 84 c 128,-1,39
 163 5 163 5 158 1 c 0,40,41
 128 -26 128 -26 48 -26 c 0,42,43
 40 -26 40 -26 40 -23 c 0,44,45
 48 21 48 21 48 194 c 1,0,-1
EndSplineSet
EndChar

StartChar: i
Encoding: 105 105 29
Width: 220
Flags: HMW
HStem: -51 21G<87 110> 577 20G<103 139>
VStem: 57 113<163 175.5>
LayerCount: 2
Fore
SplineSet
166 579 m 128,-1,1
 183 561 183 561 183 532 c 128,-1,2
 183 503 183 503 160.5 482.5 c 128,-1,3
 138 462 138 462 110.5 462 c 128,-1,4
 83 462 83 462 66.5 479.5 c 128,-1,5
 50 497 50 497 50 526 c 128,-1,6
 50 555 50 555 72 576 c 128,-1,7
 94 597 94 597 121.5 597 c 128,-1,0
 149 597 149 597 166 579 c 128,-1,1
172 348 m 1,8,-1
 170 186 l 2,9,10
 170 108 170 108 174.5 71.5 c 128,-1,11
 179 35 179 35 200 3 c 1,12,13
 200 -7 200 -7 159 -29 c 128,-1,14
 118 -51 118 -51 89 -51 c 0,15,16
 80.1395348837 -51 80.1395348837 -51 71.0697674419 -21 c 128,-1,17
 62 9 62 9 59.5 36 c 128,-1,18
 57 63 57 63 57 218 c 128,-1,19
 57 373 57 373 64 387 c 1,20,21
 87 405 87 405 145 405 c 0,22,23
 168 405 168 405 173 399 c 1,24,-1
 172 348 l 1,8,-1
EndSplineSet
EndChar

StartChar: j
Encoding: 106 106 30
Width: 291
Flags: HMW
HStem: -311 21G<-31 10.5> 577 20G<155 191>
VStem: 102 138 125 115<-131.5 191>
LayerCount: 2
Fore
SplineSet
238 147 m 1,0,-1
 240 6 l 1,1,2
 240 -72 240 -72 219 -132 c 128,-1,3
 198 -192 198 -192 168 -225 c 128,-1,4
 138 -258 138 -258 99 -278.5 c 0,5,6
 37.1707317073 -311 37.1707317073 -311 -28 -311 c 0,7,8
 -31 -311 -31 -311 -40 -296 c 128,-1,9
 -49 -281 -49 -281 -57 -255 c 128,-1,10
 -65 -229 -65 -229 -65 -207 c 1,11,-1
 -55 -207 l 2,12,13
 -18 -207 -18 -207 30 -186 c 1,14,15
 123 -139 123 -139 123 33 c 1,16,17
 125 99 125 99 125 185.5 c 128,-1,18
 125 272 125 272 117.5 279.5 c 0,19,20
 104.304347826 292.695652174 104.304347826 292.695652174 58 303.5 c 2,21,-1
 43 307 l 1,22,23
 41 311 41 311 41 318 c 0,24,25
 41 364 41 364 55 378 c 1,26,27
 115 408 115 408 221 408 c 0,28,29
 239 408 239 408 241 406 c 1,30,31
 238 271 238 271 238 147 c 1,0,-1
218 579 m 128,-1,33
 235 561 235 561 235 532 c 128,-1,34
 235 503 235 503 212.5 482.5 c 128,-1,35
 190 462 190 462 162.5 462 c 128,-1,36
 135 462 135 462 118.5 480 c 128,-1,37
 102 498 102 498 102 526.5 c 128,-1,38
 102 555 102 555 124 576 c 128,-1,39
 146 597 146 597 173.5 597 c 128,-1,32
 201 597 201 597 218 579 c 128,-1,33
EndSplineSet
EndChar

StartChar: k
Encoding: 107 107 31
Width: 431
Flags: HMW
HStem: -32 21G<302 333> -26 21G<61.5 78.5> 657 20G<133.5 156.5>
VStem: 55 113<343.5 570.5>
LayerCount: 2
Fore
SplineSet
58 194 m 1,0,-1
 55 541 l 2,1,2
 55 638 55 638 60 643 c 0,3,4
 72 655 72 655 99 666 c 128,-1,5
 126 677 126 677 151 677 c 128,-1,6
 176 677 176 677 176 673 c 0,7,8
 174.962962963 667.814814815 174.962962963 667.814814815 171.481481481 532.907407407 c 128,-1,9
 168 398 168 398 168 358.5 c 128,-1,10
 168 319 168 319 169 313.5 c 128,-1,11
 170 308 170 308 173 308 c 1,12,-1
 175 309 l 1,13,14
 207 343 207 343 270 394 c 128,-1,15
 333 445 333 445 351 445 c 1,16,17
 410 408 410 408 410 385 c 1,18,19
 380 366 380 366 339 333 c 128,-1,20
 298 300 298 300 294 291 c 1,21,22
 294 283 294 283 311.5 233.5 c 128,-1,23
 329 184 329 184 363 117 c 128,-1,24
 397 50 397 50 431 16 c 1,25,26
 431 4 431 4 387 -14 c 128,-1,27
 343 -32 343 -32 311 -32 c 0,28,29
 299 -32 299 -32 264.5 62 c 128,-1,30
 230 156 230 156 217 208 c 1,31,-1
 215 211 l 1,32,33
 211 211 211 211 190 182 c 128,-1,34
 169 153 169 153 169 143 c 2,35,-1
 172 41 l 1,36,37
 172 5 172 5 168 1 c 0,38,39
 155 -12 155 -12 123 -19 c 128,-1,40
 91 -26 91 -26 70.5 -26 c 128,-1,41
 50 -26 50 -26 50 -23 c 0,42,43
 58 21 58 21 58 194 c 1,0,-1
EndSplineSet
EndChar

StartChar: l
Encoding: 108 108 32
Width: 223
Flags: HMW
HStem: -51 21G<80 103> 657 20G<126 148.5>
VStem: 54 110<424.5 450.5 375.5 554.5>
LayerCount: 2
Fore
SplineSet
50 142 m 2,0,-1
 54 504 l 2,1,2
 54 583 54 583 52 611 c 128,-1,3
 50 639 50 639 50 641 c 0,4,5
 50 651 50 651 83.5 664 c 128,-1,6
 117 677 117 677 143 677 c 128,-1,7
 169 677 169 677 169 673 c 0,8,9
 164 636 164 636 164 413 c 1,10,-1
 162 168 l 2,11,12
 162 99 162 99 164 83 c 0,13,14
 169 39 169 39 193 3 c 1,15,16
 193 -7 193 -7 152 -29 c 128,-1,17
 111 -51 111 -51 82 -51 c 0,18,19
 73.5348837209 -51 73.5348837209 -51 63.7674418605 -21 c 128,-1,20
 54 9 54 9 52 31 c 128,-1,21
 50 53 50 53 50 142 c 2,0,-1
EndSplineSet
EndChar

StartChar: m
Encoding: 109 109 33
Width: 669
Flags: HMW
HStem: -39 21G<529.5 560.5> -26 21G<56 76> 438 20G<128 150.5>
VStem: 54 113 289 111<149 166 91 222.5> 518 111<109 183.5 65 193>
LayerCount: 2
Fore
SplineSet
57 124 m 1,0,-1
 54 359 l 2,1,2
 54 423 54 423 59 428 c 0,3,4
 71 439 71 439 96 448.5 c 128,-1,5
 121 458 121 458 144 458 c 128,-1,6
 167 458 167 458 167 454 c 0,7,8
 163 410 163 410 163 387 c 128,-1,9
 163 364 163 364 165 364 c 128,-1,10
 167 364 167 364 171 368.5 c 128,-1,11
 175 373 175 373 185.5 382.5 c 128,-1,12
 196 392 196 392 224.5 408.5 c 128,-1,13
 253 425 253 425 277 425 c 0,14,15
 342 425 342 425 375 367 c 1,16,17
 432 447 432 447 501 447 c 0,18,19
 563.236363636 447 563.236363636 447 589.5 393.5 c 0,20,21
 618.100188147 335.240357479 618.100188147 335.240357479 622.550094073 276.120178739 c 0,22,23
 629 190.428571429 629 190.428571429 629 98 c 1,24,-1
 625 -19 l 2,25,26
 625 -26.4285714286 625 -26.4285714286 592 -32.7142857143 c 128,-1,27
 559 -39 559 -39 539 -39 c 1,28,-1
 507 -34 l 1,29,30
 518 65 518 65 518 126 c 128,-1,31
 518 187 518 187 516.5 213.5 c 128,-1,32
 515 240 515 240 509 266.5 c 128,-1,33
 503 293 503 293 490.5 304.5 c 128,-1,34
 478 316 478 316 459 316 c 128,-1,35
 440 316 440 316 425 305.5 c 128,-1,36
 410 295 410 295 403.5 285 c 128,-1,37
 397 275 397 275 397 272 c 0,38,39
 400 240 400 240 400 124 c 1,40,-1
 396 45 l 2,41,42
 396 37.487804878 396 37.487804878 364 31.243902439 c 128,-1,43
 332 25 332 25 312 25 c 1,44,-1
 280 30 l 1,45,46
 289 111 289 111 289 181.5 c 128,-1,47
 289 252 289 252 281.5 280.5 c 128,-1,48
 274 309 274 309 242 309 c 128,-1,49
 210 309 210 309 188 277 c 128,-1,50
 166 245 166 245 166 228 c 2,51,-1
 166 207 l 1,52,-1
 167 101 l 2,53,54
 167 3 167 3 163 -2 c 0,55,56
 138 -26 138 -26 58 -26 c 0,57,58
 50 -26 50 -26 50 -23 c 0,59,60
 57 20 57 20 57 124 c 1,0,-1
EndSplineSet
EndChar

StartChar: n
Encoding: 110 110 34
Width: 465
Flags: HMW
HStem: -39 21G<326.5 357.5> -26 21G<61 78.5> 425 20G<132 154.5>
VStem: 54 118 313 112<104 183.5 65 185.5>
LayerCount: 2
Fore
SplineSet
171 225 m 1,0,-1
 172 188.5 l 1,1,-1
 172 112 l 2,2,3
 172 5 172 5 168 1 c 0,4,5
 155 -12 155 -12 123 -19 c 128,-1,6
 91 -26 91 -26 70.5 -26 c 128,-1,7
 50 -26 50 -26 50 -23 c 0,8,9
 57 22 57 22 57 125 c 1,10,-1
 54 350 l 2,11,12
 54 412 54 412 59 417 c 0,13,14
 70 428 70 428 97 436.5 c 128,-1,15
 124 445 124 445 147.5 445 c 128,-1,16
 171 445 171 445 171 440 c 0,17,18
 168 416 168 416 168 392 c 128,-1,19
 168 368 168 368 171 368 c 1,20,-1
 174 370 l 1,21,22
 179 377 179 377 189 387.5 c 128,-1,23
 199 398 199 398 231.5 415.5 c 128,-1,24
 264 433 264 433 293.5 433 c 128,-1,25
 323 433 323 433 343.5 422.5 c 128,-1,26
 364 412 364 412 377 397 c 128,-1,27
 390 382 390 382 399.5 354 c 128,-1,28
 409 326 409 326 414 302 c 128,-1,29
 419 278 419 278 421.5 238.5 c 0,30,31
 425 183.2 425 183.2 425 98 c 1,32,-1
 422 -19 l 2,33,34
 422 -26.4285714286 422 -26.4285714286 389 -32.7142857143 c 128,-1,35
 356 -39 356 -39 336 -39 c 1,36,-1
 303 -34 l 1,37,38
 313 56 313 56 313 140.5 c 128,-1,39
 313 225 313 225 302 267.5 c 128,-1,40
 291 310 291 310 258 310 c 128,-1,41
 225 310 225 310 204.5 292 c 128,-1,42
 184 274 184 274 177.5 256.5 c 2,43,-1
 171 239 l 1,44,-1
 171 225 l 1,0,-1
EndSplineSet
EndChar

StartChar: q
Encoding: 113 113 35
Width: 482
Flags: HMW
HStem: -267 21G<325 344> -15 21G<257.5 296> 341 100<263 296> 480 20G<371 391.5>
VStem: 30 116<156 247.5 156 292> 296 111<153 341>
LayerCount: 2
Fore
SplineSet
408 96 m 1,0,-1
 426 96 l 2,1,2
 439 96 439 96 443 96.5 c 128,-1,3
 447 97 447 97 447 96 c 0,4,5
 447 81 447 81 437.5 52 c 128,-1,6
 428 23 428 23 407 -6 c 1,7,8
 404 -12 404 -12 404 -61.5 c 128,-1,9
 404 -111 404 -111 410 -152 c 128,-1,10
 416 -193 416 -193 439 -221 c 1,11,12
 428 -237 428 -237 390.5 -252 c 128,-1,13
 353 -267 353 -267 325 -267 c 1,14,15
 304 -237 304 -237 299 -182 c 0,16,17
 296 -156 296 -156 296 -15 c 1,18,19
 30 -15 30 -15 30 191 c 0,20,21
 30 248 30 248 51.5 294 c 128,-1,22
 73 340 73 340 104 366.5 c 128,-1,23
 135 393 135 393 173.5 410.5 c 0,24,25
 240.6 441 240.6 441 299 441 c 1,26,27
 300 444 300 444 300 471 c 1,28,29
 309 484 309 484 335 492 c 128,-1,30
 361 500 361 500 385 500 c 128,-1,31
 409 500 409 500 412 497 c 1,32,33
 413 491 413 491 411.5 436 c 0,34,35
 407 271 407 271 407 192.5 c 128,-1,36
 407 114 407 114 408 96 c 1,0,-1
297 290 m 1,37,-1
 296 341 l 1,38,39
 241 341 241 341 193.5 303 c 128,-1,40
 146 265 146 265 146 204 c 0,41,42
 146 159 146 159 171.5 132 c 128,-1,43
 197 105 197 105 227 97.5 c 128,-1,44
 257 90 257 90 294 90 c 1,45,46
 297 189 297 189 297 290 c 1,37,-1
EndSplineSet
EndChar

StartChar: p
Encoding: 112 112 36
Width: 458
Flags: HMW
HStem: -260 21G<60.5 77.5> -17 21G<158 187> 338 100<162 197.5> 468 20G<123.5 146.5>
VStem: 50 108 312 116<182.5 273.5>
LayerCount: 2
Fore
SplineSet
163 485 m 1,0,-1
 162 438 l 1,1,2
 428 438 428 438 428 232 c 0,3,4
 428 176 428 176 405.5 130.5 c 128,-1,5
 383 85 383 85 350 58.5 c 128,-1,6
 317 32 317 32 278 14 c 0,7,8
 210.833333333 -17 210.833333333 -17 158 -17 c 1,9,-1
 158 -32 l 2,10,11
 158 -182 158 -182 166 -232 c 1,12,13
 153 -245 153 -245 121 -252.5 c 128,-1,14
 89 -260 89 -260 69 -260 c 128,-1,15
 49 -260 49 -260 49 -257 c 0,16,17
 45 -225 45 -225 45 -125 c 1,18,-1
 50 340 l 2,19,20
 50 422 50 422 47 454 c 1,21,22
 59 466 59 466 87.5 477 c 128,-1,23
 116 488 116 488 137 488 c 128,-1,24
 158 488 158 488 163 485 c 1,0,-1
158 144 m 1,25,-1
 159 94 l 1,26,27
 220 94 220 94 266 129 c 128,-1,28
 312 164 312 164 312 230 c 0,29,30
 312 338 312 338 161 338 c 1,31,-1
 160.5 325 l 2,32,33
 160 312 160 312 160 291 c 2,34,-1
 158 144 l 1,25,-1
EndSplineSet
EndChar

StartChar: r
Encoding: 114 114 37
Width: 326
Flags: HMW
HStem: -26 21G<51 66> 433 20G<127 149.5>
VStem: 50 116
LayerCount: 2
Fore
SplineSet
52 135 m 1,0,-1
 50 362 l 2,1,2
 50 421 50 421 54 425 c 0,3,4
 65 436 65 436 92 444.5 c 128,-1,5
 119 453 119 453 142.5 453 c 128,-1,6
 166 453 166 453 166 448 c 0,7,8
 163 421 163 421 163 386.5 c 128,-1,9
 163 352 163 352 165 352 c 128,-1,10
 167 352 167 352 169 354.5 c 128,-1,11
 171 357 171 357 175.5 362.5 c 128,-1,12
 180 368 180 368 194.5 382 c 128,-1,13
 209 396 209 396 225.5 406.5 c 0,14,15
 268.714285714 434 268.714285714 434 318 434 c 1,16,17
 326 421 326 421 326 393.5 c 0,18,19
 326 337 326 337 312.5 313 c 2,20,-1
 308 305 l 1,21,-1
 295 307 l 1,22,23
 222.535714286 307 222.535714286 307 182.5 248 c 0,24,25
 166 223.684210526 166 223.684210526 166 212 c 2,26,-1
 166 124 l 2,27,28
 166 4 166 4 163 1 c 0,29,30
 135 -26 135 -26 53 -26 c 0,31,32
 45 -26 45 -26 45 -23 c 0,33,34
 52 16 52 16 52 135 c 1,0,-1
EndSplineSet
EndChar

StartChar: s
Encoding: 115 115 38
Width: 356
Flags: HMW
HStem: -61 96<64 87.5 30 108> 436 20G<211.5 273.5>
VStem: 30 142<273 324.5 273 334.5> 190 141<102 115 56.5 147>
LayerCount: 2
Fore
SplineSet
331 115 m 1,0,1
 331 61 331 61 280.5 18.5 c 128,-1,2
 230 -24 230 -24 171.5 -42.5 c 128,-1,3
 113 -61 113 -61 69 -61 c 0,4,5
 64 -61 64 -61 55 -49 c 0,6,7
 30 -15.6666666667 30 -15.6666666667 30 28 c 2,8,-1
 30 35 l 1,9,10
 108 35 108 35 149 62 c 128,-1,11
 190 89 190 89 190 118 c 0,12,13
 190 137 190 137 165 158 c 128,-1,14
 140 179 140 179 110 195 c 128,-1,15
 80 211 80 211 55 237.5 c 128,-1,16
 30 264 30 264 30 293 c 0,17,18
 30 354 30 354 106 405 c 128,-1,19
 182 456 182 456 268 456 c 0,20,21
 278 456 278 456 294 428.5 c 128,-1,22
 310 401 310 401 311 372 c 1,23,24
 291.25 372 291.25 372 250.625 359.5 c 0,25,26
 172 335.307692308 172 335.307692308 172 298 c 0,27,28
 172 272.237288136 172 272.237288136 250.5 227 c 0,29,30
 280 210 280 210 305 180 c 128,-1,31
 330 150 330 150 331 115 c 1,0,1
EndSplineSet
EndChar

StartChar: t
Encoding: 116 116 39
Width: 232
Flags: HMW
HStem: -63 21G<100 127> 437 92 639 20G<134 156.5>
VStem: 62 107
LayerCount: 2
Fore
SplineSet
177 655 m 0,0,1
 175 632 175 632 172 529 c 1,2,3
 247 529 247 529 247 526 c 0,4,5
 247 492 247 492 237 465.5 c 128,-1,6
 227 439 227 439 218 439 c 2,7,-1
 171 439 l 1,8,9
 169 291 169 291 169 198.5 c 128,-1,10
 169 106 169 106 172 75 c 0,11,12
 178 23 178 23 213 -10 c 1,13,14
 213 -21 213 -21 174.5 -42 c 128,-1,15
 136 -63 136 -63 102 -63 c 0,16,17
 99 -63 99 -63 90.5 -53 c 128,-1,18
 82 -43 82 -43 72.5 -20 c 128,-1,19
 63 3 63 3 60.5 25 c 128,-1,20
 58 47 58 47 58 182 c 128,-1,21
 58 317 58 317 61 437 c 1,22,-1
 5 436 l 1,23,24
 0 441 0 441 0 479.5 c 128,-1,25
 0 518 0 518 9 526 c 1,26,27
 31 527 31 527 62 528 c 1,28,29
 62 586 62 586 59 603 c 128,-1,30
 56 620 56 620 56 623 c 0,31,32
 56 633 56 633 90.5 646 c 128,-1,33
 125 659 125 659 151 659 c 128,-1,34
 177 659 177 659 177 655 c 0,0,1
EndSplineSet
EndChar

StartChar: u
Encoding: 117 117 40
Width: 457
Flags: HMW
HStem: -50 21G<324 347> -20 21G<117 185.5> 435 20G<366.5 392>
VStem: 40 115<195.5 297.5> 294 112<61 227 195 227 152.5 229 152.5 264.5>
LayerCount: 2
Fore
SplineSet
296 38 m 2,0,-1
 295 59 l 1,1,-1
 294 61 l 1,2,3
 270 24 270 24 233.5 2 c 128,-1,4
 197 -20 197 -20 162 -20 c 0,5,6
 57 -20 57 -20 42 143 c 0,7,8
 40 169 40 169 40 277 c 128,-1,9
 40 385 40 385 49 405 c 1,10,11
 75 426 75 426 133 426 c 0,12,13
 156 426 156 426 161 421 c 0,14,15
 161 420 161 420 159.5 394.5 c 0,16,17
 155 318 155 318 155 277 c 128,-1,18
 155 236 155 236 156 216.5 c 128,-1,19
 157 197 157 197 157.5 191.5 c 128,-1,20
 158 186 158 186 160.5 172 c 128,-1,21
 163 158 163 158 168.5 147.5 c 0,22,23
 183.428571429 119 183.428571429 119 214.714285714 119 c 128,-1,24
 246 119 246 119 270.5 150.5 c 128,-1,25
 295 182 295 182 294 195 c 1,26,-1
 294 229 l 2,27,28
 294 412 294 412 300 426 c 1,29,30
 305 435 305 435 331.5 445 c 128,-1,31
 358 455 358 455 384 455 c 128,-1,32
 410 455 410 455 414 451 c 1,33,-1
 412 403.5 l 2,34,35
 406 261 406 261 406 183 c 128,-1,36
 406 105 406 105 410 84 c 1,37,38
 417 34 417 34 437 4 c 1,39,40
 437 -6 437 -6 396 -28 c 128,-1,41
 355 -50 355 -50 326 -50 c 0,42,43
 317.534883721 -50 317.534883721 -50 307.76744186 -20 c 128,-1,44
 298 10 298 10 296 38 c 2,0,-1
EndSplineSet
EndChar

StartChar: v
Encoding: 118 118 41
Width: 441
Flags: HMW
HStem: -22 21G<167.5 183> 482 20G<358.5 397.5>
LayerCount: 2
Fore
SplineSet
183 -22 m 1,0,1
 155 -22 155 -22 137 -16 c 1,2,3
 137 5 137 5 73.5 195.5 c 128,-1,4
 10 386 10 386 10 426 c 0,5,6
 10 428 10 428 20.5 434.5 c 128,-1,7
 31 441 31 441 57 448 c 128,-1,8
 83 455 83 455 116 455 c 1,9,10
 177 207 177 207 208 138 c 1,11,12
 209 133 209 133 212 138 c 0,13,14
 230 170 230 170 267 307.5 c 128,-1,15
 304 445 304 445 308 487 c 0,16,17
 309 493 309 493 330 497.5 c 128,-1,18
 351 502 351 502 385 502 c 128,-1,19
 419 502 419 502 431 492 c 1,20,21
 431 463 431 463 360 233.5 c 128,-1,22
 289 4 289 4 281 -4 c 0,23,24
 267 -18 267 -18 204 -21 c 2,25,-1
 183 -22 l 1,0,1
EndSplineSet
EndChar

StartChar: w
Encoding: 119 119 42
Width: 656
Flags: HMW
HStem: -19 21G<142.5 162.5> -16 21G<412 437.5> 457 20G<529 564.5>
LayerCount: 2
Fore
SplineSet
323 388 m 0,0,1
 390 388 390 388 392 375 c 0,2,3
 425 188 425 188 445 147 c 1,4,-1
 449 147 l 1,5,6
 471 194 471 194 498 311 c 128,-1,7
 525 428 525 428 529 477 c 1,8,9
 589.153846154 477 589.153846154 477 627 456.5 c 0,10,11
 639 450 639 450 639 448 c 0,12,13
 639 404 639 404 608.5 293 c 128,-1,14
 578 182 578 182 547.5 91.5 c 128,-1,15
 517 1 517 1 513 -3 c 128,-1,16
 509 -7 509 -7 478 -11.5 c 128,-1,17
 447 -16 447 -16 421 -16 c 128,-1,18
 395 -16 395 -16 387 -12 c 1,19,20
 378 -3 378 -3 354 85 c 128,-1,21
 330 173 330 173 321 234 c 1,22,-1
 318 234 l 1,23,24
 303 173 303 173 277.5 90 c 128,-1,25
 252 7 252 7 246 0.5 c 128,-1,26
 240 -6 240 -6 206 -12.5 c 128,-1,27
 172 -19 172 -19 152 -19 c 128,-1,28
 132 -19 132 -19 129 -16 c 0,29,30
 121 -9 121 -9 69 182 c 128,-1,31
 17 373 17 373 17 421 c 0,32,33
 17 423 17 423 27.5 429.5 c 128,-1,34
 38 436 38 436 64.5 442.5 c 128,-1,35
 91 449 91 449 124 449 c 1,36,37
 161 231 161 231 192 162 c 0,38,39
 194 157 194 157 197 162 c 0,40,41
 214 195 214 195 232 264 c 128,-1,42
 250 333 250 333 254 375 c 0,43,44
 255 380 255 380 278 384 c 128,-1,45
 301 388 301 388 323 388 c 0,0,1
EndSplineSet
EndChar

StartChar: x
Encoding: 120 120 43
Width: 445
Flags: HMW
HStem: -54 21G<89.5 108> 463 20G<343 349.5>
LayerCount: 2
Fore
SplineSet
440 56 m 1,0,1
 440 37 440 37 405 -0.5 c 128,-1,2
 370 -38 370 -38 352 -38 c 1,3,4
 323 -26 323 -26 208 126 c 1,5,6
 127 -9 127 -9 108 -54 c 1,7,8
 83 -54 83 -54 50.5 -29.5 c 128,-1,9
 18 -5 18 -5 10 13 c 1,10,11
 10 32 10 32 138 221 c 1,12,13
 41 356 41 356 41 371 c 1,14,15
 47 392 47 392 74 418 c 128,-1,16
 101 444 101 444 123 450 c 1,17,18
 131 427 131 427 207 319 c 1,19,20
 304 454 304 454 343 483 c 1,21,22
 354 483 354 483 390 461 c 128,-1,23
 426 439 426 439 426 428 c 1,24,25
 358 359 358 359 274 230 c 1,26,27
 382 90 382 90 440 56 c 1,0,1
EndSplineSet
EndChar

StartChar: y
Encoding: 121 121 44
Width: 457
Flags: HMW
HStem: -309 21G<143 184.5> 437 20G<110.5 141.5>
VStem: 40 113<251 332.5 251 352.5> 299 111<-69 37.5 -125 45>
LayerCount: 2
Fore
SplineSet
409 279 m 2,0,-1
 410 13 l 2,1,2
 410 -65 410 -65 389.5 -126 c 128,-1,3
 369 -187 369 -187 339.5 -220 c 128,-1,4
 310 -253 310 -253 271.5 -274.5 c 0,5,6
 209.720930233 -309 209.720930233 -309 146 -309 c 0,7,8
 143 -309 143 -309 134 -294 c 128,-1,9
 125 -279 125 -279 117 -253.5 c 128,-1,10
 109 -228 109 -228 109 -206 c 1,11,12
 147.277777778 -206 147.277777778 -206 185.138888889 -191.5 c 128,-1,13
 223 -177 223 -177 238 -160.5 c 128,-1,14
 253 -144 253 -144 268.5 -119 c 0,15,16
 299 -69.8064516129 299 -69.8064516129 299 40 c 1,17,-1
 298 69 l 2,18,19
 298 75 298 75 295.75 75 c 128,-1,20
 293.5 75 293.5 75 291.75 72 c 128,-1,21
 290 69 290 69 287 64.5 c 128,-1,22
 284 60 284 60 272.5 48.5 c 128,-1,23
 261 37 261 37 248 28 c 0,24,25
 213.333333333 4 213.333333333 4 177.666666667 4 c 128,-1,26
 142 4 142 4 121.5 13 c 128,-1,27
 101 22 101 22 87.5 36 c 128,-1,28
 74 50 74 50 65 75.5 c 128,-1,29
 56 101 56 101 51 123 c 128,-1,30
 46 145 46 145 43.5 183 c 0,31,32
 40 236.2 40 236.2 40 292.6 c 0,33,34
 40 372.2 40 372.2 48.5 421.5 c 2,35,-1
 51 436 l 1,36,37
 51 442.923076923 51 442.923076923 81.5 449.961538462 c 128,-1,38
 112 457 112 457 132 457 c 1,39,-1
 164 452 l 1,40,41
 153 353 153 353 153 285 c 128,-1,42
 153 217 153 217 167 172 c 128,-1,43
 181 127 181 127 214 127 c 128,-1,44
 247 127 247 127 266.5 146.5 c 128,-1,45
 286 166 286 166 291 185 c 2,46,-1
 296 204 l 1,47,48
 294 267 294 267 294 339.5 c 128,-1,49
 294 412 294 412 299 417 c 0,50,51
 312 430 312 430 344.5 437 c 128,-1,52
 377 444 377 444 397 444 c 128,-1,53
 417 444 417 444 417 441 c 0,54,55
 409 394 409 394 409 279 c 2,0,-1
EndSplineSet
EndChar

StartChar: z
Encoding: 122 122 45
Width: 438
Flags: HMW
HStem: -20 21G<54.5 60> -2 21G<220.5 300> 354 98<89 225>
LayerCount: 2
Fore
SplineSet
392 -5 m 1,0,1
 354 -2 354 -2 290.5 -2 c 0,2,3
 172 -2 172 -2 88 -15.5 c 2,4,-1
 60 -20 l 1,5,6
 52 -20 52 -20 41 8 c 128,-1,7
 30 36 30 36 30 57 c 1,8,9
 40 93 40 93 118 195 c 128,-1,10
 196 297 196 297 234 333 c 0,11,12
 242.659574468 341.659574468 242.659574468 341.659574468 190.829787234 347.829787234 c 128,-1,13
 139 354 139 354 100.5 354 c 128,-1,14
 62 354 62 354 53 353 c 1,15,16
 53 400.1 53 400.1 62.5 420.05 c 128,-1,17
 72 440 72 440 75 443 c 0,18,19
 84 452 84 452 163.5 452 c 128,-1,20
 243 452 243 452 310 445 c 128,-1,21
 377 438 377 438 383 432 c 1,22,23
 402 404 402 404 402 351 c 1,24,25
 350 312 350 312 282 221 c 128,-1,26
 214 130 214 130 214 110 c 1,27,28
 253 110 253 110 327.5 103 c 128,-1,29
 402 96 402 96 408 89 c 1,30,-1
 408 78 l 2,31,32
 408 11 408 11 392 -5 c 1,0,1
EndSplineSet
EndChar

StartChar: N
Encoding: 78 78 46
Width: 613
Flags: HMW
HStem: -30 21G<88.5 112.5> -28 21G<429 477.5> 665 20G
VStem: 64 119 440 112<255 451 316.5 334>
LayerCount: 2
Fore
SplineSet
100 -30 m 0,0,1
 80 -30 80 -30 64 -24 c 1,2,-1
 64 6 l 2,3,4
 64 159 64 159 74.5 450 c 2,5,-1
 78 547 l 1,6,7
 65 564 65 564 52.5 600.5 c 128,-1,8
 40 637 40 637 40 645.5 c 128,-1,9
 40 654 40 654 42 656 c 128,-1,10
 44 658 44 658 92.5 661.5 c 128,-1,11
 141 665 141 665 192.5 665 c 128,-1,12
 244 665 244 665 250 660 c 1,13,14
 427 264 427 264 430.5 256 c 128,-1,15
 434 248 434 248 436 248 c 1,16,-1
 440 255 l 1,17,-1
 440 283 l 2,18,19
 440 368 440 368 434.5 495 c 128,-1,20
 429 622 429 622 423 653 c 1,21,22
 437 666 437 666 474.5 675.5 c 128,-1,23
 512 685 512 685 542.5 685 c 128,-1,24
 573 685 573 685 573 680 c 0,25,26
 573 660 573 660 566 633 c 128,-1,27
 559 606 559 606 559 605 c 0,28,29
 552 560 552 560 552 464.5 c 128,-1,30
 552 369 552 369 552.5 327 c 128,-1,31
 553 285 553 285 553.5 246.5 c 128,-1,32
 554 208 554 208 555 170.5 c 128,-1,33
 556 133 556 133 556.5 102 c 0,34,35
 557.558823529 36.3529411765 557.558823529 36.3529411765 558.5 10 c 2,36,-1
 559 -4 l 2,37,38
 559 -7 559 -7 545.5 -12.5 c 0,39,40
 507.454545455 -28 507.454545455 -28 441 -28 c 1,41,-1
 404 -24 l 1,42,43
 364 89 364 89 287 261 c 128,-1,44
 210 433 210 433 201 446.5 c 128,-1,45
 192 460 192 460 190 460 c 1,46,-1
 187 453 l 1,47,48
 183 425 183 425 183 332.5 c 128,-1,49
 183 240 183 240 187.5 131 c 128,-1,50
 192 22 192 22 198 -6 c 1,51,52
 171 -30 171 -30 100 -30 c 0,0,1
EndSplineSet
EndChar

StartChar: O
Encoding: 79 79 47
Width: 664
Flags: HMW
HStem: -30 21G<215.5 449> 655 20G<327.5 451>
VStem: 30 127<222 324.5 222 342.5> 176 106<500 509.5 446 571.5> 505 129<271.5 421>
LayerCount: 2
Fore
SplineSet
322 -30 m 0,0,1
 173 -30 173 -30 101.5 56 c 128,-1,2
 30 142 30 142 30 272 c 0,3,4
 30 335 30 335 45 390 c 128,-1,5
 60 445 60 445 73 468 c 128,-1,6
 86 491 86 491 94 495.5 c 128,-1,7
 102 500 102 500 157 500 c 2,8,-1
 176 500 l 1,9,10
 176 550 176 550 195.5 587 c 128,-1,11
 215 624 215 624 245.5 641.5 c 0,12,13
 303.885714286 675 303.885714286 675 356 675 c 0,14,15
 634 675 634 675 634 325 c 0,16,17
 634 215.571428571 634 215.571428571 597 131 c 0,18,19
 576 83 576 83 542 48.5 c 128,-1,20
 508 14 508 14 451.5 -8 c 128,-1,21
 395 -30 395 -30 322 -30 c 0,0,1
505 333 m 0,22,23
 505 568 505 568 365 568 c 0,24,25
 325 568 325 568 303.5 545 c 128,-1,26
 282 522 282 522 282 486.5 c 128,-1,27
 282 451 282 451 304.5 403 c 128,-1,28
 327 355 327 355 349.5 327 c 2,29,-1
 372 299 l 1,30,31
 372 286.913043478 372 286.913043478 335 276.456521739 c 128,-1,32
 298 266 298 266 276 266 c 0,33,34
 271 266 271 266 255.5 285 c 128,-1,35
 240 304 240 304 219.5 343.5 c 128,-1,36
 199 383 199 383 190 427 c 1,37,38
 175.175438596 412.175438596 175.175438596 412.175438596 166.087719298 366.087719298 c 128,-1,39
 157 320 157 320 157 277 c 0,40,41
 157 193 157 193 204 133.5 c 128,-1,42
 251 74 251 74 323 74 c 0,43,44
 505 74 505 74 505 333 c 0,22,23
EndSplineSet
EndChar

StartChar: P
Encoding: 80 80 48
Width: 575
Flags: HMW
HStem: -30 21G<97 121.5> 652 20G<189.5 301>
VStem: 73 126 423 132<452.5 510>
LayerCount: 2
Fore
SplineSet
199 339 m 1,0,1
 423 359 423 359 423 482 c 0,2,3
 423 522 423 522 381.5 544.5 c 128,-1,4
 340 567 340 567 276 567 c 1,5,-1
 204 561 l 1,6,7
 199 525 199 525 199 339 c 1,0,1
165.5 -23.5 m 128,-1,9
 133 -30 133 -30 110 -30 c 128,-1,10
 87 -30 87 -30 73 -24 c 1,11,-1
 79 553 l 1,12,13
 65 569 65 569 52.5 606 c 128,-1,14
 40 643 40 643 40 651.5 c 128,-1,15
 40 660 40 660 42.5 662.5 c 128,-1,16
 45 665 45 665 106.5 668.5 c 128,-1,17
 168 672 168 672 230.5 672 c 128,-1,18
 293 672 293 672 342 665 c 128,-1,19
 391 658 391 658 442.5 639.5 c 128,-1,20
 494 621 494 621 524.5 582.5 c 128,-1,21
 555 544 555 544 555 484 c 128,-1,22
 555 424 555 424 518.5 374 c 128,-1,23
 482 324 482 324 429.5 297.5 c 0,24,25
 321.806771546 243.140560876 321.806771546 243.140560876 235.5 232.5 c 2,26,-1
 199 228 l 1,27,28
 203 24 203 24 209 -6 c 1,29,8
 198 -17 198 -17 165.5 -23.5 c 128,-1,9
EndSplineSet
EndChar

StartChar: Q
Encoding: 81 81 49
Width: 664
Flags: HMW
HStem: -97 21G<442 446 442 442> -28 21G<215.5 341> 657 20G<327.5 450.5>
VStem: 30 127<224 326.5 224 344.5> 176 106<502 511.5 448 573> 505 129<300.5 423>
LayerCount: 2
Fore
SplineSet
544 -52 m 1,0,1
 532 -71 532 -71 500.5 -84 c 128,-1,2
 469 -97 469 -97 446 -97 c 2,3,-1
 442 -97 l 1,4,5
 442 -73 442 -73 427.5 -29.5 c 2,6,-1
 423 -16 l 1,7,8
 379 -28 379 -28 322 -28 c 0,9,10
 173 -28 173 -28 101.5 58 c 128,-1,11
 30 144 30 144 30 274 c 0,12,13
 30 337 30 337 45 392 c 128,-1,14
 60 447 60 447 73 470.5 c 128,-1,15
 86 494 86 494 95 498.5 c 128,-1,16
 104 503 104 503 138 503 c 128,-1,17
 172 503 172 503 176 502 c 1,18,19
 176 552 176 552 195.5 588.5 c 128,-1,20
 215 625 215 625 245 643 c 0,21,22
 301.666666667 677 301.666666667 677 356 677 c 0,23,24
 634 677 634 677 634 327 c 0,25,26
 634 119 634 119 517 29 c 1,27,28
 544 -26 544 -26 544 -52 c 1,0,1
461 142 m 1,29,30
 505 206 505 206 505 335 c 0,31,32
 505 571 505 571 364 571 c 0,33,34
 325 571 325 571 303.5 547.5 c 128,-1,35
 282 524 282 524 282 488.5 c 128,-1,36
 282 453 282 453 304.5 405 c 128,-1,37
 327 357 327 357 349.5 329 c 2,38,-1
 372 301 l 1,39,40
 372 288.913043478 372 288.913043478 335 278.456521739 c 128,-1,41
 298 268 298 268 276 268 c 0,42,43
 271 268 271 268 255 287 c 128,-1,44
 239 306 239 306 219 345.5 c 128,-1,45
 199 385 199 385 190 429 c 1,46,47
 173.586206897 412.586206897 173.586206897 412.586206897 165.293103448 367.293103448 c 128,-1,48
 157 322 157 322 157 279 c 0,49,50
 157 195 157 195 204 135.5 c 128,-1,51
 251 76 251 76 323 76 c 0,52,53
 355 76 355 76 382 84 c 1,54,55
 349 151 349 151 335 170 c 1,56,57
 367 196 367 196 422 196 c 1,58,59
 431.428571429 191.285714286 431.428571429 191.285714286 453.5 154.5 c 2,60,-1
 461 142 l 1,29,30
EndSplineSet
EndChar

StartChar: R
Encoding: 82 82 50
Width: 587
Flags: HMW
HStem: -51 21G 652 20G<189 300>
VStem: 72 127 427 132<461 514>
LayerCount: 2
Fore
SplineSet
198 339 m 1,0,1
 316 350 316 350 371.5 394.5 c 128,-1,2
 427 439 427 439 427 482.5 c 128,-1,3
 427 526 427 526 384 546.5 c 128,-1,4
 341 567 341 567 275 567 c 0,5,6
 240 567 240 567 204 561 c 1,7,8
 198 518 198 518 198 339 c 1,0,1
165 -23.5 m 128,-1,10
 132 -30 132 -30 110 -30 c 128,-1,11
 88 -30 88 -30 72 -24 c 1,12,-1
 78 553 l 1,13,14
 65 569 65 569 52.5 606 c 128,-1,15
 40 643 40 643 40 651.5 c 128,-1,16
 40 660 40 660 42 662.5 c 128,-1,17
 44 665 44 665 105.5 668.5 c 128,-1,18
 167 672 167 672 230 672 c 128,-1,19
 293 672 293 672 342 665 c 128,-1,20
 391 658 391 658 444 640.5 c 128,-1,21
 497 623 497 623 528 585 c 128,-1,22
 559 547 559 547 559 487.5 c 128,-1,23
 559 428 559 428 517 377 c 128,-1,24
 475 326 475 326 403 291 c 1,25,26
 403 275 403 275 466 147.5 c 128,-1,27
 529 20 529 20 566 -17 c 0,28,29
 567 -18 567 -18 567 -20.5 c 128,-1,30
 567 -23 567 -23 551 -30.5 c 0,31,32
 507.266666667 -51 507.266666667 -51 456 -51 c 1,33,-1
 431 -49 l 1,34,35
 409 -27 409 -27 354.5 97 c 128,-1,36
 300 221 300 221 294 249 c 1,37,38
 282 242 282 242 199 228 c 1,39,40
 201 27 201 27 209 -6 c 1,41,9
 198 -17 198 -17 165 -23.5 c 128,-1,10
EndSplineSet
EndChar

StartChar: S
Encoding: 83 83 51
Width: 519
Flags: HMW
HStem: -33 21G<107 248.5> 660 20G<272 398.5>
VStem: 52 142<439 522 439 527.5> 353 136<171 265>
LayerCount: 2
Fore
SplineSet
413 571 m 1,0,1
 397 573 397 573 376.5 573 c 128,-1,2
 356 573 356 573 326.5 569 c 128,-1,3
 297 565 297 565 265.5 556.5 c 128,-1,4
 234 548 234 548 214 530 c 128,-1,5
 194 512 194 512 194 486.5 c 128,-1,6
 194 461 194 461 224.5 441.5 c 128,-1,7
 255 422 255 422 298 405.5 c 128,-1,8
 341 389 341 389 384.5 368 c 128,-1,9
 428 347 428 347 458.5 306.5 c 128,-1,10
 489 266 489 266 489 209 c 0,11,12
 489 108 489 108 392.5 37.5 c 128,-1,13
 296 -33 296 -33 149 -33 c 0,14,15
 75 -33 75 -33 39 -25 c 1,16,17
 30 -16 30 -16 30 82.5 c 128,-1,18
 30 181 30 181 34 201 c 1,19,20
 37 210 37 210 69 223 c 128,-1,21
 101 236 101 236 131 236 c 1,22,23
 131 118 131 118 156 93 c 0,24,25
 166 83 166 83 194 83 c 0,26,27
 258 83 258 83 305.5 119 c 128,-1,28
 353 155 353 155 353 204 c 0,29,30
 353 237 353 237 322 262 c 128,-1,31
 291 287 291 287 246.5 305.5 c 128,-1,32
 202 324 202 324 158 344.5 c 128,-1,33
 114 365 114 365 83 401 c 128,-1,34
 52 437 52 437 52 486 c 0,35,36
 52 559 52 559 139.5 619.5 c 128,-1,37
 227 680 227 680 393 680 c 0,38,39
 432 680 432 680 437 675 c 1,40,41
 438 672 438 672 438 660.5 c 128,-1,42
 438 649 438 649 431 616 c 128,-1,43
 424 583 424 583 413 571 c 1,0,1
EndSplineSet
EndChar

StartChar: T
Encoding: 84 84 52
Width: 471
Flags: HMW
HStem: -43 21G<196.5 247> 652 20G<371.5 405.5>
VStem: 169 123<264.5 512>
LayerCount: 2
Fore
SplineSet
162 80 m 1,0,-1
 169 496 l 2,1,2
 169 547 169 547 166.5 549.5 c 128,-1,3
 164 552 164 552 149.5 552 c 0,4,5
 119 552 119 552 39.5 541.5 c 2,6,-1
 13 538 l 1,7,-1
 10 564 l 1,8,9
 10 612 10 612 26.5 648 c 2,10,-1
 32 660 l 1,11,12
 110 661 110 661 208.5 666.5 c 128,-1,13
 307 672 307 672 386.5 672 c 128,-1,14
 466 672 466 672 466 668 c 0,15,16
 466 639 466 639 461 598.5 c 128,-1,17
 456 558 456 558 449 551 c 1,18,19
 426 556 426 556 364 556 c 128,-1,20
 302 556 302 556 299 553 c 0,21,22
 292 546 292 546 292 292 c 128,-1,23
 292 38 292 38 322 -17 c 1,24,-1
 322 -18 l 2,25,26
 322 -27.4 322 -27.4 283 -35.2 c 128,-1,27
 244 -43 244 -43 221 -43 c 0,28,29
 189.25 -43 189.25 -43 169 -34 c 1,30,31
 162 -26 162 -26 162 80 c 1,0,-1
EndSplineSet
EndChar

StartChar: V
Encoding: 86 86 53
Width: 599
Flags: HMW
HStem: -48 21G<232 253> 673 20G<528 574>
VStem: 440 149<485 690>
LayerCount: 2
Fore
SplineSet
235 -48 m 0,0,1
 225 -48 225 -48 223 -46 c 0,2,3
 190 -16 190 -16 100 255 c 128,-1,4
 10 526 10 526 10 627 c 0,5,6
 10 629 10 629 23.5 635 c 0,7,8
 66.25 654 66.25 654 100.625 654 c 128,-1,9
 135 654 135 654 135 651 c 0,10,11
 139 602 139 602 194.5 392 c 128,-1,12
 250 182 250 182 290 101 c 0,13,14
 299 83 299 83 307.5 91.5 c 0,15,16
 311 95 311 95 312 99 c 0,17,18
 339 150 339 150 389.5 306.5 c 128,-1,19
 440 463 440 463 440 564 c 0,20,21
 440 576 440 576 417.5 590 c 128,-1,22
 395 604 395 604 377 606 c 1,23,24
 376 608 376 608 376 617 c 128,-1,25
 376 626 376 626 381 645.5 c 128,-1,26
 386 665 386 665 390 668 c 1,27,28
 482 693 482 693 574 693 c 1,29,30
 589 691 589 691 589 689 c 0,31,32
 589 603 589 603 542.5 431.5 c 128,-1,33
 496 260 496 260 447 125.5 c 128,-1,34
 398 -9 398 -9 383 -24 c 1,35,36
 339 -48 339 -48 235 -48 c 0,0,1
EndSplineSet
EndChar

StartChar: W
Encoding: 87 87 54
Width: 784
Flags: HMW
HStem: -51 21G -30 21G<159.5 188.5> 669 20G
VStem: 621 153<483.5 686.5>
LayerCount: 2
Fore
SplineSet
774 686 m 0,0,1
 774 587 774 587 736 415.5 c 128,-1,2
 698 244 698 244 658 117 c 128,-1,3
 618 -10 618 -10 606 -21.5 c 128,-1,4
 594 -33 594 -33 550.5 -42 c 128,-1,5
 507 -51 507 -51 484 -51 c 128,-1,6
 461 -51 461 -51 461 -48 c 0,7,8
 459 -40 459 -40 441.5 53.5 c 0,9,10
 392.235294118 316.714285714 392.235294118 316.714285714 385.117647059 333.357142857 c 128,-1,11
 378 350 378 350 376 350 c 1,12,-1
 371 344 l 1,13,14
 346 282 346 282 314.5 150.5 c 128,-1,15
 283 19 283 19 283 0 c 0,16,17
 283 -4 283 -4 264 -11 c 0,18,19
 212.428571429 -30 212.428571429 -30 162 -30 c 0,20,21
 151 -30 151 -30 148 -27 c 0,22,23
 121 0 121 0 65.5 267.5 c 128,-1,24
 10 535 10 535 10 644 c 0,25,26
 10 646 10 646 20.5 651.5 c 0,27,28
 53.9090909091 669 53.9090909091 669 94.4545454545 668.5 c 128,-1,29
 135 668 135 668 135 666 c 0,30,31
 141.821978022 536.382417582 141.821978022 536.382417582 164.410989011 392.691208791 c 128,-1,32
 187 249 187 249 208 196 c 0,33,34
 210 189 210 189 212.5 189 c 128,-1,35
 215 189 215 189 218 196 c 1,36,37
 300 513 300 513 318 532 c 1,38,39
 354 546 354 546 419 546 c 1,40,41
 455 544 455 544 458 541 c 128,-1,42
 461 538 461 538 478 457.5 c 128,-1,43
 495 377 495 377 515 279.5 c 128,-1,44
 535 182 535 182 539.5 162.5 c 128,-1,45
 544 143 544 143 552 164 c 0,46,47
 569 211 569 211 595 335 c 128,-1,48
 621 459 621 459 621 569 c 0,49,50
 621 580 621 580 602.5 590.5 c 128,-1,51
 584 601 584 601 565 603 c 1,52,53
 564 606 564 606 564 615.5 c 128,-1,54
 564 625 564 625 568.5 643.5 c 128,-1,55
 573 662 573 662 576 665 c 1,56,57
 667 689 667 689 758 689 c 1,58,59
 774 687 774 687 774 686 c 0,0,1
EndSplineSet
EndChar

StartChar: Y
Encoding: 89 89 55
Width: 624
Flags: HMW
HStem: -38 21G<266 318.5> 657 20G<485 527.5>
VStem: 243 129<-30 199.5>
LayerCount: 2
Fore
SplineSet
243 -30 m 1,0,-1
 246 245 l 1,1,-1
 246 258 l 1,2,3
 218 297 218 297 146.5 425.5 c 128,-1,4
 75 554 75 554 69 562 c 1,5,6
 46 585 46 585 6 585 c 1,7,8
 5 587 5 587 5 596 c 128,-1,9
 5 605 5 605 11.5 624.5 c 128,-1,10
 18 644 18 644 20.5 646.5 c 128,-1,11
 23 649 23 649 39 652 c 0,12,13
 81.6666666667 660 81.6666666667 660 125.833333333 660 c 128,-1,14
 170 660 170 660 172.5 658 c 128,-1,15
 175 656 175 656 200 603 c 0,16,17
 278.434504792 436.71884984 278.434504792 436.71884984 315 381 c 1,18,-1
 317 381 l 1,19,20
 323 403 323 403 402.5 540 c 128,-1,21
 482 677 482 677 495 677 c 0,22,23
 525 677 525 677 555 669 c 128,-1,24
 585 661 585 661 602 651.5 c 128,-1,25
 619 642 619 642 618 636 c 1,26,27
 565 577 565 577 477.5 446.5 c 128,-1,28
 390 316 390 316 374 258 c 1,29,30
 372 238 372 238 372 129 c 128,-1,31
 372 20 372 20 380 -14 c 1,32,33
 380 -25.7446808511 380 -25.7446808511 348 -31.8723404255 c 128,-1,34
 316 -38 316 -38 285.5 -38 c 128,-1,35
 255 -38 255 -38 243 -30 c 1,0,-1
EndSplineSet
EndChar

StartChar: Z
Encoding: 90 90 56
Width: 574
Flags: HMW
HStem: -20 21G<478.5 495> -14 21G<46 53> -5 21G<317.5 375.5> 658 20G<86.5 107.5>
LayerCount: 2
Fore
SplineSet
554 199 m 0,0,1
 554 154 554 154 534 72.5 c 128,-1,2
 514 -9 514 -9 505 -17 c 0,3,4
 502 -20 502 -20 491 -20 c 0,5,6
 469 -20 469 -20 422.5 -9.5 c 2,7,-1
 407 -6 l 2,8,9
 399 -5 399 -5 366 -5 c 2,10,-1
 53 -14 l 2,11,12
 43 -14 43 -14 31.5 14 c 128,-1,13
 20 42 20 42 20 59 c 128,-1,14
 20 76 20 76 21 80 c 0,15,16
 37 114 37 114 120.5 227 c 128,-1,17
 204 340 204 340 278 439.5 c 128,-1,18
 352 539 352 539 352 550 c 0,19,20
 352 556 352 556 277.5 556 c 128,-1,21
 203 556 203 556 173 541 c 1,22,23
 159.014184397 535.755319149 159.014184397 535.755319149 119 466.5 c 2,24,-1
 106 444 l 1,25,26
 92 444 92 444 66.5 459 c 128,-1,27
 41 474 41 474 41 482 c 0,28,29
 41 506 41 506 51.5 554 c 128,-1,30
 62 602 62 602 74.5 640 c 128,-1,31
 87 678 87 678 91 678 c 0,32,33
 119.307692308 678 119.307692308 678 148.153846154 665.5 c 128,-1,34
 177 653 177 653 179 653 c 0,35,36
 269 666 269 666 380.5 666 c 128,-1,37
 492 666 492 666 510 660 c 1,38,39
 518 653 518 653 528.5 629 c 128,-1,40
 539 605 539 605 539 575 c 0,41,42
 539 572 539 572 531 564 c 0,43,44
 469 494 469 494 339.5 311 c 128,-1,45
 210 128 210 128 210 106 c 0,46,47
 210 99 210 99 293.5 99 c 128,-1,48
 377 99 377 99 403 115 c 1,49,50
 419 129 419 129 447 172 c 128,-1,51
 475 215 475 215 484 241 c 0,52,53
 484 243 484 243 492.5 243 c 128,-1,54
 501 243 501 243 527.5 227 c 128,-1,55
 554 211 554 211 554 199 c 0,0,1
EndSplineSet
EndChar

StartChar: zero
Encoding: 48 48 57
Width: 629
Flags: HMW
HStem: -13 21G<250 378> 650 20G<219 411>
VStem: 30 133<233.5 384 233.5 392.5> 467 132<233.5 384>
LayerCount: 2
Fore
SplineSet
581 436 m 128,-1,1
 599 374 599 374 599 297.5 c 128,-1,2
 599 221 599 221 573 154.5 c 128,-1,3
 547 88 547 88 503.5 53.5 c 0,4,5
 419.652173913 -13 419.652173913 -13 315 -13 c 0,6,7
 172.267605634 -13 172.267605634 -13 93 87.5 c 0,8,9
 65 123 65 123 47.5 181 c 128,-1,10
 30 239 30 239 30 318 c 128,-1,11
 30 397 30 397 60 476.5 c 128,-1,12
 90 556 90 556 157 613 c 128,-1,13
 224 670 224 670 315 670 c 0,14,15
 384 670 384 670 440 637 c 128,-1,16
 496 604 496 604 529.5 551 c 128,-1,0
 563 498 563 498 581 436 c 128,-1,1
315 89 m 128,-1,18
 388 89 388 89 427.5 144 c 128,-1,19
 467 199 467 199 467 310 c 128,-1,20
 467 421 467 421 423.5 493 c 128,-1,21
 380 565 380 565 315 565 c 128,-1,22
 250 565 250 565 206.5 493 c 128,-1,23
 163 421 163 421 163 310 c 128,-1,24
 163 199 163 199 202.5 144 c 128,-1,17
 242 89 242 89 315 89 c 128,-1,18
EndSplineSet
EndChar

StartChar: one
Encoding: 49 49 58
Width: 335
Flags: HMW
HStem: -10 21G<80 80> 657 20G<227.5 242>
VStem: 125 118<186 458.5>
LayerCount: 2
Fore
SplineSet
247 603 m 2,0,-1
 243 217 l 1,1,2
 243 112 243 112 248 107 c 1,3,4
 265 108 265 108 281.5 108 c 128,-1,5
 298 108 298 108 300 106 c 1,6,7
 305 85 305 85 305 45 c 128,-1,8
 305 5 305 5 300 5 c 2,9,-1
 275 5 l 2,10,11
 181.25 5 181.25 5 107 -6 c 2,12,-1
 80 -10 l 1,13,14
 75 -6 75 -6 75 39.5 c 128,-1,15
 75 85 75 85 81 91 c 1,16,-1
 122 98 l 1,17,18
 121 112 121 112 121 150 c 2,19,-1
 125 432 l 1,20,21
 125 521 125 521 118 528 c 0,22,23
 117 529 117 529 109 529 c 128,-1,24
 101 529 101 529 79.5 525.5 c 128,-1,25
 58 522 58 522 40.5 518 c 128,-1,26
 23 514 23 514 21.5 514 c 128,-1,27
 20 514 20 514 20 552 c 128,-1,28
 20 590 20 590 30 600 c 128,-1,29
 40 610 40 610 130.5 643.5 c 128,-1,30
 221 677 221 677 241 677 c 0,31,32
 244 677 244 677 244 676 c 0,33,34
 247 673 247 673 247 603 c 2,0,-1
EndSplineSet
EndChar

StartChar: two
Encoding: 50 50 59
Width: 527
Flags: HMW
HStem: -8 21G<312.5 361> -5 21G<35 40> -1 21G<111 172.5> 566 99<207.5 277>
VStem: 350 140<468 529>
LayerCount: 2
Fore
SplineSet
329 -8 m 1,0,1
 148 -1 l 1,2,3
 91 -1 91 -1 64 -3 c 128,-1,4
 37 -5 37 -5 35 -5 c 1,5,6
 30 -1 30 -1 30 47.5 c 128,-1,7
 30 96 30 96 38 107 c 1,8,9
 116.520694259 181.493991989 116.520694259 181.493991989 195.76034713 269.246995995 c 0,10,11
 350 440.05785124 350 440.05785124 350 503 c 128,-1,12
 350 566 350 566 256 566 c 0,13,14
 179.823529412 566 179.823529412 566 151.5 512.5 c 0,15,16
 131.654676259 475.014388489 131.654676259 475.014388489 124 431 c 1,17,18
 122 429 122 429 108.5 429 c 128,-1,19
 95 429 95 429 70.5 434 c 128,-1,20
 46 439 46 439 42 443 c 128,-1,21
 38 447 38 447 38 481.5 c 128,-1,22
 38 516 38 516 42 571.5 c 128,-1,23
 46 627 46 627 50 630.5 c 128,-1,24
 54 634 54 634 83.5 642 c 0,25,26
 168.3125 665 168.3125 665 268.65625 665 c 128,-1,27
 369 665 369 665 429.5 623.5 c 128,-1,28
 490 582 490 582 490 517 c 0,29,30
 490 446.387096774 490 446.387096774 395.5 327.5 c 0,31,32
 321.594202899 234.52173913 321.594202899 234.52173913 235 141 c 1,33,-1
 207 110 l 1,34,35
 203.5 103 203.5 103 264 103 c 0,36,37
 428 103 428 103 494 124 c 0,38,39
 497 124 497 124 497 122 c 0,40,41
 497 96 497 96 487.5 55.5 c 128,-1,42
 478 15 478 15 466.5 3.5 c 128,-1,43
 455 -8 455 -8 329 -8 c 1,0,1
EndSplineSet
EndChar

StartChar: three
Encoding: 51 51 60
Width: 543
Flags: HMW
HStem: -16 21G<145.5 269> 655 20G<175 271.5>
VStem: 318 146<490.5 524.5> 374 139<178.5 257>
LayerCount: 2
Fore
SplineSet
170 423 m 0,0,1
 182 421 182 421 205.5 421 c 128,-1,2
 229 421 229 421 256.5 430.5 c 128,-1,3
 284 440 284 440 296.5 454 c 0,4,5
 318 478.08 318 478.08 318 500 c 0,6,7
 318 534 318 534 283.5 551 c 128,-1,8
 249 568 249 568 210 568 c 0,9,10
 143.222222222 568 143.222222222 568 96.5 553.5 c 2,11,-1
 82 549 l 1,12,13
 75 549 75 549 75 573 c 128,-1,14
 75 597 75 597 80 626 c 128,-1,15
 85 655 85 655 91 661 c 1,16,17
 138 675 138 675 199.5 675 c 128,-1,18
 261 675 261 675 302.5 668 c 128,-1,19
 344 661 344 661 382 644.5 c 128,-1,20
 420 628 420 628 442 596 c 128,-1,21
 464 564 464 564 464 517 c 128,-1,22
 464 470 464 470 431.5 436 c 128,-1,23
 399 402 399 402 364 390 c 0,24,25
 359 388 359 388 364.5 386 c 128,-1,26
 370 384 370 384 380 380.5 c 128,-1,27
 390 377 390 377 416 363 c 128,-1,28
 442 349 442 349 461.5 330.5 c 128,-1,29
 481 312 481 312 497 278.5 c 128,-1,30
 513 245 513 245 513 196 c 128,-1,31
 513 147 513 147 484.5 103 c 128,-1,32
 456 59 456 59 409 34 c 0,33,34
 315 -16 315 -16 194 -16 c 0,35,36
 107 -16 107 -16 59 -1 c 2,37,-1
 43 4 l 1,38,39
 39 9 39 9 34.5 61 c 128,-1,40
 30 113 30 113 30 148.5 c 128,-1,41
 30 184 30 184 31 194 c 0,42,43
 32 199 32 199 55.5 206.5 c 128,-1,44
 79 214 79 214 98 214 c 128,-1,45
 117 214 117 214 117 212 c 0,46,47
 117 159 117 159 143 125.5 c 128,-1,48
 169 92 169 92 234 92 c 128,-1,49
 299 92 299 92 336.5 125.5 c 128,-1,50
 374 159 374 159 374 200.5 c 128,-1,51
 374 242 374 242 350 266 c 128,-1,52
 326 290 326 290 286.5 300.5 c 0,53,54
 220.666666667 318 220.666666667 318 144 318 c 0,55,56
 140 318 140 318 140 320 c 0,57,58
 140 365 140 365 161 408.5 c 0,59,60
 168 423 168 423 170 423 c 0,0,1
EndSplineSet
EndChar

StartChar: four
Encoding: 52 52 61
Width: 572
Flags: HMW
HStem: -38 21G<364 393.5> 695 20G<392 424.5>
VStem: 347 132
LayerCount: 2
Fore
SplineSet
480 160 m 1,0,1
 480 44 480 44 491 -6 c 1,2,3
 491 -16 491 -16 448 -27 c 128,-1,4
 405 -38 405 -38 374 -38 c 1,5,-1
 347 -35 l 1,6,7
 343 -29 343 -29 343 6 c 128,-1,8
 343 41 343 41 347 157 c 1,9,10
 290 154 290 154 168.5 154 c 128,-1,11
 47 154 47 154 43 158 c 0,12,13
 34 167 34 167 28 187.5 c 128,-1,14
 22 208 22 208 21 223.5 c 2,15,-1
 20 239 l 1,16,17
 20 266 20 266 140 448 c 128,-1,18
 260 630 260 630 324 700 c 0,19,20
 330.804878049 706.804878049 330.804878049 706.804878049 362.902439024 710.902439024 c 128,-1,21
 395 715 395 715 426 715 c 128,-1,22
 457 715 457 715 457 706 c 0,23,24
 457 704 457 704 456 703 c 0,25,26
 394 632 394 632 394 624 c 1,27,28
 484 622 484 622 484 609 c 0,29,30
 479 458 479 458 479 304 c 2,31,-1
 479 266 l 1,32,33
 529 266 529 266 540.5 268.5 c 128,-1,34
 552 271 552 271 552 265 c 0,35,36
 552 237 552 237 537.5 204 c 128,-1,37
 523 171 523 171 515 163 c 0,38,39
 514 162 514 162 480 160 c 1,0,1
243 263 m 2,40,-1
 351 264 l 1,41,42
 358 432 358 432 358 499.5 c 128,-1,43
 358 567 358 567 355 567 c 1,44,45
 333.333333333 545.333333333 333.333333333 545.333333333 251.166666667 419.666666667 c 128,-1,46
 169 294 169 294 169 268 c 0,47,48
 169 263 169 263 243 263 c 2,40,-1
EndSplineSet
EndChar

StartChar: five
Encoding: 53 53 62
Width: 518
Flags: HMW
HStem: -13 21G<104 234> 561 97 648 20G<319 356.5>
VStem: 349 139<174.5 281.5>
LayerCount: 2
Fore
SplineSet
194 103 m 1,0,-1
 207 102 l 1,1,2
 250 102 250 102 293 123.5 c 0,3,4
 318 136 318 136 333.5 163.5 c 128,-1,5
 349 191 349 191 349 225.5 c 128,-1,6
 349 260 349 260 334 282 c 128,-1,7
 319 304 319 304 297 316.5 c 128,-1,8
 275 329 275 329 243.5 336.5 c 0,9,10
 191 349 191 349 128 349 c 1,11,-1
 51 345 l 1,12,-1
 49 387 l 1,13,14
 49 494.916666667 49 494.916666667 60.5 574.458333333 c 128,-1,15
 72 654 72 654 74 656 c 128,-1,16
 76 658 76 658 104.5 658 c 128,-1,17
 133 658 133 658 229 663 c 128,-1,18
 325 668 325 668 375.5 668 c 128,-1,19
 426 668 426 668 431 663 c 1,20,21
 441 649 441 649 441 606 c 128,-1,22
 441 563 441 563 436 558 c 1,23,24
 404 561 404 561 365.5 561 c 128,-1,25
 327 561 327 561 285.5 559.5 c 0,26,27
 197.3125 556.3125 197.3125 556.3125 191.15625 550.15625 c 128,-1,28
 185 544 185 544 185 501.5 c 128,-1,29
 185 459 185 459 187 458 c 1,30,31
 288.2 458 288.2 458 374 412.5 c 0,32,33
 407 395 407 395 431.5 372 c 128,-1,34
 456 349 456 349 472 312 c 128,-1,35
 488 275 488 275 488 229 c 0,36,37
 488 115 488 115 389 51 c 128,-1,38
 290 -13 290 -13 127 -13 c 0,39,40
 59 -13 59 -13 47 -5 c 1,41,42
 40 2 40 2 40 97 c 128,-1,43
 40 192 40 192 46.5 198.5 c 128,-1,44
 53 205 53 205 89.5 216 c 128,-1,45
 126 227 126 227 147 227 c 1,46,47
 147 119 147 119 194 103 c 1,0,-1
EndSplineSet
EndChar

StartChar: six
Encoding: 54 54 63
Width: 559
Flags: HMW
HStem: -5 21G<177.5 339.5> 661 20G<281.5 415>
VStem: 30 132<229 270 214.5 360.5> 399 130<180 234>
LayerCount: 2
Fore
SplineSet
162 263 m 0,0,1
 162 190 162 190 196.5 149 c 128,-1,2
 231 108 231 108 291 108 c 0,3,4
 335 108 335 108 367 137 c 128,-1,5
 399 166 399 166 399 212 c 0,6,7
 399 314 399 314 241 314 c 0,8,9
 200 314 200 314 164 303 c 1,10,11
 162 279 162 279 162 263 c 0,0,1
457 571 m 0,12,13
 429 573 429 573 420 573 c 0,14,15
 339 573 339 573 277 528 c 128,-1,16
 215 483 215 483 191 416 c 1,17,18
 221 423 221 423 266 423 c 0,19,20
 389 423 389 423 459 369 c 128,-1,21
 529 315 529 315 529 228 c 0,22,23
 529 168 529 168 506.5 121.5 c 128,-1,24
 484 75 484 75 447.5 48.5 c 0,25,26
 373.811320755 -5 373.811320755 -5 285 -5 c 0,27,28
 224 -5 224 -5 176.5 16 c 128,-1,29
 129 37 129 37 102 67.5 c 128,-1,30
 75 98 75 98 58 138 c 0,31,32
 30 203.882352941 30 203.882352941 30 265.441176471 c 128,-1,33
 30 327 30 327 44 382.5 c 128,-1,34
 58 438 58 438 89 492 c 128,-1,35
 120 546 120 546 164 588 c 128,-1,36
 208 630 208 630 273 655.5 c 128,-1,37
 338 681 338 681 415 681 c 0,38,39
 431 681 431 681 433 679 c 0,40,41
 459 645 459 645 459 577 c 0,42,43
 459 571 459 571 457 571 c 0,12,13
EndSplineSet
EndChar

StartChar: seven
Encoding: 55 55 64
Width: 496
Flags: HMW
HStem: -38 21G<169.5 209> 565 100<181 275.5>
VStem: 105 148<5 10 10 19 5 113>
LayerCount: 2
Fore
SplineSet
256 -27 m 1,0,1
 256 -33.9130434783 256 -33.9130434783 220.5 -37 c 2,2,-1
 209 -38 l 1,3,4
 137.454545455 -38 137.454545455 -38 113.5 -22.5 c 0,5,6
 105 -17 105 -17 105 -13 c 0,7,8
 105 58 105 58 128 142 c 128,-1,9
 151 226 151 226 181 292 c 128,-1,10
 211 358 211 358 247.5 422 c 0,11,12
 295.561085973 506.271493213 295.561085973 506.271493213 331 555 c 1,13,14
 331 565 331 565 255.5 565 c 128,-1,15
 180 565 180 565 154 539 c 1,16,17
 129.436046512 516.325581395 129.436046512 516.325581395 120 466 c 2,18,-1
 117 450 l 1,19,20
 112 445 112 445 75.5 457 c 128,-1,21
 39 469 39 469 32 482 c 0,22,23
 29 487 29 487 30.5 570 c 128,-1,24
 32 653 32 653 38 659 c 128,-1,25
 44 665 44 665 119 665 c 128,-1,26
 194 665 194 665 235.5 664.5 c 128,-1,27
 277 664 277 664 312.5 663.5 c 0,28,29
 408.586666667 662.146666667 408.586666667 662.146666667 444 671 c 0,30,31
 455 674 455 674 473 639 c 128,-1,32
 491 604 491 604 491 585 c 1,33,34
 474 573 474 573 436.5 519 c 128,-1,35
 399 465 399 465 357 387.5 c 128,-1,36
 315 310 315 310 284 208 c 128,-1,37
 253 106 253 106 253 19 c 2,38,-1
 253 10 l 2,39,40
 253 -17 253 -17 256 -27 c 1,0,1
EndSplineSet
EndChar

StartChar: eight
Encoding: 56 56 65
Width: 582
Flags: HMW
HStem: -12 21G<214.5 366> 658 20G<269.5 367>
VStem: 30 147<162.5 220 162.5 230> 64 113 64 144<480 523 480 558> 421 141<176 232>
LayerCount: 2
Fore
SplineSet
383.5 128 m 128,-1,1
 421 161 421 161 421 194.5 c 128,-1,2
 421 228 421 228 390 257.5 c 128,-1,3
 359 287 359 287 328.5 300 c 128,-1,4
 298 313 298 313 289 313 c 128,-1,5
 280 313 280 313 255.5 297.5 c 128,-1,6
 231 282 231 282 204 249 c 128,-1,7
 177 216 177 216 177 183 c 128,-1,8
 177 150 177 150 206 122.5 c 128,-1,9
 235 95 235 95 290.5 95 c 128,-1,0
 346 95 346 95 383.5 128 c 128,-1,1
360.5 459.5 m 128,-1,11
 398 491 398 491 398 515 c 128,-1,12
 398 539 398 539 373.5 556.5 c 128,-1,13
 349 574 349 574 310 574 c 128,-1,14
 271 574 271 574 239.5 553 c 128,-1,15
 208 532 208 532 208 503 c 128,-1,16
 208 474 208 474 250 451 c 128,-1,17
 292 428 292 428 307.5 428 c 128,-1,10
 323 428 323 428 360.5 459.5 c 128,-1,11
482.5 52.5 m 128,-1,19
 403 -12 403 -12 290 -12 c 128,-1,20
 177 -12 177 -12 103.5 40 c 128,-1,21
 30 92 30 92 30 170 c 0,22,23
 30 233.428571429 30 233.428571429 83 294 c 0,24,25
 110.164179104 325.044776119 110.164179104 325.044776119 160 355.5 c 2,26,-1
 169 361 l 1,27,-1
 169 365 l 1,28,29
 64 417 64 417 64 493 c 0,30,31
 64 539 64 539 90 576.5 c 128,-1,32
 116 614 116 614 155.5 635 c 0,33,34
 236.380952381 678 236.380952381 678 316 678 c 0,35,36
 435.712328767 678 435.712328767 678 499.5 608.5 c 0,37,38
 533 572 533 572 533 528 c 128,-1,39
 533 484 533 484 495.5 441.5 c 128,-1,40
 458 399 458 399 415 377 c 0,41,42
 411 374 411 374 413.5 372.5 c 128,-1,43
 416 371 416 371 433 362.5 c 128,-1,44
 450 354 450 354 463.5 346 c 128,-1,45
 477 338 477 338 496.5 322.5 c 128,-1,46
 516 307 516 307 529 291.5 c 0,47,48
 562 252.153846154 562 252.153846154 562 207 c 0,49,18
 562 117 562 117 482.5 52.5 c 128,-1,19
EndSplineSet
EndChar

StartChar: nine
Encoding: 57 57 66
Width: 558
Flags: HMW
HStem: -15 21G<143 276.5> 650 20G<219 383.5>
VStem: 30 130<438.5 492.5 438.5 519.5> 398 130<398 436 304.5 450.5>
LayerCount: 2
Fore
SplineSet
398 402 m 0,0,1
 398 475 398 475 364 516.5 c 128,-1,2
 330 558 330 558 268 558 c 0,3,4
 223 558 223 558 191.5 532 c 128,-1,5
 160 506 160 506 160 461 c 0,6,7
 160 391.045454545 160 391.045454545 232 372.5 c 0,8,9
 265 364 265 364 318 364 c 128,-1,10
 371 364 371 364 396 377 c 1,11,12
 398 384 398 384 398 402 c 0,0,1
106 95 m 2,13,-1
 139 93 l 1,14,15
 222 93 222 93 283 139 c 128,-1,16
 344 185 344 185 373 264 c 1,17,18
 338 256 338 256 284 256 c 0,19,20
 161 256 161 256 95.5 306.5 c 128,-1,21
 30 357 30 357 30 436 c 128,-1,22
 30 515 30 515 69 569 c 0,23,24
 141.944444444 670 141.944444444 670 273 670 c 0,25,26
 336 670 336 670 384 649 c 128,-1,27
 432 628 432 628 458.5 597.5 c 128,-1,28
 485 567 485 567 501.5 527 c 0,29,30
 528 462.757575758 528 462.757575758 528 393.378787879 c 128,-1,31
 528 324 528 324 504.5 254.5 c 128,-1,32
 481 185 481 185 436.5 123.5 c 128,-1,33
 392 62 392 62 315 23.5 c 128,-1,34
 238 -15 238 -15 143 -15 c 0,35,36
 128 -15 128 -15 126 -13 c 0,37,38
 100 19 100 19 100 86 c 0,39,40
 100 95 100 95 106 95 c 2,13,-1
EndSplineSet
EndChar

StartChar: question
Encoding: 63 63 67
Width: 396
Flags: HMW
HStem: -10 21G<113.5 150.5> 557 98<98 146>
VStem: 86 113 249 117<433 507>
LayerCount: 2
Fore
SplineSet
113 655 m 0,0,1
 250 655 250 655 308 608.5 c 128,-1,2
 366 562 366 562 366 494 c 0,3,4
 366 408.119047619 366 408.119047619 292 353.5 c 0,5,6
 263.75862069 332.655172414 263.75862069 332.655172414 224.5 316 c 2,7,-1
 208 309 l 2,8,9
 201 306 201 306 194.5 267.5 c 128,-1,10
 188 229 188 229 188 212 c 1,11,12
 182.75 206.75 182.75 206.75 159.375 200.375 c 128,-1,13
 136 194 136 194 120.5 194 c 128,-1,14
 105 194 105 194 97 196 c 1,15,16
 86 214 86 214 86 274 c 128,-1,17
 86 334 86 334 91 351 c 1,18,19
 249 389 249 389 249 479 c 0,20,21
 249 557 249 557 105 557 c 0,22,23
 54 557 54 557 31 547 c 1,24,25
 25 557 25 557 25 589 c 128,-1,26
 25 621 25 621 34 643 c 1,27,28
 61 655 61 655 113 655 c 0,0,1
65 57 m 128,-1,30
 65 85 65 85 84.5 104.5 c 128,-1,31
 104 124 104 124 132 124 c 128,-1,32
 160 124 160 124 179.5 104.5 c 128,-1,33
 199 85 199 85 199 57 c 128,-1,34
 199 29 199 29 179.5 9.5 c 128,-1,35
 160 -10 160 -10 132 -10 c 128,-1,36
 104 -10 104 -10 84.5 9.5 c 128,-1,29
 65 29 65 29 65 57 c 128,-1,30
EndSplineSet
EndChar

StartChar: exclam
Encoding: 33 33 68
Width: 215
Flags: HMW
HStem: -4 21G<88.5 125.5> 646 20G<106 131>
VStem: 40 123
LayerCount: 2
Fore
SplineSet
105 200 m 1,0,-1
 64 205 l 1,1,2
 64 300 64 300 55.5 412 c 128,-1,3
 47 524 47 524 38.5 588.5 c 2,4,-1
 30 653 l 1,5,6
 38.935483871 661.935483871 38.935483871 661.935483871 89.5 665 c 2,7,-1
 106 666 l 1,8,9
 160 666 160 666 181 652 c 0,10,11
 184 650 184 650 184 648.5 c 128,-1,12
 184 647 184 647 181.5 635.5 c 128,-1,13
 179 624 179 624 176 608.5 c 128,-1,14
 173 593 173 593 170 575 c 0,15,16
 163 533 163 533 163 515 c 128,-1,17
 163 497 163 497 159.5 431 c 0,18,19
 149.451612903 241.516129032 149.451612903 241.516129032 146 207 c 1,20,21
 126 200 126 200 105 200 c 1,0,-1
174 63 m 128,-1,23
 174 35 174 35 154.5 15.5 c 128,-1,24
 135 -4 135 -4 107 -4 c 128,-1,25
 79 -4 79 -4 59.5 15.5 c 128,-1,26
 40 35 40 35 40 63 c 128,-1,27
 40 91 40 91 59.5 110.5 c 128,-1,28
 79 130 79 130 107 130 c 128,-1,29
 135 130 135 130 154.5 110.5 c 128,-1,22
 174 91 174 91 174 63 c 128,-1,23
EndSplineSet
EndChar

StartChar: ampersand
Encoding: 38 38 69
Width: 619
Flags: HMW
HStem: -47 21G<464 485> -25 21G<208 298.5> 579 94<310.5 385>
VStem: 40 117<162 237 162 261> 161 124<510.5 540.5 479 578>
LayerCount: 2
Fore
SplineSet
486 325 m 1,0,-1
 485 339 l 1,1,2
 513 339 513 339 540 329.5 c 128,-1,3
 567 320 567 320 580.5 311 c 2,4,-1
 594 302 l 1,5,6
 594 166 594 166 508 77 c 1,7,8
 536 38 536 38 571 10 c 0,9,10
 572 9 572 9 572 8 c 0,11,12
 572 -2 572 -2 532.5 -24.5 c 128,-1,13
 493 -47 493 -47 464 -47 c 1,14,15
 430 -7 430 -7 416 12 c 1,16,17
 352 -25 352 -25 274 -25 c 0,18,19
 170 -25 170 -25 105 27.5 c 128,-1,20
 40 80 40 80 40 182 c 0,21,22
 40 335 40 335 188 409 c 1,23,24
 161 480 161 480 161 526 c 0,25,26
 161 598 161 598 220 635.5 c 128,-1,27
 279 673 279 673 356 673 c 1,28,29
 407 670 407 670 411 666 c 1,30,31
 426 637 426 637 426 588 c 0,32,33
 426 579 426 579 425 575 c 1,34,35
 397 579 397 579 369 579 c 128,-1,36
 341 579 341 579 313 564 c 128,-1,37
 285 549 285 549 285 507 c 128,-1,38
 285 465 285 465 338 353 c 128,-1,39
 391 241 391 241 444 165 c 1,40,41
 465 192 465 192 475.5 239.5 c 128,-1,42
 486 287 486 287 486 325 c 1,0,-1
186.5 109.5 m 128,-1,44
 216 76 216 76 272 76 c 128,-1,45
 328 76 328 76 358 95 c 1,46,47
 285 205 285 205 236 311 c 1,48,49
 208.222222222 301.740740741 208.222222222 301.740740741 184.5 273.5 c 0,50,51
 157 240.761904762 157 240.761904762 157 191.880952381 c 128,-1,43
 157 143 157 143 186.5 109.5 c 128,-1,44
EndSplineSet
EndChar

StartChar: section
Encoding: 167 167 70
Width: 514
Flags: HMW
HStem: -11 21G<103.5 105 105 118> 645 20G<397 410 410 411.5>
VStem: 30 127<307 343 307 346> 103 144 268 143 357 127<311.5 348>
LayerCount: 2
Fore
SplineSet
162 453 m 1,0,1
 103 490 103 490 103 531.5 c 128,-1,2
 103 573 103 573 138.5 601 c 128,-1,3
 174 629 174 629 227 642 c 0,4,5
 320.769230769 665 320.769230769 665 397 665 c 2,6,-1
 410 665 l 2,7,8
 414.307692308 665 414.307692308 665 418.153846154 645 c 128,-1,9
 422 625 422 625 422 611 c 128,-1,10
 422 597 422 597 417 577 c 1,11,-1
 407 577 l 2,12,13
 334.2 577 334.2 577 281 558 c 0,14,15
 247 545.857142857 247 545.857142857 247 527 c 0,16,17
 247 513 247 513 271 499 c 128,-1,18
 295 485 295 485 330 470.5 c 128,-1,19
 365 456 365 456 400 439.5 c 128,-1,20
 435 423 435 423 459.5 398 c 128,-1,21
 484 373 484 373 484 343 c 0,22,23
 484 298 484 298 447.5 265 c 128,-1,24
 411 232 411 232 353 203 c 0,25,26
 351 202 351 202 353 201 c 0,27,28
 411 163 411 163 411 122 c 128,-1,29
 411 81 411 81 375.5 53 c 128,-1,30
 340 25 340 25 287 12 c 0,31,32
 193.230769231 -11 193.230769231 -11 118 -11 c 2,33,-1
 105 -11 l 2,34,35
 100.777777778 -11 100.777777778 -11 96.8888888889 10 c 128,-1,36
 93 31 93 31 93 46.5 c 128,-1,37
 93 62 93 62 97 77 c 1,38,-1
 107 77 l 2,39,40
 180.8 77 180.8 77 234 96 c 0,41,42
 268 108.142857143 268 108.142857143 268 127 c 0,43,44
 268 154.561797753 268 154.561797753 149.5 198.5 c 0,45,46
 105 215 105 215 67.5 245.5 c 128,-1,47
 30 276 30 276 30 312 c 0,48,49
 30 360.181818182 30 360.181818182 75 397 c 0,50,51
 109.730337079 425.415730337 109.730337079 425.415730337 161 452 c 1,52,-1
 162 453 l 1,0,1
315 376 m 128,-1,54
 273 399 273 399 255.5 399 c 128,-1,55
 238 399 238 399 197.5 374 c 128,-1,56
 157 349 157 349 157 325.5 c 128,-1,57
 157 302 157 302 200 278.5 c 128,-1,58
 243 255 243 255 259.5 255 c 128,-1,59
 276 255 276 255 316.5 280 c 128,-1,60
 357 305 357 305 357 329 c 128,-1,53
 357 353 357 353 315 376 c 128,-1,54
EndSplineSet
EndChar

StartChar: at
Encoding: 64 64 71
Width: 992
Flags: HMW
HStem: -230 21G<299.5 456> -7 21G<386 468> 373 94<422.5 458.5> 578 95<418 603.5>
VStem: 30 116<132.5 293.5> 286 123<131.5 179.5 131.5 212> 562 107 848 114<190 323.5 163 348.5>
LayerCount: 2
Fore
SplineSet
517 -113 m 1,0,1
 518 -116 518 -116 518 -132 c 128,-1,2
 518 -148 518 -148 507.5 -181.5 c 128,-1,3
 497 -215 497 -215 488 -223 c 1,4,5
 484.7 -227.95 484.7 -227.95 456 -230 c 1,6,7
 365 -230 365 -230 291.5 -204 c 128,-1,8
 218 -178 218 -178 170.5 -135.5 c 128,-1,9
 123 -93 123 -93 90.5 -36 c 0,10,11
 30 70.1076923077 30 70.1076923077 30 204 c 0,12,13
 30 328.813333333 30 328.813333333 99.5 446.5 c 0,14,15
 137 510 137 510 190.5 560 c 128,-1,16
 244 610 244 610 327.5 641.5 c 128,-1,17
 411 673 411 673 511.5 673 c 128,-1,18
 612 673 612 673 692 644 c 128,-1,19
 772 615 772 615 821.5 570 c 128,-1,20
 871 525 871 525 903.5 465.5 c 0,21,22
 962 358.4 962 358.4 962 234 c 0,23,24
 962 116.216666667 962 116.216666667 901 11.5 c 0,25,26
 871 -40 871 -40 819 -72.5 c 128,-1,27
 767 -105 767 -105 702 -105 c 0,28,29
 647.172413793 -105 647.172413793 -105 604.5 -67.5 c 0,30,31
 565.919781222 -33.5961713765 565.919781222 -33.5961713765 562 35 c 0,32,33
 562 37 562 37 561 37 c 128,-1,34
 560 37 560 37 558 35 c 0,35,36
 505 -7 505 -7 434 -7 c 128,-1,37
 363 -7 363 -7 324.5 27 c 128,-1,38
 286 61 286 61 286 117 c 128,-1,39
 286 173 286 173 310.5 211.5 c 128,-1,40
 335 250 335 250 368.5 270 c 128,-1,41
 402 290 402 290 441 303 c 0,42,43
 501 323 501 323 538 323 c 1,44,-1
 539 324 l 1,45,46
 539 373 539 373 415 373 c 0,47,48
 366 373 366 373 342 369 c 1,49,-1
 341 369 l 1,50,51
 341 389 341 389 354 419.5 c 128,-1,52
 367 450 367 450 377 460 c 1,53,54
 377 462.764705882 377 462.764705882 401 464.882352941 c 128,-1,55
 425 467 425 467 446 467 c 0,56,57
 561 467 561 467 615 422.5 c 128,-1,58
 669 378 669 378 669 284 c 1,59,-1
 668.5 258.5 l 2,60,61
 667 182 667 182 667 132 c 128,-1,62
 667 82 667 82 669 62 c 0,63,64
 676 2 676 2 726 2 c 0,65,66
 760 2 760 2 785.5 26 c 128,-1,67
 811 50 811 50 823.5 87.5 c 0,68,69
 848 161 848 161 848 226 c 0,70,71
 848 401 848 401 753.5 489.5 c 128,-1,72
 659 578 659 578 511 578 c 0,73,74
 416 578 416 578 334 535 c 128,-1,75
 252 492 252 492 199 405 c 128,-1,76
 146 318 146 318 146 203 c 0,77,78
 146 47.3943661972 146 47.3943661972 248.5 -45 c 0,79,80
 284 -77 284 -77 340 -97 c 128,-1,81
 396 -117 396 -117 448 -117 c 128,-1,82
 500 -117 500 -117 517 -113 c 1,0,1
424 109 m 128,-1,84
 439 95 439 95 463.5 95 c 128,-1,85
 488 95 488 95 505.5 100 c 128,-1,86
 523 105 523 105 540 124 c 128,-1,87
 557 143 557 143 557 173 c 2,88,-1
 557 211 l 2,89,90
 557 233 557 233 556 233 c 0,91,92
 516.473684211 233 516.473684211 233 480.236842105 219.5 c 0,93,94
 409 192.960784314 409 192.960784314 409 144 c 0,95,83
 409 123 409 123 424 109 c 128,-1,84
EndSplineSet
EndChar

StartChar: germandbls
Encoding: 223 223 72
Width: 583
Flags: HMW
HStem: -125 21G<50 80> -17 94<269.5 309.5 218 319.5> 575 95<268.5 329.5>
VStem: 52 123 396 122<492.5 534> 422 131<167 231.5>
LayerCount: 2
Fore
SplineSet
54 319 m 2,0,-1
 52 428.5 l 1,1,-1
 52 438 l 2,2,3
 52 551 52 551 118 610.5 c 128,-1,4
 184 670 184 670 316 670 c 0,5,6
 413.363636364 670 413.363636364 670 470 625.5 c 0,7,8
 518 587.785714286 518 587.785714286 518 519 c 0,9,10
 518 474 518 474 482.5 430 c 128,-1,11
 447 386 447 386 373 362 c 0,12,13
 360 358 360 358 370 356 c 128,-1,14
 380 354 380 354 392.5 350.5 c 128,-1,15
 405 347 405 347 436 333.5 c 128,-1,16
 467 320 467 320 490.5 302.5 c 128,-1,17
 514 285 514 285 533.5 253 c 128,-1,18
 553 221 553 221 553 174 c 128,-1,19
 553 127 553 127 523 85.5 c 128,-1,20
 493 44 493 44 447 23 c 0,21,22
 359.380952381 -17 359.380952381 -17 273 -17 c 0,23,24
 259 -17 259 -17 253 -16 c 1,25,26
 237 0 237 0 228 23 c 128,-1,27
 219 46 219 46 218.5 61.5 c 2,28,-1
 218 77 l 1,29,30
 359.53125 77 359.53125 77 402.5 132 c 0,31,32
 422 156.96 422 156.96 422 184 c 0,33,34
 422 226 422 226 373.5 254 c 128,-1,35
 325 282 325 282 276.5 289 c 2,36,-1
 228 296 l 2,37,38
 223 296 223 296 223 315 c 2,39,-1
 223 321 l 2,40,41
 223 351 223 351 233.5 374 c 128,-1,42
 244 397 244 397 254 402 c 1,43,44
 314 414 314 414 355 445.5 c 128,-1,45
 396 477 396 477 396 510.5 c 0,46,47
 396 575 396 575 300 575 c 0,48,49
 253 575 253 575 217.5 549.5 c 128,-1,50
 182 524 182 524 174 483 c 0,51,52
 171 467 171 467 171 405 c 2,53,-1
 175 51 l 1,54,55
 175 -69 175 -69 168 -83 c 1,56,57
 159 -96 159 -96 124.5 -110.5 c 128,-1,58
 90 -125 90 -125 68 -125 c 128,-1,59
 46 -125 46 -125 30 -123 c 1,60,61
 54 -32 54 -32 54 265 c 0,62,63
 54 292 54 292 54 319 c 2,0,-1
EndSplineSet
EndChar

StartChar: sterling
Encoding: 163 163 74
Width: 530
Flags: HMW
HStem: -8 21G<92 111.5> -7 93<268.5 380> 337 72<35 93 35 93 10 93 210 319> 649 20G<260.5 362>
VStem: 93 114<174.5 337>
LayerCount: 2
Fore
SplineSet
319 337 m 1,0,-1
 208 337 l 1,1,2
 207 291 207 291 207 196.5 c 128,-1,3
 207 102 207 102 211 98 c 0,4,5
 223 86 223 86 296.5 86 c 128,-1,6
 370 86 370 86 404 119.5 c 128,-1,7
 438 153 438 153 448 200 c 1,8,9
 464 199 464 199 484.5 188.5 c 128,-1,10
 505 178 505 178 505 161 c 128,-1,11
 505 144 505 144 491.5 90 c 128,-1,12
 478 36 478 36 457 8 c 0,13,14
 445 -7 445 -7 360 -7 c 0,15,16
 277.2 -7 277.2 -7 207 -0.5 c 2,17,-1
 180 2 l 1,18,19
 132 -8 132 -8 101 -8 c 1,20,-1
 54 -4 l 1,21,22
 54 18 54 18 76.5 66 c 2,23,-1
 84 82 l 2,24,25
 91 96 91 96 93 337 c 1,26,-1
 10 337 l 1,27,28
 10 384 10 384 35 409 c 1,29,-1
 93 409 l 1,30,31
 93 554 93 554 94 560 c 0,32,33
 100.522222222 579.566666667 100.522222222 579.566666667 126.261111111 600.283333333 c 128,-1,34
 152 621 152 621 180.5 635 c 0,35,36
 249.714285714 669 249.714285714 669 362 669 c 1,37,38
 380 649 380 649 380 593 c 1,39,40
 366 593 366 593 343.5 590.5 c 128,-1,41
 321 588 321 588 277 570 c 128,-1,42
 233 552 233 552 217 523 c 1,43,44
 214 509 214 509 210 409 c 1,45,-1
 344 409 l 1,46,47
 344 364 344 364 319 337 c 1,0,-1
EndSplineSet
EndChar

StartChar: registered
Encoding: 174 174 75
Width: 375
Flags: HMW
HStem: 160 32<153 222.5 153 231.5> 378 26<181 192 164.5 196> 444 32<153 222.5>
LayerCount: 2
Fore
SplineSet
345 318 m 128,-1,1
 345 253 345 253 299 206.5 c 128,-1,2
 253 160 253 160 188 160 c 128,-1,3
 123 160 123 160 76.5 206.5 c 128,-1,4
 30 253 30 253 30 318 c 128,-1,5
 30 383 30 383 76.5 429.5 c 128,-1,6
 123 476 123 476 188 476 c 128,-1,7
 253 476 253 476 299 429.5 c 128,-1,0
 345 383 345 383 345 318 c 128,-1,1
188 444 m 128,-1,9
 136 444 136 444 99 407 c 128,-1,10
 62 370 62 370 62 318 c 128,-1,11
 62 266 62 266 99 229 c 128,-1,12
 136 192 136 192 188 192 c 128,-1,13
 240 192 240 192 277 229 c 128,-1,14
 314 266 314 266 314 318 c 128,-1,15
 314 370 314 370 277 407 c 128,-1,8
 240 444 240 444 188 444 c 128,-1,9
259 242 m 1,16,17
 251 234 251 234 231 234 c 2,18,-1
 224 234 l 1,19,20
 218 240 218 240 205.5 267 c 128,-1,21
 193 294 193 294 192 300 c 1,22,23
 187 298 187 298 166 295 c 1,24,25
 168 240 168 240 169 237 c 1,26,27
 162 231 162 231 142 231 c 1,28,-1
 133 233 l 1,29,-1
 137 375 l 1,30,31
 127 385 127 385 127 401 c 1,32,33
 130 404 130 404 176 404 c 0,34,35
 256 404 256 404 256 360 c 0,36,37
 256 327 256 327 218 310 c 1,38,39
 218 307 218 307 234 279 c 128,-1,40
 250 251 250 251 259 242 c 1,16,17
166 322 m 1,41,42
 195 325 195 325 209 336 c 128,-1,43
 223 347 223 347 223 358 c 0,44,45
 223 378 223 378 186 378 c 1,46,-1
 167 377 l 1,47,48
 166 370 166 370 166 322 c 1,41,42
EndSplineSet
EndChar

StartChar: onehalf
Encoding: 189 189 76
Width: 693
Flags: HMW
HStem: -38 21G<72 90> -6 21G<561 588> -5 21G<408 410 408 408> -3 58<453 558> 309 55<503 541.5> 678 20G<527 544.5>
LayerCount: 2
Fore
SplineSet
47 -27 m 1,0,-1
 504 694 l 1,1,2
 517 698 517 698 530 698 c 0,3,4
 555 698 555 698 575 686 c 1,5,-1
 115 -35 l 1,6,7
 98 -38 98 -38 86 -38 c 0,8,9
 62.4 -38 62.4 -38 47 -27 c 1,0,-1
503 59 m 1,10,11
 503 55 503 55 515.875 55 c 2,12,-1
 535 55 l 2,13,14
 626 55 626 55 661 66 c 1,15,-1
 662 66 l 2,16,17
 663 66 663 66 663 58.5 c 128,-1,18
 663 51 663 51 657.5 28.5 c 128,-1,19
 652 6 652 6 646 0 c 128,-1,20
 640 -6 640 -6 570 -6 c 1,21,-1
 470 -3 l 1,22,-1
 410 -5 l 1,23,-1
 408 -5 l 1,24,25
 406 -3 406 -3 406 25 c 128,-1,26
 406 53 406 53 411 58 c 0,27,28
 472.018867925 113.20754717 472.018867925 113.20754717 527.009433962 182.103773585 c 128,-1,29
 582 251 582 251 582 275 c 0,30,31
 582 309 582 309 530 309 c 0,32,33
 504 309 504 309 488 296.5 c 128,-1,34
 472 284 472 284 467 271 c 128,-1,35
 462 258 462 258 457 235 c 0,36,37
 456 234 456 234 438 234 c 128,-1,38
 420 234 420 234 412 242 c 0,39,40
 411 243 411 243 411 291 c 128,-1,41
 411 339 411 339 414.5 342.5 c 128,-1,42
 418 346 418 346 434.5 351 c 0,43,44
 477.4 364 477.4 364 534.7 364 c 128,-1,45
 592 364 592 364 625.5 341 c 128,-1,46
 659 318 659 318 659 282 c 0,47,48
 659 221 659 221 503 59 c 1,10,11
165 635 m 2,49,-1
 162 416 l 2,50,51
 162 357 162 357 165 354 c 1,52,53
 177 355 177 355 185 355 c 128,-1,54
 193 355 193 355 193 354 c 0,55,56
 197 342 197 342 197 320 c 128,-1,57
 197 298 197 298 194 298 c 2,58,-1
 178 298 l 2,59,60
 131 298 131 298 87.5 292 c 2,61,-1
 73 290 l 1,62,63
 70 293 70 293 70 317.5 c 128,-1,64
 70 342 70 342 73 345 c 1,65,-1
 96 349 l 1,66,-1
 95 376 l 1,67,-1
 99 544 l 2,68,69
 99 582 99 582 95 586 c 0,70,71
 95 587 95 587 90.5 587 c 128,-1,72
 86 587 86 587 73.5 584.5 c 2,73,-1
 41 578 l 2,74,75
 40 578 40 578 40 599 c 128,-1,76
 40 620 40 620 45.5 625.5 c 128,-1,77
 51 631 51 631 101.5 651 c 128,-1,78
 152 671 152 671 162 671 c 2,79,-1
 163 671 l 1,80,81
 165 669 165 669 165 635 c 2,49,-1
EndSplineSet
EndChar

StartChar: threequarters
Encoding: 190 190 77
Width: 746
Flags: HMW
HStem: -38 21G<146 164> -19 21G<603 619> 86 60<470 547> 285 59<125.5 172.5> 469 56<125 142> 606 59<120.5 150.5> 678 20G<601 618.5>
LayerCount: 2
Fore
SplineSet
667 89 m 1,0,1
 667 24 667 24 673 -2 c 1,2,3
 673 -7 673 -7 649 -13 c 128,-1,4
 625 -19 625 -19 608 -19 c 1,5,-1
 594 -18 l 1,6,7
 591 -15 591 -15 591 4.5 c 128,-1,8
 591 24 591 24 593 88 c 1,9,10
 551 86 551 86 490.5 86 c 128,-1,11
 430 86 430 86 426 88 c 1,12,13
 416.0625 97.9375 416.0625 97.9375 414 133 c 0,14,15
 414 148 414 148 480 247.5 c 128,-1,16
 546 347 546 347 581 386 c 1,17,18
 586 395 586 395 620 395 c 128,-1,19
 654 395 654 395 654 392 c 128,-1,20
 654 389 654 389 636.5 368.5 c 128,-1,21
 619 348 619 348 619 345 c 1,22,23
 669 344 669 344 669 337 c 0,24,25
 666 239 666 239 666 148 c 1,26,27
 694 148 694 148 700 149 c 128,-1,28
 706 150 706 150 706 147 c 0,29,30
 706 132 706 132 698 113.5 c 128,-1,31
 690 95 690 95 686 91 c 1,32,-1
 667 89 l 1,0,1
121 -27 m 1,33,-1
 578 694 l 1,34,35
 591 698 591 698 604 698 c 0,36,37
 629 698 629 698 649 686 c 1,38,-1
 189 -35 l 1,39,40
 173 -38 173 -38 160.5 -38 c 0,41,42
 136.4 -38 136.4 -38 121 -27 c 1,33,-1
180 596.5 m 128,-1,44
 161 606 161 606 131 606 c 128,-1,45
 101 606 101 606 69 596 c 1,46,47
 66.6559477124 596.831529412 66.6559477124 596.831529412 66.3279738562 623.915764706 c 128,-1,48
 66 651 66 651 74 657 c 1,49,50
 100 665 100 665 141 665 c 0,51,52
 279 665 279 665 279 580 c 0,53,54
 279 552 279 552 261.5 533.5 c 128,-1,55
 244 515 244 515 225 508 c 1,56,-1
 224 506 l 1,57,58
 277.4 488.2 277.4 488.2 298 447 c 0,59,60
 307 429 307 429 307 407 c 0,61,62
 307 345 307 345 254.5 315 c 128,-1,63
 202 285 202 285 131 285 c 0,64,65
 81 285 81 285 48 296 c 1,66,67
 41 303 41 303 41 382 c 2,68,-1
 41 400 l 1,69,70
 42 403 42 403 54.5 407 c 128,-1,71
 67 411 67 411 78 411 c 128,-1,72
 89 411 89 411 89 410 c 0,73,74
 89 344 89 344 148 344 c 0,75,76
 189 344 189 344 209.5 362.5 c 128,-1,77
 230 381 230 381 230 407 c 0,78,79
 230 469 230 469 106 469 c 0,80,81
 101 469 101 469 101 471 c 0,82,83
 101 493.857142857 101 493.857142857 108.5 509.928571429 c 128,-1,84
 116 526 116 526 117 526 c 0,85,86
 124 525 124 525 140.5 525 c 128,-1,87
 157 525 157 525 174 534.5 c 0,88,89
 199 548.470588235 199 548.470588235 199 567.735294118 c 128,-1,43
 199 587 199 587 180 596.5 c 128,-1,44
536 146 m 2,90,-1
 596 147 l 1,91,92
 599 221 599 221 599 267 c 128,-1,93
 599 313 599 313 597 313 c 1,94,95
 587.487804878 303.487804878 587.487804878 303.487804878 541.243902439 233.243902439 c 128,-1,96
 495 163 495 163 495 149 c 0,97,98
 495 146 495 146 536 146 c 2,90,-1
EndSplineSet
EndChar

StartChar: dollar
Encoding: 36 36 78
Width: 526
Flags: HMW
HStem: -79 21G -20 21G<113 171> 696 20G<300 306 306 306>
LayerCount: 2
Fore
SplineSet
412 565 m 1,0,-1
 384 566 l 1,1,2
 342 566 342 566 306 561 c 1,3,-1
 305 395 l 1,4,5
 380.709219858 367.960992908 380.709219858 367.960992908 432 333.5 c 0,6,7
 496 290.5 496 290.5 496 216.75 c 128,-1,8
 496 143 496 143 444.5 86.5 c 128,-1,9
 393 30 393 30 305 2 c 1,10,-1
 305 -58 l 1,11,12
 284 -79 284 -79 248 -79 c 2,13,-1
 242 -79 l 1,14,-1
 242 -13 l 1,15,16
 195 -20 195 -20 156.5 -20 c 0,17,18
 79 -20 79 -20 43 -12 c 1,19,20
 30 0 30 0 30 134 c 0,21,22
 30 188 30 188 33 197.5 c 128,-1,23
 36 207 36 207 66 219.5 c 128,-1,24
 96 232 96 232 127 232 c 1,25,26
 130 119 130 119 155 95 c 1,27,28
 165 87 165 87 193 86 c 128,-1,29
 221 85 221 85 242 88 c 1,30,-1
 242 306 l 1,31,32
 116.875 354.125 116.875 354.125 85.5 385.5 c 0,33,34
 44 427 44 427 44 478.5 c 128,-1,35
 44 530 44 530 94 579 c 128,-1,36
 144 628 144 628 242 650 c 1,37,-1
 242 694 l 1,38,39
 265 716 265 716 300 716 c 2,40,-1
 306 716 l 1,41,-1
 306 660 l 1,42,43
 348 665 348 665 387.5 665 c 128,-1,44
 427 665 427 665 430 662 c 128,-1,45
 433 659 433 659 433 649 c 0,46,47
 433 585 433 585 412 565 c 1,0,-1
376 207 m 0,48,49
 376 249 376 249 305 281 c 1,50,-1
 305 105 l 1,51,52
 376 139 376 139 376 207 c 0,48,49
180 480 m 0,53,54
 180 447 180 447 242 420 c 1,55,-1
 242 546 l 1,56,57
 180 525 180 525 180 480 c 0,53,54
EndSplineSet
EndChar

StartChar: threesuperior
Encoding: 179 179 79
Width: 347
Flags: HMW
HStem: 285 59<125.5 172.5> 469 56<125 142> 606 59<120.5 150.5>
LayerCount: 2
Fore
SplineSet
180 596.5 m 128,-1,1
 161 606 161 606 131 606 c 128,-1,2
 101 606 101 606 69 596 c 1,3,4
 66.6559477124 596.831529412 66.6559477124 596.831529412 66.3279738562 623.915764706 c 128,-1,5
 66 651 66 651 74 657 c 1,6,7
 100 665 100 665 141 665 c 0,8,9
 279 665 279 665 279 580 c 0,10,11
 279 552 279 552 261.5 533.5 c 128,-1,12
 244 515 244 515 225 508 c 1,13,-1
 224 506 l 1,14,15
 277.4 488.2 277.4 488.2 298 447 c 0,16,17
 307 429 307 429 307 407 c 0,18,19
 307 345 307 345 254.5 315 c 128,-1,20
 202 285 202 285 131 285 c 0,21,22
 81 285 81 285 48 296 c 1,23,24
 41 303 41 303 41 382 c 2,25,-1
 41 400 l 1,26,27
 42 403 42 403 54.5 407 c 128,-1,28
 67 411 67 411 78 411 c 128,-1,29
 89 411 89 411 89 410 c 0,30,31
 89 344 89 344 148 344 c 0,32,33
 189 344 189 344 209.5 362.5 c 128,-1,34
 230 381 230 381 230 407 c 0,35,36
 230 469 230 469 106 469 c 0,37,38
 101 469 101 469 101 471 c 0,39,40
 101 493.857142857 101 493.857142857 108.5 509.928571429 c 128,-1,41
 116 526 116 526 117 526 c 0,42,43
 124 525 124 525 140.5 525 c 128,-1,44
 157 525 157 525 174 534.5 c 0,45,46
 199 548.470588235 199 548.470588235 199 567.735294118 c 128,-1,0
 199 587 199 587 180 596.5 c 128,-1,1
EndSplineSet
EndChar

StartChar: onesuperior
Encoding: 185 185 80
Width: 237
Flags: HMW
HStem: 290 21G<73 73> 651 20G<162 163 163 163>
LayerCount: 2
Fore
SplineSet
165 635 m 2,0,-1
 162 416 l 2,1,2
 162 357 162 357 165 354 c 1,3,4
 177 355 177 355 185 355 c 128,-1,5
 193 355 193 355 193 354 c 0,6,7
 197 342 197 342 197 320 c 128,-1,8
 197 298 197 298 194 298 c 2,9,-1
 178 298 l 2,10,11
 131 298 131 298 87.5 292 c 2,12,-1
 73 290 l 1,13,14
 70 293 70 293 70 317.5 c 128,-1,15
 70 342 70 342 73 345 c 1,16,-1
 96 349 l 1,17,-1
 95 376 l 1,18,-1
 99 544 l 2,19,20
 99 582 99 582 95 586 c 0,21,22
 95 587 95 587 90.5 587 c 128,-1,23
 86 587 86 587 73.5 584.5 c 2,24,-1
 41 578 l 2,25,26
 40 578 40 578 40 599 c 128,-1,27
 40 620 40 620 45.5 625.5 c 128,-1,28
 51 631 51 631 101.5 651 c 128,-1,29
 152 671 152 671 162 671 c 2,30,-1
 163 671 l 1,31,32
 165 669 165 669 165 635 c 2,0,-1
EndSplineSet
EndChar

StartChar: copyright
Encoding: 169 169 81
Width: 375
Flags: HMW
HStem: 160 32<153 222.5 153 231.5> 230 31<178 205> 376 31<189 205.5 168 207.5> 444 32<153 222.5>
VStem: 30 109<301 342 301 361.5>
LayerCount: 2
Fore
SplineSet
188 444 m 128,-1,1
 136 444 136 444 99 407 c 128,-1,2
 62 370 62 370 62 318 c 128,-1,3
 62 266 62 266 99 229 c 128,-1,4
 136 192 136 192 188 192 c 128,-1,5
 240 192 240 192 277 229 c 128,-1,6
 314 266 314 266 314 318 c 128,-1,7
 314 370 314 370 277 407 c 128,-1,0
 240 444 240 444 188 444 c 128,-1,1
345 318 m 128,-1,9
 345 253 345 253 299 206.5 c 128,-1,10
 253 160 253 160 188 160 c 128,-1,11
 123 160 123 160 76.5 206.5 c 128,-1,12
 30 253 30 253 30 318 c 128,-1,13
 30 383 30 383 76.5 429.5 c 128,-1,14
 123 476 123 476 188 476 c 128,-1,15
 253 476 253 476 299 429.5 c 128,-1,8
 345 383 345 383 345 318 c 128,-1,9
231 239 m 0,16,17
 219 230 219 230 184.5 230 c 128,-1,18
 150 230 150 230 127 255.5 c 128,-1,19
 104 281 104 281 104 318.5 c 128,-1,20
 104 356 104 356 129 381.5 c 128,-1,21
 154 407 154 407 187.5 407 c 128,-1,22
 221 407 221 407 229 399 c 0,23,24
 231 398 231 398 231 384 c 128,-1,25
 231 370 231 370 228.5 370 c 128,-1,26
 226 370 226 370 217.5 373 c 128,-1,27
 209 376 209 376 193 376 c 128,-1,28
 177 376 177 376 158 363 c 128,-1,29
 139 350 139 350 139 321 c 128,-1,30
 139 292 139 292 154.5 276.5 c 128,-1,31
 170 261 170 261 196 261 c 0,32,33
 216 261 216 261 222 264 c 128,-1,34
 228 267 228 267 232 268 c 1,35,36
 235 265 235 265 235 254 c 128,-1,37
 235 243 235 243 231 239 c 0,16,17
EndSplineSet
EndChar

StartChar: trademark
Encoding: 8482 8482 82
Width: 369
Flags: HMW
HStem: 225 21G<80.5 93.5 311.5 319.5> 226 21G<182 188> 385 20G<126 134.5>
LayerCount: 2
Fore
SplineSet
35 401 m 1,0,-1
 131 405 l 1,1,-1
 152 404 l 1,2,3
 152 378 152 378 148 374 c 1,4,5
 131 375 131 375 119.5 375 c 128,-1,6
 108 375 108 375 107 374 c 0,7,8
 106 352 106 352 106 299 c 128,-1,9
 106 246 106 246 113 232 c 1,10,-1
 101.949362417 226.989462463 l 1,11,-1
 84 225 l 1,12,-1
 74 228 l 2,13,14
 73 229 73 229 73 243 c 2,15,-1
 76 362 l 2,16,17
 76 365.867046611 76 365.867046611 75 374 c 1,18,-1
 31 370 l 1,19,-1
 30 377 l 1,20,-1
 35 401 l 1,0,-1
306 226 m 2,21,-1
 307 253 l 1,22,23
 307 335 307 335 303 351 c 1,24,-1
 301 351 l 1,25,26
 293.302631579 337.144736842 293.302631579 337.144736842 275.5 280.5 c 2,27,-1
 270 263 l 1,28,29
 268 260 268 260 259 260 c 128,-1,30
 250 260 250 260 249 261.5 c 128,-1,31
 248 263 248 263 233 305 c 128,-1,32
 218 347 218 347 216 350 c 1,33,-1
 214 350 l 1,34,35
 209 329 209 329 209 293 c 128,-1,36
 209 257 209 257 209.5 244.5 c 2,37,-1
 210 232 l 1,38,39
 204 226 204 226 185 226 c 1,40,-1
 176 227 l 1,41,-1
 186 373 l 1,42,43
 176 385 176 385 176 399 c 1,44,45
 178 401 178 401 203.5 401 c 128,-1,46
 229 401 229 401 230 400 c 128,-1,47
 231 399 231 399 258 322 c 0,48,49
 258 320 258 320 260 322 c 1,50,51
 263 332 263 332 276 364 c 128,-1,52
 289 396 289 396 292 399 c 128,-1,53
 295 402 295 402 317 402 c 128,-1,54
 339 402 339 402 339 401 c 0,55,56
 339 384 339 384 330 372 c 1,57,58
 339 292 339 292 339 231 c 0,59,60
 339 229.615384615 339 229.615384615 329 227.307692308 c 128,-1,61
 319 225 319 225 312.5 225 c 128,-1,62
 306 225 306 225 306 226 c 2,21,-1
EndSplineSet
EndChar

StartChar: questiondown
Encoding: 191 191 83
Width: 396
Flags: HMW
HStem: -238 98<250 298 250 309> 407 20G<246.5 283.5>
VStem: 30 117<-90 -16 -90 -8> 198 113
LayerCount: 2
Fore
SplineSet
283 -238 m 0,0,1
 146 -238 146 -238 88 -191 c 128,-1,2
 30 -144 30 -144 30 -76 c 0,3,4
 30 -19 30 -19 58.5 19 c 0,5,6
 86.5714285714 56.4285714286 86.5714285714 56.4285714286 112.285714286 70.7142857143 c 128,-1,7
 138 85 138 85 150.5 91.5 c 128,-1,8
 163 98 163 98 175.5 102.5 c 128,-1,9
 188 107 188 107 189 108 c 0,10,11
 196 111 196 111 202 149 c 128,-1,12
 208 187 208 187 208 205 c 1,13,14
 213.625 210.625 213.625 210.625 236.3125 216.8125 c 128,-1,15
 259 223 259 223 275.5 223 c 128,-1,16
 292 223 292 223 300 221 c 1,17,18
 311 203 311 203 311 145.5 c 128,-1,19
 311 88 311 88 305 66 c 1,20,21
 147 28 147 28 147 -62 c 0,22,23
 147 -140 147 -140 291 -140 c 0,24,25
 342 -140 342 -140 365 -130 c 1,26,27
 371 -140 371 -140 371 -172.5 c 128,-1,28
 371 -205 371 -205 362 -225 c 1,29,30
 335 -238 335 -238 283 -238 c 0,0,1
332 360 m 128,-1,32
 332 332 332 332 312.5 312.5 c 128,-1,33
 293 293 293 293 265 293 c 128,-1,34
 237 293 237 293 217.5 312.5 c 128,-1,35
 198 332 198 332 198 360 c 128,-1,36
 198 388 198 388 217.5 407.5 c 128,-1,37
 237 427 237 427 265 427 c 128,-1,38
 293 427 293 427 312.5 407.5 c 128,-1,31
 332 388 332 388 332 360 c 128,-1,32
EndSplineSet
EndChar

StartChar: yen
Encoding: 165 165 84
Width: 611
Flags: HMW
HStem: -17 21G<257 309> 199 71<111 236 87 240 361 467> 337 71<111 165 111 210 87 165 426 467> 657 20G<486 518.5>
LayerCount: 2
Fore
SplineSet
233 -9 m 1,0,-1
 232 32 l 1,1,2
 232 99 232 99 236 199 c 1,3,-1
 87 199 l 1,4,5
 87 245 87 245 111 270 c 1,6,-1
 240 270 l 1,7,8
 241 277 241 277 241 287 c 2,9,-1
 241 290 l 1,10,-1
 210 337 l 1,11,-1
 87 337 l 1,12,13
 87 383 87 383 111 408 c 1,14,-1
 165 408 l 1,15,16
 153 428 153 428 138.5 453 c 128,-1,17
 124 478 124 478 115 493 c 128,-1,18
 106 508 106 508 96.5 523.5 c 0,19,20
 77.8607594937 553.911392405 77.8607594937 553.911392405 69.4303797468 560.955696203 c 128,-1,21
 61 568 61 568 41 576 c 128,-1,22
 21 584 21 584 5 584 c 1,23,24
 5 598 5 598 11.5 620.5 c 128,-1,25
 18 643 18 643 21 646 c 0,26,27
 34 659 34 659 149 659 c 0,28,29
 162 659 162 659 164 657 c 128,-1,30
 166 655 166 655 181.5 626 c 0,31,32
 246.643356643 504.118881119 246.643356643 504.118881119 272.821678322 459.059440559 c 128,-1,33
 299 414 299 414 299.5 412.5 c 128,-1,34
 300 411 300 411 303 409.5 c 128,-1,35
 306 408 306 408 308 414 c 0,36,37
 328 455 328 455 389 550 c 128,-1,38
 450 645 450 645 486 677 c 1,39,40
 516 677 516 677 545 669.5 c 128,-1,41
 574 662 574 662 589.5 653.5 c 128,-1,42
 605 645 605 645 604 639 c 1,43,44
 511 537 511 537 426 408 c 1,45,-1
 492 408 l 1,46,47
 492 363 492 363 467 337 c 1,48,-1
 384 337 l 1,49,50
 361 289.5625 361 289.5625 361 270 c 1,51,-1
 492 270 l 1,52,53
 492 225 492 225 467 199 c 1,54,-1
 360 199 l 1,55,56
 360 39 360 39 368 7 c 1,57,58
 368 -17 368 -17 271 -17 c 0,59,60
 247 -17 247 -17 233 -9 c 1,0,-1
EndSplineSet
EndChar

StartChar: Euro
Encoding: 8364 8364 85
Width: 545
Flags: HMW
HStem: -14 96<348.5 396> 224 71<45 94 45 99 20 94 218 393 218 218> 361 71<45 94 20 99 218 393> 574 96<348.5 396 292 457.5>
LayerCount: 2
Fore
SplineSet
421 82 m 0,0,1
 481.4 82 481.4 82 521 93 c 1,2,-1
 525 65 l 1,3,4
 525 19.375 525 19.375 508 -4 c 1,5,6
 502 -10 502 -10 422.5 -13 c 2,7,-1
 396 -14 l 1,8,9
 245 -14 245 -14 178.5 44 c 128,-1,10
 112 102 112 102 99 224 c 1,11,-1
 20 224 l 1,12,13
 20 270 20 270 45 295 c 1,14,-1
 94 295 l 1,15,-1
 94 361 l 1,16,-1
 20 361 l 1,17,18
 20 407 20 407 45 432 c 1,19,-1
 99 432 l 1,20,21
 114 553 114 553 180.5 611.5 c 128,-1,22
 247 670 247 670 396 670 c 1,23,24
 502 666 502 666 508 660 c 0,25,26
 525 644 525 644 525 591 c 0,27,28
 525 571 525 571 521 563 c 1,29,30
 494 574 494 574 421 574 c 0,31,32
 315 574 315 574 271.5 541.5 c 128,-1,33
 228 509 228 509 218 432 c 1,34,-1
 418 432 l 1,35,36
 418 387 418 387 393 361 c 1,37,-1
 213 361 l 1,38,-1
 213 295 l 1,39,-1
 418 295 l 1,40,41
 418 250 418 250 393 224 c 1,42,-1
 218 224 l 1,43,44
 228 147 228 147 271.5 114.5 c 128,-1,45
 315 82 315 82 421 82 c 0,0,1
EndSplineSet
EndChar

StartChar: apple
Encoding: 63743 63743 86
Width: 695
Flags: HMW
HStem: -107 50<268.5 432 268.5 441> 12 50<322.5 371.5 322.5 376> 421 49<322.5 367.5> 539 49<261 425.5>
VStem: 0 50<156.5 317.5 156.5 340.5> 201 60<353.5 378 353.5 399> 441 63<107.5 142.5> 645 50<161 326.5>
LayerCount: 2
Fore
SplineSet
477 718 m 1,0,-1
 378 625 l 1,1,2
 364 628 364 628 348.75 628 c 128,-1,3
 333.5 628 333.5 628 317 625 c 1,4,-1
 218 718 l 1,5,-1
 283 718 l 1,6,-1
 346 651 l 1,7,-1
 411 718 l 1,8,-1
 477 718 l 1,0,-1
593.5 485.5 m 128,-1,10
 695 383 695 383 695 239.5 c 128,-1,11
 695 96 695 96 592 -5.5 c 128,-1,12
 489 -107 489 -107 348 -107 c 0,13,14
 250 -107 250 -107 169 -57.5 c 128,-1,15
 88 -8 88 -8 44 71.5 c 128,-1,16
 0 151 0 151 0 241 c 0,17,18
 0 388 0 388 103.5 488 c 128,-1,19
 207 588 207 588 349.5 588 c 128,-1,9
 492 588 492 588 593.5 485.5 c 128,-1,10
559 31.5 m 128,-1,21
 645 120 645 120 645 243.5 c 128,-1,22
 645 367 645 367 556 453 c 128,-1,23
 467 539 467 539 344 539 c 128,-1,24
 221 539 221 539 135.5 449 c 128,-1,25
 50 359 50 359 50 237.5 c 128,-1,26
 50 116 50 116 138.5 29.5 c 128,-1,27
 227 -57 227 -57 350 -57 c 128,-1,20
 473 -57 473 -57 559 31.5 c 128,-1,21
504 131 m 0,28,29
 504 72 504 72 454 42 c 128,-1,30
 404 12 404 12 341.5 12 c 128,-1,31
 279 12 279 12 191 55 c 1,32,-1
 201 107 l 1,33,34
 273 62 273 62 342 62 c 0,35,36
 386 62 386 62 413.5 80 c 128,-1,37
 441 98 441 98 441 130.5 c 0,38,39
 441 170.839285714 441 170.839285714 338 220.5 c 0,40,41
 236.056338028 269.651408451 236.056338028 269.651408451 213 310 c 0,42,43
 201 331 201 331 201 356 c 0,44,45
 201 415 201 415 245.5 442.5 c 128,-1,46
 290 470 290 470 345 470 c 0,47,48
 394.5 470 394.5 470 450.5 438 c 0,49,50
 475 424 475 424 479 422 c 1,51,-1
 466 375 l 1,52,53
 414 421 414 421 349 421 c 0,54,55
 310 421 310 421 285.5 404 c 128,-1,56
 261 387 261 387 261 362.75 c 128,-1,57
 261 338.5 261 338.5 281.5 319.75 c 128,-1,58
 302 301 302 301 345 280.5 c 128,-1,59
 388 260 388 260 420.5 246 c 128,-1,60
 453 232 453 232 478.5 202.5 c 128,-1,61
 504 173 504 173 504 131 c 0,28,29
EndSplineSet
EndChar

StartChar: exclamdown
Encoding: 161 161 87
Width: 215
Flags: HMW
HStem: -242 21G<84 109> 408 20G<89.5 126.5>
LayerCount: 2
Fore
SplineSet
111 225 m 1,0,-1
 152 220 l 1,1,2
 152 125 152 125 160 13 c 128,-1,3
 168 -99 168 -99 176.5 -163.5 c 2,4,-1
 185 -228 l 1,5,6
 175 -238 175 -238 125.5 -241 c 2,7,-1
 109 -242 l 1,8,9
 55 -242 55 -242 34 -228 c 0,10,11
 31 -226 31 -226 31 -224 c 2,12,-1
 35 -205.5 l 2,13,14
 53 -122.25 53 -122.25 53 -93.125 c 128,-1,15
 53 -64 53 -64 60 59.5 c 128,-1,16
 67 183 67 183 70 217 c 1,17,18
 89 225 89 225 111 225 c 1,0,-1
41 361 m 128,-1,20
 41 389 41 389 60.5 408.5 c 128,-1,21
 80 428 80 428 108 428 c 128,-1,22
 136 428 136 428 155.5 408.5 c 128,-1,23
 175 389 175 389 175 361 c 128,-1,24
 175 333 175 333 155.5 313.5 c 128,-1,25
 136 294 136 294 108 294 c 128,-1,26
 80 294 80 294 60.5 313.5 c 128,-1,19
 41 333 41 333 41 361 c 128,-1,20
EndSplineSet
EndChar

StartChar: plus
Encoding: 43 43 88
Width: 540
Flags: HMW
HStem: 91 21G<268.5 286.5> 292 77<41 231 41 231 39 231 309 500> 550 20G<256.5 277>
LayerCount: 2
Fore
SplineSet
39 292 m 1,0,1
 30 302 30 302 30 330 c 128,-1,2
 30 358 30 358 41 369 c 1,3,-1
 231 369 l 1,4,-1
 231 562 l 1,5,6
 243 570 243 570 270 570 c 128,-1,7
 297 570 297 570 309 561 c 1,8,-1
 309 369 l 1,9,-1
 502 369 l 1,10,11
 510 358 510 358 510 330 c 128,-1,12
 510 302 510 302 500 292 c 1,13,-1
 309 292 l 1,14,-1
 309 100 l 1,15,16
 298 91 298 91 270 91 c 128,-1,17
 242 91 242 91 231 102 c 1,18,-1
 231 292 l 1,19,-1
 39 292 l 1,0,1
EndSplineSet
EndChar

StartChar: eth
Encoding: 240 240 89
Width: 497
Flags: HMW
HStem: -36 21G<335 358> -19 21G<127 192.5> 694 20G<234.5 241>
VStem: 30 119<162.5 221 162.5 223.5> 304 106
LayerCount: 2
Fore
SplineSet
387 628 m 1,0,-1
 444 662 l 1,1,2
 462 642 462 642 462 620 c 0,3,4
 462 613 462 613 461 610 c 1,5,-1
 404 576 l 1,6,7
 410 549 410 549 410 516 c 2,8,-1
 410 419 l 2,9,10
 410 139 410 139 417 90 c 128,-1,11
 424 41 424 41 448 17 c 1,12,13
 448 7 448 7 407 -14.5 c 128,-1,14
 366 -36 366 -36 337 -36 c 0,15,16
 327.073170732 -36 327.073170732 -36 316.536585366 -9 c 128,-1,17
 306 18 306 18 304 46 c 1,18,-1
 300 46 l 1,19,20
 258 -19 258 -19 175 -19 c 0,21,22
 108 -19 108 -19 69 34 c 128,-1,23
 30 87 30 87 30 153 c 0,24,25
 30 266 30 266 99 344.5 c 128,-1,26
 168 423 168 423 300 429 c 1,27,28
 301 450 301 450 301 508 c 2,29,-1
 301 514 l 1,30,-1
 233 473 l 1,31,32
 215 492 215 492 215 515 c 0,33,34
 215 522 215 522 216 525 c 1,35,-1
 295 572 l 1,36,37
 282 642 282 642 207 672 c 1,38,39
 228 714 228 714 241 714 c 1,40,41
 274 709 274 709 295 703 c 128,-1,42
 316 697 316 697 344 678 c 128,-1,43
 372 659 372 659 387 628 c 1,0,-1
299 177 m 0,44,45
 299 300 299 300 302 323 c 1,46,-1
 287 326 l 1,47,48
 222 326 222 326 185.5 284.5 c 128,-1,49
 149 243 149 243 149 181 c 0,50,51
 149 150 149 150 167 124 c 128,-1,52
 185 98 185 98 220.5 98 c 128,-1,53
 256 98 256 98 277.5 128.5 c 128,-1,54
 299 159 299 159 299 177 c 0,44,45
EndSplineSet
EndChar

StartChar: percent
Encoding: 37 37 90
Width: 619
Flags: HMW
HStem: -18 21G<103 120.5> -7 58<441 479 441 488.5> 240 60<443.5 477> 360 58<139 177 139 186> 607 60<141.5 174.5> 648 20G<494.5 512.5>
LayerCount: 2
Fore
SplineSet
555 250 m 128,-1,1
 589 200 589 200 589 130.5 c 128,-1,2
 589 61 589 61 550.5 27 c 128,-1,3
 512 -7 512 -7 460 -7 c 0,4,5
 332 -7 332 -7 332 139 c 0,6,7
 332 200 332 200 366 250 c 128,-1,8
 400 300 400 300 460.5 300 c 128,-1,0
 521 300 521 300 555 250 c 128,-1,1
252 617 m 128,-1,10
 286 567 286 567 286 498 c 128,-1,11
 286 429 286 429 247.5 394.5 c 128,-1,12
 209 360 209 360 158 360 c 0,13,14
 30 360 30 360 30 506 c 0,15,16
 30 568 30 568 63.5 617.5 c 128,-1,17
 97 667 97 667 157.5 667 c 128,-1,9
 218 667 218 667 252 617 c 128,-1,10
59 1 m 1,18,-1
 482 666 l 1,19,20
 492 668 492 668 501.5 668 c 0,21,22
 522.222222222 668 522.222222222 668 556 649 c 1,23,-1
 133 -16 l 1,24,25
 123 -18 123 -18 114 -18 c 128,-1,26
 105 -18 105 -18 90 -13.5 c 128,-1,27
 75 -9 75 -9 59 1 c 1,18,-1
460 51 m 0,28,29
 489 51 489 51 505 73 c 128,-1,30
 521 95 521 95 521 139 c 128,-1,31
 521 183 521 183 503.5 211.5 c 128,-1,32
 486 240 486 240 460.5 240 c 128,-1,33
 435 240 435 240 417.5 211.5 c 128,-1,34
 400 183 400 183 400 137 c 0,35,36
 400 51 400 51 460 51 c 0,28,29
158 418 m 128,-1,38
 218 418 218 418 218 504 c 0,39,40
 218 550 218 550 200.5 578.5 c 128,-1,41
 183 607 183 607 158 607 c 128,-1,42
 133 607 133 607 115.5 578.5 c 128,-1,43
 98 550 98 550 98 504 c 0,44,37
 98 418 98 418 158 418 c 128,-1,38
EndSplineSet
EndChar

StartChar: perthousand
Encoding: 8240 8240 91
Width: 909
Flags: HMW
HStem: -18 21G<103 120.5> -7 58<441 479 441 488.5 731 769> 240 60<443.5 477 733.5 767> 360 58<139 177 139 186> 607 60<141.5 174.5> 648 20G<494.5 512.5>
VStem: 521 169<109 168.5>
LayerCount: 2
Fore
SplineSet
845 250 m 128,-1,1
 879 200 879 200 879 130.5 c 128,-1,2
 879 61 879 61 840.5 27 c 128,-1,3
 802 -7 802 -7 750 -7 c 0,4,5
 622 -7 622 -7 622 139 c 0,6,7
 622 200 622 200 656 250 c 128,-1,8
 690 300 690 300 750.5 300 c 128,-1,0
 811 300 811 300 845 250 c 128,-1,1
555 250 m 128,-1,10
 589 200 589 200 589 130.5 c 128,-1,11
 589 61 589 61 550.5 27 c 128,-1,12
 512 -7 512 -7 460 -7 c 0,13,14
 332 -7 332 -7 332 139 c 0,15,16
 332 200 332 200 366 250 c 128,-1,17
 400 300 400 300 460.5 300 c 128,-1,9
 521 300 521 300 555 250 c 128,-1,10
252 617 m 128,-1,19
 286 567 286 567 286 498 c 128,-1,20
 286 429 286 429 247.5 394.5 c 128,-1,21
 209 360 209 360 158 360 c 0,22,23
 30 360 30 360 30 506 c 0,24,25
 30 568 30 568 63.5 617.5 c 128,-1,26
 97 667 97 667 157.5 667 c 128,-1,18
 218 667 218 667 252 617 c 128,-1,19
59 1 m 1,27,-1
 482 666 l 1,28,29
 492 668 492 668 501.5 668 c 0,30,31
 522.222222222 668 522.222222222 668 556 649 c 1,32,-1
 133 -16 l 1,33,34
 123 -18 123 -18 114 -18 c 128,-1,35
 105 -18 105 -18 90 -13.5 c 128,-1,36
 75 -9 75 -9 59 1 c 1,27,-1
750 51 m 0,37,38
 779 51 779 51 795 73 c 128,-1,39
 811 95 811 95 811 139 c 128,-1,40
 811 183 811 183 793.5 211.5 c 128,-1,41
 776 240 776 240 750.5 240 c 128,-1,42
 725 240 725 240 707.5 211.5 c 128,-1,43
 690 183 690 183 690 137 c 0,44,45
 690 51 690 51 750 51 c 0,37,38
460 51 m 0,46,47
 489 51 489 51 505 73 c 128,-1,48
 521 95 521 95 521 139 c 128,-1,49
 521 183 521 183 503.5 211.5 c 128,-1,50
 486 240 486 240 460.5 240 c 128,-1,51
 435 240 435 240 417.5 211.5 c 128,-1,52
 400 183 400 183 400 137 c 0,53,54
 400 51 400 51 460 51 c 0,46,47
158 418 m 128,-1,56
 218 418 218 418 218 504 c 0,57,58
 218 550 218 550 200.5 578.5 c 128,-1,59
 183 607 183 607 158 607 c 128,-1,60
 133 607 133 607 115.5 578.5 c 128,-1,61
 98 550 98 550 98 504 c 0,62,55
 98 418 98 418 158 418 c 128,-1,56
EndSplineSet
EndChar

StartChar: asterisk
Encoding: 42 42 92
Width: 249
Flags: HMW
HStem: 471 21G<116.5 129> 672 20G<124 134>
LayerCount: 2
Fore
SplineSet
144 547 m 1,0,-1
 147 477 l 1,1,2
 141 471 141 471 125 471 c 1,3,-1
 101 474 l 1,4,-1
 106 547 l 1,5,-1
 45 509 l 1,6,7
 38 510 38 510 29 526 c 1,8,-1
 20 548 l 1,9,-1
 86 581 l 1,10,-1
 22 614 l 1,11,12
 22 626 22 626 28 636 c 1,13,-1
 43 655 l 1,14,-1
 106 614 l 1,15,-1
 101 687 l 1,16,17
 108 692 108 692 128 692 c 1,18,-1
 147 689 l 1,19,-1
 144 615 l 1,20,-1
 204 654 l 1,21,22
 212 651 212 651 222 633 c 1,23,-1
 229 615 l 1,24,-1
 163 581 l 1,25,-1
 227 549 l 1,26,27
 227 539 227 539 218 523 c 1,28,-1
 206 508 l 1,29,-1
 144 547 l 1,0,-1
EndSplineSet
EndChar

StartChar: acute
Encoding: 180 180 93
Width: 484
Flags: HMW
HStem: 488 21G<231.5 238> 599 20G<276 286.5>
LayerCount: 2
Fore
SplineSet
238 488 m 1,0,1
 229 488 229 488 216.5 499 c 128,-1,2
 204 510 204 510 202 519 c 1,3,4
 202 532 202 532 229.5 570 c 128,-1,5
 257 608 257 608 276 619 c 1,6,7
 292 619 292 619 314.5 602.5 c 128,-1,8
 337 586 337 586 337 574 c 1,9,10
 317 562 317 562 282.5 531 c 128,-1,11
 248 500 248 500 238 488 c 1,0,1
EndSplineSet
EndChar

StartChar: aacute
Encoding: 225 225 94
Width: 459
Flags: HMW
HStem: -57 21G<331 356.5> -22 21G<125 207> 358 94<161 197.5> 599 20G<259 269.5>
VStem: 25 123<116.5 165 116.5 197.5> 296 111<159 223 198 203>
LayerCount: 2
Fore
SplineSet
407 223 m 2,0,1
 407 98 407 98 410 77 c 0,2,3
 418 22 418 22 444 -2 c 1,4,5
 444 -13 444 -13 404.5 -35 c 128,-1,6
 365 -57 365 -57 333 -57 c 0,7,8
 323.526315789 -57 323.526315789 -57 313.763157895 -30.5 c 128,-1,9
 304 -4 304 -4 302.5 9 c 128,-1,10
 301 22 301 22 300 22 c 2,11,-1
 297 20 l 1,12,13
 244 -22 244 -22 173 -22 c 128,-1,14
 102 -22 102 -22 63.5 12.5 c 128,-1,15
 25 47 25 47 25 103 c 128,-1,16
 25 159 25 159 49.5 197.5 c 128,-1,17
 74 236 74 236 107 256 c 128,-1,18
 140 276 140 276 179.5 288.5 c 0,19,20
 241.12 308 241.12 308 276 308 c 1,21,-1
 278 309 l 1,22,23
 278 358 278 358 154 358 c 0,24,25
 105 358 105 358 81 354 c 1,26,-1
 80 354 l 1,27,28
 80 374 80 374 92.5 404 c 128,-1,29
 105 434 105 434 113.5 443 c 128,-1,30
 122 452 122 452 185 452 c 0,31,32
 299 452 299 452 353 408.5 c 128,-1,33
 407 365 407 365 407 274 c 2,34,-1
 407 223 l 2,0,1
296 159 m 2,35,-1
 296 197 l 2,36,37
 296 219 296 219 295 219 c 0,38,39
 228.318181818 219 228.318181818 219 179 184 c 0,40,41
 148 162 148 162 148 129 c 0,42,43
 148 108 148 108 163 94 c 128,-1,44
 178 80 178 80 208.5 80 c 128,-1,45
 239 80 239 80 267.5 98 c 128,-1,46
 296 116 296 116 296 159 c 2,35,-1
221 488 m 1,47,48
 212 488 212 488 199.5 499 c 128,-1,49
 187 510 187 510 185 519 c 1,50,51
 185 532 185 532 212.5 570 c 128,-1,52
 240 608 240 608 259 619 c 1,53,54
 275 619 275 619 297.5 602.5 c 128,-1,55
 320 586 320 586 320 574 c 1,56,57
 300 562 300 562 265.5 531 c 128,-1,58
 231 500 231 500 221 488 c 1,47,48
EndSplineSet
EndChar

StartChar: parenleft
Encoding: 40 40 95
Width: 290
Flags: HMW
HStem: -98 21G<233.5 252.5> 727 20G<233.5 252.5>
VStem: 30 105<198.5 449 198.5 460.5>
LayerCount: 2
Fore
SplineSet
135 324 m 128,-1,1
 135 237 135 237 153.5 158.5 c 128,-1,2
 172 80 172 80 200.5 28 c 0,3,4
 249.617021277 -61.6170212766 249.617021277 -61.6170212766 279 -91 c 0,5,6
 281 -94 281 -94 276 -96 c 1,7,8
 264 -98 264 -98 230 -98 c 128,-1,9
 196 -98 196 -98 189 -95.5 c 128,-1,10
 182 -93 182 -93 166.5 -76.5 c 128,-1,11
 151 -60 151 -60 127.5 -23.5 c 128,-1,12
 104 13 104 13 82.5 59.5 c 128,-1,13
 61 106 61 106 45.5 177 c 128,-1,14
 30 248 30 248 30 324.5 c 128,-1,15
 30 401 30 401 45.5 471.5 c 128,-1,16
 61 542 61 542 82.5 589 c 128,-1,17
 104 636 104 636 127.5 672.5 c 128,-1,18
 151 709 151 709 166.5 725.5 c 128,-1,19
 182 742 182 742 189 744.5 c 128,-1,20
 196 747 196 747 230 747 c 128,-1,21
 264 747 264 747 276 745 c 1,22,23
 281 743 281 743 279 740 c 0,24,25
 245 703.571428571 245 703.571428571 208.5 635.785714286 c 128,-1,26
 172 568 172 568 153.5 489.5 c 128,-1,0
 135 411 135 411 135 324 c 128,-1,1
EndSplineSet
EndChar

StartChar: twosuperior
Encoding: 178 178 96
Width: 307
Flags: HMW
HStem: 295 21G<180 207> 296 21G<27 29 27 27> 298 58<72 177> 610 55<122 160.5>
LayerCount: 2
Fore
SplineSet
122 360 m 1,0,1
 122 356 122 356 134.875 356 c 2,2,-1
 154 356 l 2,3,4
 245 356 245 356 280 367 c 1,5,-1
 281 367 l 2,6,7
 282 367 282 367 282 359.5 c 128,-1,8
 282 352 282 352 276.5 329.5 c 128,-1,9
 271 307 271 307 265 301 c 128,-1,10
 259 295 259 295 189 295 c 1,11,-1
 89 298 l 1,12,-1
 29 296 l 1,13,-1
 27 296 l 1,14,15
 25 298 25 298 25 326 c 128,-1,16
 25 354 25 354 30 359 c 0,17,18
 91.0188679245 414.20754717 91.0188679245 414.20754717 146.009433962 483.103773585 c 128,-1,19
 201 552 201 552 201 576 c 0,20,21
 201 610 201 610 149 610 c 0,22,23
 123 610 123 610 107 597.5 c 128,-1,24
 91 585 91 585 86 572 c 128,-1,25
 81 559 81 559 76 536 c 0,26,27
 75 535 75 535 57 535 c 128,-1,28
 39 535 39 535 31 543 c 0,29,30
 30 544 30 544 30 592 c 128,-1,31
 30 640 30 640 33.5 643.5 c 128,-1,32
 37 647 37 647 53.5 652 c 0,33,34
 96.4 665 96.4 665 153.7 665 c 128,-1,35
 211 665 211 665 244.5 642 c 128,-1,36
 278 619 278 619 278 583 c 0,37,38
 278 522 278 522 122 360 c 1,0,1
EndSplineSet
EndChar

StartChar: parenright
Encoding: 41 41 97
Width: 290
Flags: HMW
HStem: -98 21G<38.5 57.5> 727 20G<38.5 57.5>
VStem: 155 105<198.5 449>
LayerCount: 2
Fore
SplineSet
155 324 m 128,-1,1
 155 411 155 411 136.5 489 c 128,-1,2
 118 567 118 567 89.5 620 c 0,3,4
 42.4203539823 707.551622419 42.4203539823 707.551622419 12 740 c 0,5,6
 9 743 9 743 14 745 c 1,7,8
 26 747 26 747 60.5 747 c 128,-1,9
 95 747 95 747 102 744 c 128,-1,10
 109 741 109 741 124 725 c 128,-1,11
 139 709 139 709 162.5 672.5 c 128,-1,12
 186 636 186 636 207.5 589 c 128,-1,13
 229 542 229 542 244.5 471.5 c 128,-1,14
 260 401 260 401 260 324.5 c 128,-1,15
 260 248 260 248 244.5 177 c 128,-1,16
 229 106 229 106 207.5 59.5 c 128,-1,17
 186 13 186 13 162.5 -23.5 c 128,-1,18
 139 -60 139 -60 124 -76 c 128,-1,19
 109 -92 109 -92 102 -95 c 128,-1,20
 95 -98 95 -98 60.5 -98 c 128,-1,21
 26 -98 26 -98 14 -96 c 1,22,23
 7 -96 7 -96 12 -91 c 0,24,25
 46.5893719807 -51.7987117552 46.5893719807 -51.7987117552 82.2946859903 14.6006441224 c 128,-1,26
 118 81 118 81 136.5 159 c 128,-1,0
 155 237 155 237 155 324 c 128,-1,1
EndSplineSet
EndChar

StartChar: grave
Encoding: 96 96 98
Width: 484
Flags: HMW
HStem: 488 21G<266 272.5> 599 20G<217.5 228>
LayerCount: 2
Fore
SplineSet
266 488 m 1,0,1
 256 500 256 500 221.5 531 c 128,-1,2
 187 562 187 562 167 574 c 1,3,4
 167 586 167 586 189.5 602.5 c 128,-1,5
 212 619 212 619 228 619 c 1,6,7
 247 608 247 608 274.5 570 c 128,-1,8
 302 532 302 532 302 519 c 1,9,10
 300 510 300 510 287.5 499 c 128,-1,11
 275 488 275 488 266 488 c 1,0,1
EndSplineSet
EndChar

StartChar: agrave
Encoding: 224 224 99
Width: 459
Flags: HMW
HStem: -57 21G<331 356.5> -22 21G<125 207> 358 94<161 197.5> 599 20G<212.5 223>
VStem: 25 123<116.5 165 116.5 197.5> 296 111<159 223 198 203>
LayerCount: 2
Fore
SplineSet
407 223 m 2,0,1
 407 98 407 98 410 77 c 0,2,3
 418 22 418 22 444 -2 c 1,4,5
 444 -13 444 -13 404.5 -35 c 128,-1,6
 365 -57 365 -57 333 -57 c 0,7,8
 323.526315789 -57 323.526315789 -57 313.763157895 -30.5 c 128,-1,9
 304 -4 304 -4 302.5 9 c 128,-1,10
 301 22 301 22 300 22 c 2,11,-1
 297 20 l 1,12,13
 244 -22 244 -22 173 -22 c 128,-1,14
 102 -22 102 -22 63.5 12.5 c 128,-1,15
 25 47 25 47 25 103 c 128,-1,16
 25 159 25 159 49.5 197.5 c 128,-1,17
 74 236 74 236 107 256 c 128,-1,18
 140 276 140 276 179.5 288.5 c 0,19,20
 241.12 308 241.12 308 276 308 c 1,21,-1
 278 309 l 1,22,23
 278 358 278 358 154 358 c 0,24,25
 105 358 105 358 81 354 c 1,26,-1
 80 354 l 1,27,28
 80 374 80 374 92.5 404 c 128,-1,29
 105 434 105 434 113.5 443 c 128,-1,30
 122 452 122 452 185 452 c 0,31,32
 299 452 299 452 353 408.5 c 128,-1,33
 407 365 407 365 407 274 c 2,34,-1
 407 223 l 2,0,1
296 159 m 2,35,-1
 296 197 l 2,36,37
 296 219 296 219 295 219 c 0,38,39
 228.318181818 219 228.318181818 219 179 184 c 0,40,41
 148 162 148 162 148 129 c 0,42,43
 148 108 148 108 163 94 c 128,-1,44
 178 80 178 80 208.5 80 c 128,-1,45
 239 80 239 80 267.5 98 c 128,-1,46
 296 116 296 116 296 159 c 2,35,-1
261 488 m 1,47,48
 251 500 251 500 216.5 531 c 128,-1,49
 182 562 182 562 162 574 c 1,50,51
 162 586 162 586 184.5 602.5 c 128,-1,52
 207 619 207 619 223 619 c 1,53,54
 242 608 242 608 269.5 570 c 128,-1,55
 297 532 297 532 297 519 c 1,56,57
 295 510 295 510 282.5 499 c 128,-1,58
 270 488 270 488 261 488 c 1,47,48
EndSplineSet
EndChar

StartChar: eacute
Encoding: 233 233 100
Width: 423
Flags: HMW
HStem: -23 21G<167 285.5> 347 90<223 257.5> 599 20G<256 266.5>
LayerCount: 2
Fore
SplineSet
218 488 m 1,0,1
 209 488 209 488 196.5 499 c 128,-1,2
 184 510 184 510 182 519 c 1,3,4
 182 532 182 532 209.5 570 c 128,-1,5
 237 608 237 608 256 619 c 1,6,7
 272 619 272 619 294.5 602.5 c 128,-1,8
 317 586 317 586 317 574 c 1,9,10
 297 562 297 562 262.5 531 c 128,-1,11
 228 500 228 500 218 488 c 1,0,1
281 318 m 0,12,13
 281 347 281 347 250 347 c 0,14,15
 209 347 209 347 178 305 c 128,-1,16
 147 263 147 263 147 204 c 0,17,18
 147 190 147 190 151 190 c 0,19,20
 187 191 187 191 234 231.5 c 128,-1,21
 281 272 281 272 281 318 c 0,12,13
368 0 m 1,22,23
 334 -23 334 -23 235 -23 c 128,-1,24
 136 -23 136 -23 83 36 c 128,-1,25
 30 95 30 95 30 193.5 c 128,-1,26
 30 292 30 292 93.5 364.5 c 128,-1,27
 157 437 157 437 272 437 c 0,28,29
 319 437 319 437 358.5 412 c 128,-1,30
 398 387 398 387 398 324.5 c 128,-1,31
 398 262 398 262 343.5 201 c 128,-1,32
 289 140 289 140 195 108 c 1,33,34
 195 96.4 195 96.4 219.5 88.7 c 128,-1,35
 244 81 244 81 268 81 c 0,36,37
 344 81 344 81 388 108 c 0,38,39
 389 109 389 109 391 109 c 128,-1,40
 393 109 393 109 393 90 c 0,41,42
 393 32 393 32 368 0 c 1,22,23
EndSplineSet
EndChar

StartChar: egrave
Encoding: 232 232 101
Width: 423
Flags: HMW
HStem: -23 21G<167 285.5> 347 90<223 257.5> 591 20G<216.5 227>
LayerCount: 2
Fore
SplineSet
265 480 m 1,0,1
 255 492 255 492 220.5 523 c 128,-1,2
 186 554 186 554 166 566 c 1,3,4
 166 578 166 578 188.5 594.5 c 128,-1,5
 211 611 211 611 227 611 c 1,6,7
 246 600 246 600 273.5 562 c 128,-1,8
 301 524 301 524 301 511 c 1,9,10
 299 502 299 502 286.5 491 c 128,-1,11
 274 480 274 480 265 480 c 1,0,1
281 318 m 0,12,13
 281 347 281 347 250 347 c 0,14,15
 209 347 209 347 178 305 c 128,-1,16
 147 263 147 263 147 204 c 0,17,18
 147 190 147 190 151 190 c 0,19,20
 187 191 187 191 234 231.5 c 128,-1,21
 281 272 281 272 281 318 c 0,12,13
368 0 m 1,22,23
 334 -23 334 -23 235 -23 c 128,-1,24
 136 -23 136 -23 83 36 c 128,-1,25
 30 95 30 95 30 193.5 c 128,-1,26
 30 292 30 292 93.5 364.5 c 128,-1,27
 157 437 157 437 272 437 c 0,28,29
 319 437 319 437 358.5 412 c 128,-1,30
 398 387 398 387 398 324.5 c 128,-1,31
 398 262 398 262 343.5 201 c 128,-1,32
 289 140 289 140 195 108 c 1,33,34
 195 96.4 195 96.4 219.5 88.7 c 128,-1,35
 244 81 244 81 268 81 c 0,36,37
 344 81 344 81 388 108 c 0,38,39
 389 109 389 109 391 109 c 128,-1,40
 393 109 393 109 393 90 c 0,41,42
 393 32 393 32 368 0 c 1,22,23
EndSplineSet
EndChar

StartChar: circumflex
Encoding: 710 710 102
Width: 484
Flags: HMW
HStem: 488 21G<161.5 168 311 317.5> 599 20G<205 209.5 269.5 274>
LayerCount: 2
Fore
SplineSet
240 554 m 1,0,1
 231 549 231 549 203 523 c 128,-1,2
 175 497 175 497 168 488 c 1,3,4
 159 488 159 488 146 499 c 128,-1,5
 133 510 133 510 131 519 c 1,6,7
 131 532 131 532 158.5 570 c 128,-1,8
 186 608 186 608 205 619 c 1,9,10
 220 619 220 619 240 606 c 1,11,12
 260 619 260 619 274 619 c 1,13,14
 293 608 293 608 320.5 570 c 128,-1,15
 348 532 348 532 348 519 c 1,16,17
 346 510 346 510 333 499 c 128,-1,18
 320 488 320 488 311 488 c 1,19,20
 306 495 306 495 277 522 c 128,-1,21
 248 549 248 549 240 554 c 1,0,1
EndSplineSet
EndChar

StartChar: acircumflex
Encoding: 226 226 103
Width: 459
Flags: HMW
HStem: -57 21G<331 356.5> -22 21G<125 207> 358 94<161 197.5> 599 20G<195 199.5 259.5 264>
VStem: 25 123<116.5 165 116.5 197.5> 296 111<159 223 198 203>
LayerCount: 2
Fore
SplineSet
407 223 m 2,0,1
 407 98 407 98 410 77 c 0,2,3
 418 22 418 22 444 -2 c 1,4,5
 444 -13 444 -13 404.5 -35 c 128,-1,6
 365 -57 365 -57 333 -57 c 0,7,8
 323.526315789 -57 323.526315789 -57 313.763157895 -30.5 c 128,-1,9
 304 -4 304 -4 302.5 9 c 128,-1,10
 301 22 301 22 300 22 c 2,11,-1
 297 20 l 1,12,13
 244 -22 244 -22 173 -22 c 128,-1,14
 102 -22 102 -22 63.5 12.5 c 128,-1,15
 25 47 25 47 25 103 c 128,-1,16
 25 159 25 159 49.5 197.5 c 128,-1,17
 74 236 74 236 107 256 c 128,-1,18
 140 276 140 276 179.5 288.5 c 0,19,20
 241.12 308 241.12 308 276 308 c 1,21,-1
 278 309 l 1,22,23
 278 358 278 358 154 358 c 0,24,25
 105 358 105 358 81 354 c 1,26,-1
 80 354 l 1,27,28
 80 374 80 374 92.5 404 c 128,-1,29
 105 434 105 434 113.5 443 c 128,-1,30
 122 452 122 452 185 452 c 0,31,32
 299 452 299 452 353 408.5 c 128,-1,33
 407 365 407 365 407 274 c 2,34,-1
 407 223 l 2,0,1
230 554 m 1,35,36
 221 549 221 549 193 523 c 128,-1,37
 165 497 165 497 158 488 c 1,38,39
 149 488 149 488 136 499 c 128,-1,40
 123 510 123 510 121 519 c 1,41,42
 121 532 121 532 148.5 570 c 128,-1,43
 176 608 176 608 195 619 c 1,44,45
 210 619 210 619 230 606 c 1,46,47
 249 619 249 619 264 619 c 1,48,49
 283 608 283 608 310.5 570 c 128,-1,50
 338 532 338 532 338 519 c 1,51,52
 336 510 336 510 323 499 c 128,-1,53
 310 488 310 488 301 488 c 1,54,55
 296 495 296 495 267 522 c 128,-1,56
 238 549 238 549 230 554 c 1,35,36
296 159 m 2,57,-1
 296 197 l 2,58,59
 296 219 296 219 295 219 c 0,60,61
 228.318181818 219 228.318181818 219 179 184 c 0,62,63
 148 162 148 162 148 129 c 0,64,65
 148 108 148 108 163 94 c 128,-1,66
 178 80 178 80 208.5 80 c 128,-1,67
 239 80 239 80 267.5 98 c 128,-1,68
 296 116 296 116 296 159 c 2,57,-1
EndSplineSet
EndChar

StartChar: ecircumflex
Encoding: 234 234 104
Width: 423
Flags: HMW
HStem: -23 21G<167 285.5> 347 90<223 257.5> 595 20G<206 210.5 270.5 275>
LayerCount: 2
Fore
SplineSet
241 550 m 1,0,1
 232 545 232 545 204 519 c 128,-1,2
 176 493 176 493 169 484 c 1,3,4
 160 484 160 484 147 495 c 128,-1,5
 134 506 134 506 132 515 c 1,6,7
 132 528 132 528 159.5 566 c 128,-1,8
 187 604 187 604 206 615 c 1,9,10
 221 615 221 615 241 602 c 1,11,12
 260 615 260 615 275 615 c 1,13,14
 294 604 294 604 321.5 566 c 128,-1,15
 349 528 349 528 349 515 c 1,16,17
 347 506 347 506 334 495 c 128,-1,18
 321 484 321 484 312 484 c 1,19,20
 307 491 307 491 278 518 c 128,-1,21
 249 545 249 545 241 550 c 1,0,1
281 318 m 0,22,23
 281 347 281 347 250 347 c 0,24,25
 209 347 209 347 178 305 c 128,-1,26
 147 263 147 263 147 204 c 0,27,28
 147 190 147 190 151 190 c 0,29,30
 187 191 187 191 234 231.5 c 128,-1,31
 281 272 281 272 281 318 c 0,22,23
368 0 m 1,32,33
 334 -23 334 -23 235 -23 c 128,-1,34
 136 -23 136 -23 83 36 c 128,-1,35
 30 95 30 95 30 193.5 c 128,-1,36
 30 292 30 292 93.5 364.5 c 128,-1,37
 157 437 157 437 272 437 c 0,38,39
 319 437 319 437 358.5 412 c 128,-1,40
 398 387 398 387 398 324.5 c 128,-1,41
 398 262 398 262 343.5 201 c 128,-1,42
 289 140 289 140 195 108 c 1,43,44
 195 96.4 195 96.4 219.5 88.7 c 128,-1,45
 244 81 244 81 268 81 c 0,46,47
 344 81 344 81 388 108 c 0,48,49
 389 109 389 109 391 109 c 128,-1,50
 393 109 393 109 393 90 c 0,51,52
 393 32 393 32 368 0 c 1,32,33
EndSplineSet
EndChar

StartChar: braceright
Encoding: 125 125 105
Width: 247
Flags: HMW
HStem: -108 21G<61 71> 735 20G<61 71>
LayerCount: 2
Fore
SplineSet
182 163 m 2,0,-1
 183 14 l 2,1,2
 183 -29 183 -29 181 -37 c 1,3,4
 175 -49 175 -49 125.5 -78.5 c 128,-1,5
 76 -108 76 -108 61 -108 c 1,6,7
 29 -102 29 -102 10 -79 c 1,8,9
 81 -22 81 -22 87 4 c 1,10,11
 89 103 89 103 89 177.5 c 128,-1,12
 89 252 89 252 87 265 c 1,13,14
 146 312 146 312 146 323 c 0,15,16
 146 333.172413793 146 333.172413793 101.5 370 c 2,17,-1
 87 382 l 1,18,19
 89 394 89 394 89 466 c 2,20,-1
 87 643 l 1,21,22
 84 654 84 654 65 674.5 c 128,-1,23
 46 695 46 695 28 710 c 2,24,-1
 10 725 l 1,25,26
 25.6923076923 744.615384615 25.6923076923 744.615384615 61 755 c 1,27,28
 76 755 76 755 125.5 725.5 c 128,-1,29
 175 696 175 696 179 686.5 c 128,-1,30
 183 677 183 677 183 633 c 2,31,-1
 182 484 l 2,32,33
 182 414 182 414 185 385 c 1,34,35
 242 333 242 333 242 323 c 0,36,37
 242 319 242 319 228 303.5 c 128,-1,38
 214 288 214 288 199.5 275 c 2,39,-1
 185 262 l 1,40,41
 182 233 182 233 182 163 c 2,0,-1
EndSplineSet
EndChar

StartChar: quotedblleft
Encoding: 8220 8220 106
Width: 342
Flags: HMW
HStem: 463 21G<81 92.5 239 250.5> 657 20G<79 122.5 237 280.5>
LayerCount: 2
Fore
SplineSet
262 677 m 0,0,1
 312 677 312 677 312 619 c 1,2,3
 307 558 307 558 248 558 c 1,4,5
 248 515 248 515 285 485 c 1,6,7
 271 463 271 463 239 463 c 0,8,9
 233.857142857 463 233.857142857 463 222.928571429 471.5 c 128,-1,10
 212 480 212 480 205.5 490.5 c 0,11,12
 188 518.769230769 188 518.769230769 188 563.884615385 c 128,-1,13
 188 609 188 609 207.5 643 c 128,-1,14
 227 677 227 677 262 677 c 0,0,1
104 677 m 0,15,16
 154 677 154 677 154 619 c 1,17,18
 149 558 149 558 90 558 c 1,19,20
 90 515 90 515 127 485 c 1,21,22
 113 463 113 463 81 463 c 0,23,24
 75.8571428571 463 75.8571428571 463 64.9285714286 471.5 c 128,-1,25
 54 480 54 480 47.5 490.5 c 0,26,27
 30 518.769230769 30 518.769230769 30 563.884615385 c 128,-1,28
 30 609 30 609 49.5 643 c 128,-1,29
 69 677 69 677 104 677 c 0,15,16
EndSplineSet
EndChar

StartChar: Agrave
Encoding: 192 192 107
Width: 616
Flags: HMW
HStem: -61 21G<468 503.5> 831 20G<308.5 319>
LayerCount: 2
Fore
SplineSet
357 720 m 1,0,1
 347 732 347 732 312.5 763 c 128,-1,2
 278 794 278 794 258 806 c 1,3,4
 258 818 258 818 280.5 834.5 c 128,-1,5
 303 851 303 851 319 851 c 1,6,7
 338 840 338 840 365.5 802 c 128,-1,8
 393 764 393 764 393 751 c 1,9,10
 391 742 391 742 378.5 731 c 128,-1,11
 366 720 366 720 357 720 c 1,0,1
385 224 m 1,12,13
 371 225 371 225 299 225 c 128,-1,14
 227 225 227 225 215 221 c 1,15,16
 162 47 162 47 155 -30 c 0,17,18
 155 -31 155 -31 130.5 -31 c 128,-1,19
 106 -31 106 -31 80 -27.5 c 0,20,21
 25 -20.0961538462 25 -20.0961538462 25 -14 c 0,22,23
 25 26 25 26 96 219 c 1,24,25
 83 230 83 230 66 264.5 c 128,-1,26
 49 299 49 299 49 322 c 0,27,28
 49 323 49 323 132 326 c 1,29,30
 214 564 214 564 225 577 c 1,31,32
 229 580 229 580 261 586.5 c 128,-1,33
 293 593 293 593 302 593 c 1,34,-1
 300 606.5 l 2,35,36
 298 620 298 620 295.5 636.5 c 128,-1,37
 293 653 293 653 293 658 c 0,38,39
 293 661 293 661 310 669.5 c 0,40,41
 359 694 359 694 411 694 c 1,42,43
 421 635 421 635 437.5 543.5 c 128,-1,44
 454 452 454 452 502 264 c 128,-1,45
 550 76 550 76 594 2 c 2,46,-1
 601 -10 l 1,47,48
 601 -15 601 -15 582 -27 c 128,-1,49
 563 -39 563 -39 532 -50 c 128,-1,50
 501 -61 501 -61 475 -61 c 0,51,52
 466 -61 466 -61 431.5 52.5 c 128,-1,53
 397 166 397 166 385 224 c 1,12,13
361 327 m 1,54,55
 327 471 327 471 324 488 c 128,-1,56
 321 505 321 505 319 505 c 128,-1,57
 317 505 317 505 314 501 c 0,58,59
 305 484 305 484 280.5 419 c 128,-1,60
 256 354 256 354 249 329 c 1,61,62
 360 329 360 329 361 327 c 1,54,55
EndSplineSet
EndChar

StartChar: divide
Encoding: 247 247 108
Width: 540
Flags: HMW
HStem: 124 21G<255 283> 292 77<41 500 39 502> 520 20G<257 285>
VStem: 219 102<163 190 474 501>
LayerCount: 2
Fore
SplineSet
321 177 m 128,-1,1
 321 156 321 156 305.5 140 c 128,-1,2
 290 124 290 124 268.5 124 c 128,-1,3
 247 124 247 124 233 138 c 128,-1,4
 219 152 219 152 219 174.5 c 128,-1,5
 219 197 219 197 234.5 212.5 c 128,-1,6
 250 228 250 228 271 228 c 128,-1,7
 292 228 292 228 306.5 213 c 128,-1,0
 321 198 321 198 321 177 c 128,-1,1
306.5 525 m 128,-1,9
 321 510 321 510 321 488.5 c 128,-1,10
 321 467 321 467 305.5 451 c 128,-1,11
 290 435 290 435 268.5 435 c 128,-1,12
 247 435 247 435 233 449 c 128,-1,13
 219 463 219 463 219 485.5 c 128,-1,14
 219 508 219 508 234.5 524 c 128,-1,15
 250 540 250 540 271 540 c 128,-1,8
 292 540 292 540 306.5 525 c 128,-1,9
39 292 m 1,16,17
 30 302 30 302 30 330.5 c 128,-1,18
 30 359 30 359 41 369 c 1,19,-1
 502 369 l 1,20,21
 510 358 510 358 510 330.5 c 128,-1,22
 510 303 510 303 500 292 c 1,23,-1
 39 292 l 1,16,17
EndSplineSet
EndChar

StartChar: minus
Encoding: 8722 8722 109
Width: 539
Flags: HMW
HStem: 292 77<41 500 39 501>
LayerCount: 2
Fore
SplineSet
39 292 m 1,0,1
 30 302 30 302 30 330.5 c 128,-1,2
 30 359 30 359 41 369 c 1,3,-1
 501 369 l 1,4,5
 509 358 509 358 509 330 c 128,-1,6
 509 302 509 302 500 292 c 1,7,-1
 39 292 l 1,0,1
EndSplineSet
EndChar

StartChar: tilde
Encoding: 732 732 110
Width: 465
Flags: HMW
HStem: 494 21G<141 141> 496 77<269 286.5 261 297.5> 510 63<186.5 286.5> 510 77<186.5 219 185 222> 570 20G<334 336>
LayerCount: 2
Fore
SplineSet
246.5 503 m 128,-1,1
 223 510 223 510 198 510 c 128,-1,2
 173 510 173 510 141 494 c 1,3,4
 135 502 135 502 135 532 c 128,-1,5
 135 562 135 562 141 568 c 1,6,7
 166 587 166 587 192.5 587 c 128,-1,8
 219 587 219 587 240 580 c 128,-1,9
 261 573 261 573 287 573 c 128,-1,10
 313 573 313 573 334 590 c 1,11,12
 341 590 341 590 341 564.5 c 0,13,14
 341 529 341 529 333 511 c 1,15,16
 313 496 313 496 291.5 496 c 128,-1,0
 270 496 270 496 246.5 503 c 128,-1,1
EndSplineSet
EndChar

StartChar: atilde
Encoding: 227 227 111
Width: 459
Flags: HMW
HStem: -57 21G<331 356.5> -22 21G<125 207> 358 94<161 197.5> 496 77<266 283.5 258 294.5> 510 63<183.5 283.5> 510 77<183.5 216 182 219> 570 20G<331 333>
VStem: 25 123<116.5 165 116.5 197.5> 296 111<159 223 198 203>
LayerCount: 2
Fore
SplineSet
407 223 m 2,0,1
 407 98 407 98 410 77 c 0,2,3
 418 22 418 22 444 -2 c 1,4,5
 444 -13 444 -13 404.5 -35 c 128,-1,6
 365 -57 365 -57 333 -57 c 0,7,8
 323.526315789 -57 323.526315789 -57 313.763157895 -30.5 c 128,-1,9
 304 -4 304 -4 302.5 9 c 128,-1,10
 301 22 301 22 300 22 c 2,11,-1
 297 20 l 1,12,13
 244 -22 244 -22 173 -22 c 128,-1,14
 102 -22 102 -22 63.5 12.5 c 128,-1,15
 25 47 25 47 25 103 c 128,-1,16
 25 159 25 159 49.5 197.5 c 128,-1,17
 74 236 74 236 107 256 c 128,-1,18
 140 276 140 276 179.5 288.5 c 0,19,20
 241.12 308 241.12 308 276 308 c 1,21,-1
 278 309 l 1,22,23
 278 358 278 358 154 358 c 0,24,25
 105 358 105 358 81 354 c 1,26,-1
 80 354 l 1,27,28
 80 374 80 374 92.5 404 c 128,-1,29
 105 434 105 434 113.5 443 c 128,-1,30
 122 452 122 452 185 452 c 0,31,32
 299 452 299 452 353 408.5 c 128,-1,33
 407 365 407 365 407 274 c 2,34,-1
 407 223 l 2,0,1
296 159 m 2,35,-1
 296 197 l 2,36,37
 296 219 296 219 295 219 c 0,38,39
 228.318181818 219 228.318181818 219 179 184 c 0,40,41
 148 162 148 162 148 129 c 0,42,43
 148 108 148 108 163 94 c 128,-1,44
 178 80 178 80 208.5 80 c 128,-1,45
 239 80 239 80 267.5 98 c 128,-1,46
 296 116 296 116 296 159 c 2,35,-1
243.5 503 m 128,-1,48
 220 510 220 510 195 510 c 128,-1,49
 170 510 170 510 138 494 c 1,50,51
 132 502 132 502 132 532 c 128,-1,52
 132 562 132 562 138 568 c 1,53,54
 163 587 163 587 189.5 587 c 128,-1,55
 216 587 216 587 237 580 c 128,-1,56
 258 573 258 573 284 573 c 128,-1,57
 310 573 310 573 331 590 c 1,58,59
 338 590 338 590 338 564.5 c 0,60,61
 338 529 338 529 330 511 c 1,62,63
 310 496 310 496 288.5 496 c 128,-1,47
 267 496 267 496 243.5 503 c 128,-1,48
EndSplineSet
EndChar

StartChar: ntilde
Encoding: 241 241 112
Width: 465
Flags: HMW
HStem: -39 21G<326.5 357.5> -26 21G<61 78.5> 496 77<269 286.5 261 297.5> 510 63<186.5 286.5> 510 77<186.5 219 185 222> 570 20G<334 336>
VStem: 54 118 313 112<104 183.5 65 185.5>
LayerCount: 2
Fore
SplineSet
171 225 m 1,0,-1
 172 188.5 l 1,1,-1
 172 112 l 2,2,3
 172 5 172 5 168 1 c 0,4,5
 155 -12 155 -12 123 -19 c 128,-1,6
 91 -26 91 -26 70.5 -26 c 128,-1,7
 50 -26 50 -26 50 -23 c 0,8,9
 57 22 57 22 57 125 c 1,10,-1
 54 350 l 2,11,12
 54 412 54 412 59 417 c 0,13,14
 70 428 70 428 97 436.5 c 128,-1,15
 124 445 124 445 147.5 445 c 128,-1,16
 171 445 171 445 171 440 c 0,17,18
 168 416 168 416 168 392 c 128,-1,19
 168 368 168 368 171 368 c 1,20,-1
 174 370 l 1,21,22
 179 377 179 377 189 387.5 c 128,-1,23
 199 398 199 398 231.5 415.5 c 128,-1,24
 264 433 264 433 293.5 433 c 128,-1,25
 323 433 323 433 343.5 422.5 c 128,-1,26
 364 412 364 412 377 397 c 128,-1,27
 390 382 390 382 399.5 354 c 128,-1,28
 409 326 409 326 414 302 c 128,-1,29
 419 278 419 278 421.5 238.5 c 0,30,31
 425 183.2 425 183.2 425 98 c 1,32,-1
 422 -19 l 2,33,34
 422 -26.4285714286 422 -26.4285714286 389 -32.7142857143 c 128,-1,35
 356 -39 356 -39 336 -39 c 1,36,-1
 303 -34 l 1,37,38
 313 56 313 56 313 140.5 c 128,-1,39
 313 225 313 225 302 267.5 c 128,-1,40
 291 310 291 310 258 310 c 128,-1,41
 225 310 225 310 204.5 292 c 128,-1,42
 184 274 184 274 177.5 256.5 c 2,43,-1
 171 239 l 1,44,-1
 171 225 l 1,0,-1
246.5 503 m 128,-1,46
 223 510 223 510 198 510 c 128,-1,47
 173 510 173 510 141 494 c 1,48,49
 135 502 135 502 135 532 c 128,-1,50
 135 562 135 562 141 568 c 1,51,52
 166 587 166 587 192.5 587 c 128,-1,53
 219 587 219 587 240 580 c 128,-1,54
 261 573 261 573 287 573 c 128,-1,55
 313 573 313 573 334 590 c 1,56,57
 341 590 341 590 341 564.5 c 0,58,59
 341 529 341 529 333 511 c 1,60,61
 313 496 313 496 291.5 496 c 128,-1,45
 270 496 270 496 246.5 503 c 128,-1,46
EndSplineSet
EndChar

StartChar: otilde
Encoding: 245 245 113
Width: 484
Flags: HMW
HStem: -26 21G<173 309.5> 486 77<278 295.5 270 306.5> 500 63<195.5 295.5> 500 77<195.5 228 194 231> 560 20G<343 345>
VStem: 339 115<154.5 242>
LayerCount: 2
Fore
SplineSet
396.5 43.5 m 128,-1,1
 339 -26 339 -26 240.5 -26 c 128,-1,2
 142 -26 142 -26 86 35 c 128,-1,3
 30 96 30 96 30 193.5 c 128,-1,4
 30 291 30 291 99.5 366.5 c 128,-1,5
 169 442 169 442 287 442 c 1,6,7
 335 440 335 440 339 436 c 128,-1,8
 343 432 343 432 343 417 c 128,-1,9
 343 402 343 402 340 384 c 1,10,11
 354.884615385 384 354.884615385 384 378.442307692 366.5 c 128,-1,12
 402 349 402 349 417 331 c 128,-1,13
 432 313 432 313 443 280.5 c 128,-1,14
 454 248 454 248 454 208 c 0,15,0
 454 113 454 113 396.5 43.5 c 128,-1,1
308.5 278.5 m 0,16,17
 285.470588235 293 285.470588235 293 263 293 c 2,18,-1
 255 293 l 1,19,20
 253 297 253 297 253 310 c 128,-1,21
 253 323 253 323 256 335 c 1,22,23
 215 335 215 335 179.5 298 c 128,-1,24
 144 261 144 261 144 195 c 0,25,26
 144 117.461538462 144 117.461538462 193.5 87 c 0,27,28
 213 75 213 75 246.5 75 c 128,-1,29
 280 75 280 75 309.5 106 c 128,-1,30
 339 137 339 137 339 198.148148148 c 128,-1,31
 339 259.296296296 339 259.296296296 308.5 278.5 c 0,16,17
255.5 493 m 128,-1,33
 232 500 232 500 207 500 c 128,-1,34
 182 500 182 500 150 484 c 1,35,36
 144 492 144 492 144 522 c 128,-1,37
 144 552 144 552 150 558 c 1,38,39
 175 577 175 577 201.5 577 c 128,-1,40
 228 577 228 577 249 570 c 128,-1,41
 270 563 270 563 296 563 c 128,-1,42
 322 563 322 563 343 580 c 1,43,44
 350 580 350 580 350 554.5 c 0,45,46
 350 519 350 519 342 501 c 1,47,48
 322 486 322 486 300.5 486 c 128,-1,32
 279 486 279 486 255.5 493 c 128,-1,33
EndSplineSet
EndChar

StartChar: ring
Encoding: 730 730 114
Width: 484
Flags: HMW
HStem: 486 37<229.5 245 229.5 254.5> 582 38<231 246.5>
LayerCount: 2
Fore
SplineSet
258.5 573.5 m 128,-1,1
 250 582 250 582 238.5 582 c 128,-1,2
 227 582 227 582 218 573 c 128,-1,3
 209 564 209 564 209 551.5 c 128,-1,4
 209 539 209 539 217 531 c 128,-1,5
 225 523 225 523 237 523 c 128,-1,6
 249 523 249 523 258 532 c 128,-1,7
 267 541 267 541 267 553 c 128,-1,0
 267 565 267 565 258.5 573.5 c 128,-1,1
304 554 m 128,-1,9
 304 527 304 527 283.5 506.5 c 128,-1,10
 263 486 263 486 236 486 c 128,-1,11
 209 486 209 486 190.5 504 c 128,-1,12
 172 522 172 522 172 550.5 c 128,-1,13
 172 579 172 579 192 599.5 c 128,-1,14
 212 620 212 620 239 620 c 128,-1,15
 266 620 266 620 285 600.5 c 128,-1,8
 304 581 304 581 304 554 c 128,-1,9
EndSplineSet
EndChar

StartChar: aring
Encoding: 229 229 115
Width: 459
Flags: HMW
HStem: -57 21G<331 356.5> -22 21G<125 207> 358 94<161 197.5> 486 37<221.5 237 221.5 246.5> 582 38<223 238.5>
VStem: 25 123<116.5 165 116.5 197.5> 296 111<159 223 198 203>
LayerCount: 2
Fore
SplineSet
407 223 m 2,0,1
 407 98 407 98 410 77 c 0,2,3
 418 22 418 22 444 -2 c 1,4,5
 444 -13 444 -13 404.5 -35 c 128,-1,6
 365 -57 365 -57 333 -57 c 0,7,8
 323.526315789 -57 323.526315789 -57 313.763157895 -30.5 c 128,-1,9
 304 -4 304 -4 302.5 9 c 128,-1,10
 301 22 301 22 300 22 c 2,11,-1
 297 20 l 1,12,13
 244 -22 244 -22 173 -22 c 128,-1,14
 102 -22 102 -22 63.5 12.5 c 128,-1,15
 25 47 25 47 25 103 c 128,-1,16
 25 159 25 159 49.5 197.5 c 128,-1,17
 74 236 74 236 107 256 c 128,-1,18
 140 276 140 276 179.5 288.5 c 0,19,20
 241.12 308 241.12 308 276 308 c 1,21,-1
 278 309 l 1,22,23
 278 358 278 358 154 358 c 0,24,25
 105 358 105 358 81 354 c 1,26,-1
 80 354 l 1,27,28
 80 374 80 374 92.5 404 c 128,-1,29
 105 434 105 434 113.5 443 c 128,-1,30
 122 452 122 452 185 452 c 0,31,32
 299 452 299 452 353 408.5 c 128,-1,33
 407 365 407 365 407 274 c 2,34,-1
 407 223 l 2,0,1
296 159 m 2,35,-1
 296 197 l 2,36,37
 296 219 296 219 295 219 c 0,38,39
 228.318181818 219 228.318181818 219 179 184 c 0,40,41
 148 162 148 162 148 129 c 0,42,43
 148 108 148 108 163 94 c 128,-1,44
 178 80 178 80 208.5 80 c 128,-1,45
 239 80 239 80 267.5 98 c 128,-1,46
 296 116 296 116 296 159 c 2,35,-1
296 554 m 128,-1,48
 296 527 296 527 275.5 506.5 c 128,-1,49
 255 486 255 486 228 486 c 128,-1,50
 201 486 201 486 182.5 504 c 128,-1,51
 164 522 164 522 164 550.5 c 128,-1,52
 164 579 164 579 184 599.5 c 128,-1,53
 204 620 204 620 231 620 c 128,-1,54
 258 620 258 620 277 600.5 c 128,-1,47
 296 581 296 581 296 554 c 128,-1,48
250.5 573.5 m 128,-1,56
 242 582 242 582 230.5 582 c 128,-1,57
 219 582 219 582 210 573 c 128,-1,58
 201 564 201 564 201 551.5 c 128,-1,59
 201 539 201 539 209 531 c 128,-1,60
 217 523 217 523 229 523 c 128,-1,61
 241 523 241 523 250 532 c 128,-1,62
 259 541 259 541 259 553 c 128,-1,55
 259 565 259 565 250.5 573.5 c 128,-1,56
EndSplineSet
EndChar

StartChar: ogonek
Encoding: 731 731 116
Width: 291
Flags: HMW
HStem: -130 36<141.5 182> -12 20G<149 159>
LayerCount: 2
Fore
SplineSet
172 -94 m 0,0,1
 187.5 -94 187.5 -94 201 -85 c 1,2,3
 204 -91 204 -91 204 -103 c 128,-1,4
 204 -115 204 -115 201 -121 c 1,5,6
 192 -130 192 -130 162 -130 c 128,-1,7
 132 -130 132 -130 115.5 -113.5 c 128,-1,8
 99 -97 99 -97 99 -72 c 0,9,10
 99 -26 99 -26 131 6 c 1,11,12
 135 8 135 8 155.706133832 7.86373027799 c 128,-1,13
 176.412267664 7.72746055597 176.412267664 7.72746055597 175 4 c 1,14,15
 141 -25 141 -25 141 -65 c 0,16,17
 141 -94 141 -94 172 -94 c 0,0,1
EndSplineSet
EndChar

StartChar: breve
Encoding: 728 728 117
Width: 484
Flags: HMW
HStem: 503 40<246.5 268 246.5 280.5> 503 76<167 280.5>
LayerCount: 2
Fore
SplineSet
298 579 m 1,0,-1
 349 579 l 1,1,2
 349 550 349 550 320.5 526.5 c 128,-1,3
 292 503 292 503 255 503 c 0,4,5
 218 503 218 503 192.5 524 c 128,-1,6
 167 545 167 545 167 579 c 1,7,-1
 218 579 l 1,8,9
 218 564 218 564 229.5 553.5 c 128,-1,10
 241 543 241 543 257 543 c 128,-1,11
 273 543 273 543 285.5 554.5 c 128,-1,12
 298 566 298 566 298 579 c 1,0,-1
EndSplineSet
EndChar

StartChar: dieresis
Encoding: 168 168 118
Width: 484
Flags: HMW
HStem: 494 21G<130 158 318 346> 578 20G<132 160 320 348>
LayerCount: 2
Fore
SplineSet
197 547 m 128,-1,1
 197 526 197 526 181 510 c 128,-1,2
 165 494 165 494 143.5 494 c 0,3,4
 122 494 122 494 108 508 c 128,-1,5
 94 522 94 522 94 544.5 c 0,6,7
 94 567 94 567 109.5 582.5 c 128,-1,8
 125 598 125 598 146 598 c 128,-1,9
 167 598 167 598 182 583 c 128,-1,0
 197 568 197 568 197 547 c 128,-1,1
384 547 m 128,-1,11
 384 526 384 526 368.5 510 c 128,-1,12
 353 494 353 494 331.5 494 c 0,13,14
 310 494 310 494 296 508 c 128,-1,15
 282 522 282 522 282 544.5 c 0,16,17
 282 567 282 567 297.5 582.5 c 128,-1,18
 313 598 313 598 334 598 c 128,-1,19
 355 598 355 598 369.5 583 c 128,-1,10
 384 568 384 568 384 547 c 128,-1,11
EndSplineSet
EndChar

StartChar: adieresis
Encoding: 228 228 119
Width: 459
Flags: HMW
HStem: -57 21G<331 356.5> -22 21G<125 207> 358 94<161 197.5> 578 20G<123 151 311 339>
VStem: 25 123<116.5 165 116.5 197.5> 278 129<198 323.5> 296 111<159 223 198 203>
LayerCount: 2
Fore
SplineSet
407 223 m 2,0,1
 407 98 407 98 410 77 c 0,2,3
 418 22 418 22 444 -2 c 1,4,5
 444 -13 444 -13 404.5 -35 c 128,-1,6
 365 -57 365 -57 333 -57 c 0,7,8
 323.526315789 -57 323.526315789 -57 313.763157895 -30.5 c 128,-1,9
 304 -4 304 -4 302.5 9 c 128,-1,10
 301 22 301 22 300 22 c 2,11,-1
 297 20 l 1,12,13
 244 -22 244 -22 173 -22 c 128,-1,14
 102 -22 102 -22 63.5 12.5 c 128,-1,15
 25 47 25 47 25 103 c 128,-1,16
 25 159 25 159 49.5 197.5 c 128,-1,17
 74 236 74 236 107 256 c 128,-1,18
 140 276 140 276 179.5 288.5 c 0,19,20
 241.12 308 241.12 308 276 308 c 1,21,-1
 278 309 l 1,22,23
 278 358 278 358 154 358 c 0,24,25
 105 358 105 358 81 354 c 1,26,-1
 80 354 l 1,27,28
 80 374 80 374 92.5 404 c 128,-1,29
 105 434 105 434 113.5 443 c 128,-1,30
 122 452 122 452 185 452 c 0,31,32
 299 452 299 452 353 408.5 c 128,-1,33
 407 365 407 365 407 274 c 2,34,-1
 407 223 l 2,0,1
296 159 m 2,35,-1
 296 197 l 2,36,37
 296 219 296 219 295 219 c 0,38,39
 228.318181818 219 228.318181818 219 179 184 c 0,40,41
 148 162 148 162 148 129 c 0,42,43
 148 108 148 108 163 94 c 128,-1,44
 178 80 178 80 208.5 80 c 128,-1,45
 239 80 239 80 267.5 98 c 128,-1,46
 296 116 296 116 296 159 c 2,35,-1
188 547 m 128,-1,48
 188 526 188 526 172 510 c 128,-1,49
 156 494 156 494 134.5 494 c 128,-1,50
 113 494 113 494 99 508 c 128,-1,51
 85 522 85 522 85 544.5 c 128,-1,52
 85 567 85 567 100.5 582.5 c 128,-1,53
 116 598 116 598 137 598 c 128,-1,54
 158 598 158 598 173 583 c 128,-1,47
 188 568 188 568 188 547 c 128,-1,48
375 547 m 128,-1,56
 375 526 375 526 359.5 510 c 128,-1,57
 344 494 344 494 322.5 494 c 128,-1,58
 301 494 301 494 287 508 c 128,-1,59
 273 522 273 522 273 544.5 c 128,-1,60
 273 567 273 567 288.5 582.5 c 128,-1,61
 304 598 304 598 325 598 c 128,-1,62
 346 598 346 598 360.5 583 c 128,-1,55
 375 568 375 568 375 547 c 128,-1,56
EndSplineSet
EndChar

StartChar: ccedilla
Encoding: 231 231 120
Width: 386
Flags: HMW
HStem: -167 34<198 202.5 188 217.5> -29 21G<255 287> 424 20G<238.5 323>
VStem: 30 123<156.5 260.5>
LayerCount: 2
Fore
SplineSet
255 -29 m 1,0,1
 247 -43 247 -43 247 -59 c 1,2,3
 262 -65 262 -65 277.5 -80.5 c 128,-1,4
 293 -96 293 -96 293 -109 c 0,5,6
 293 -133 293 -133 261.5 -150 c 128,-1,7
 230 -167 230 -167 200 -167 c 0,8,9
 197 -167 197 -167 192 -157.5 c 128,-1,10
 187 -148 187 -148 187 -141.5 c 128,-1,11
 187 -135 187 -135 188 -133 c 1,12,13
 208 -133 208 -133 223.5 -124.5 c 128,-1,14
 239 -116 239 -116 239 -107 c 128,-1,15
 239 -98 239 -98 228 -91 c 128,-1,16
 217 -84 217 -84 205.5 -82 c 2,17,-1
 194 -80 l 1,18,19
 194 -56 194 -56 209 -26 c 1,20,21
 118 -14 118 -14 74 41.5 c 128,-1,22
 30 97 30 97 30 175 c 0,23,24
 30 298 30 298 112.5 371 c 128,-1,25
 195 444 195 444 314 444 c 0,26,27
 337 444 337 444 341 443 c 1,28,29
 347 438 347 438 347 395 c 128,-1,30
 347 352 347 352 335 343 c 1,31,-1
 328 343 l 2,32,33
 251 343 251 343 203 307 c 0,34,35
 183 292 183 292 168 260 c 128,-1,36
 153 228 153 228 153 183 c 128,-1,37
 153 138 153 138 180 108.5 c 128,-1,38
 207 79 207 79 267 79 c 0,39,40
 314 79 314 79 350 97 c 0,41,42
 354 99 354 99 355 99 c 0,43,44
 363 91 363 91 363 45 c 128,-1,45
 363 -1 363 -1 352 -10 c 1,46,47
 319 -29 319 -29 255 -29 c 1,0,1
EndSplineSet
EndChar

StartChar: cedilla
Encoding: 184 184 121
Width: 386
Flags: HMW
HStem: -167 34<198 202.5 188 217.5> -39 20G<213 224.5>
LayerCount: 2
Fore
SplineSet
255 -29 m 1,0,1
 247 -43 247 -43 247 -59 c 1,2,3
 262 -65 262 -65 277.5 -80.5 c 128,-1,4
 293 -96 293 -96 293 -109 c 0,5,6
 293 -133 293 -133 261.5 -150 c 128,-1,7
 230 -167 230 -167 200 -167 c 0,8,9
 197 -167 197 -167 192 -157.5 c 128,-1,10
 187 -148 187 -148 187 -141.5 c 128,-1,11
 187 -135 187 -135 188 -133 c 1,12,13
 208 -133 208 -133 223.5 -124.5 c 128,-1,14
 239 -116 239 -116 239 -107 c 128,-1,15
 239 -98 239 -98 228 -91 c 128,-1,16
 217 -84 217 -84 205.5 -82 c 2,17,-1
 194 -80 l 1,18,19
 194 -51 194 -51 213 -19 c 1,20,21
 233 -19 233 -19 255 -29 c 1,0,1
EndSplineSet
EndChar

StartChar: edieresis
Encoding: 235 235 122
Width: 423
Flags: HMW
HStem: -23 21G<167 285.5> 347 90<223 257.5> 578 20G<105 133 293 321>
LayerCount: 2
Fore
SplineSet
170 547 m 128,-1,1
 170 526 170 526 154 510 c 128,-1,2
 138 494 138 494 116.5 494 c 128,-1,3
 95 494 95 494 81 508 c 128,-1,4
 67 522 67 522 67 544.5 c 128,-1,5
 67 567 67 567 82.5 582.5 c 128,-1,6
 98 598 98 598 119 598 c 128,-1,7
 140 598 140 598 155 583 c 128,-1,0
 170 568 170 568 170 547 c 128,-1,1
357 547 m 128,-1,9
 357 526 357 526 341.5 510 c 128,-1,10
 326 494 326 494 304.5 494 c 128,-1,11
 283 494 283 494 269 508 c 128,-1,12
 255 522 255 522 255 544.5 c 128,-1,13
 255 567 255 567 270.5 582.5 c 128,-1,14
 286 598 286 598 307 598 c 128,-1,15
 328 598 328 598 342.5 583 c 128,-1,8
 357 568 357 568 357 547 c 128,-1,9
281 318 m 0,16,17
 281 347 281 347 250 347 c 0,18,19
 209 347 209 347 178 305 c 128,-1,20
 147 263 147 263 147 204 c 0,21,22
 147 190 147 190 151 190 c 0,23,24
 187 191 187 191 234 231.5 c 128,-1,25
 281 272 281 272 281 318 c 0,16,17
368 0 m 1,26,27
 334 -23 334 -23 235 -23 c 128,-1,28
 136 -23 136 -23 83 36 c 128,-1,29
 30 95 30 95 30 193.5 c 128,-1,30
 30 292 30 292 93.5 364.5 c 128,-1,31
 157 437 157 437 272 437 c 0,32,33
 319 437 319 437 358.5 412 c 128,-1,34
 398 387 398 387 398 324.5 c 128,-1,35
 398 262 398 262 343.5 201 c 128,-1,36
 289 140 289 140 195 108 c 1,37,38
 195 96.4 195 96.4 219.5 88.7 c 128,-1,39
 244 81 244 81 268 81 c 0,40,41
 344 81 344 81 388 108 c 0,42,43
 389 109 389 109 391 109 c 128,-1,44
 393 109 393 109 393 90 c 0,45,46
 393 32 393 32 368 0 c 1,26,27
EndSplineSet
EndChar

StartChar: dotlessi
Encoding: 305 305 123
Width: 220
Flags: HMW
HStem: -51 21G<87 110> 385 20G<116 145>
VStem: 57 113<163 175.5>
LayerCount: 2
Fore
SplineSet
172 348 m 1,0,-1
 170 186 l 2,1,2
 170 108 170 108 174.5 71.5 c 128,-1,3
 179 35 179 35 200 3 c 1,4,5
 200 -7 200 -7 159 -29 c 128,-1,6
 118 -51 118 -51 89 -51 c 0,7,8
 80.1395348837 -51 80.1395348837 -51 71.0697674419 -21 c 128,-1,9
 62 9 62 9 59.5 36 c 128,-1,10
 57 63 57 63 57 218 c 128,-1,11
 57 373 57 373 64 387 c 1,12,13
 87 405 87 405 145 405 c 0,14,15
 168 405 168 405 173 399 c 1,16,-1
 172 348 l 1,0,-1
EndSplineSet
EndChar

StartChar: iacute
Encoding: 237 237 124
Width: 220
Flags: HMW
HStem: -51 21G<87 110> 568 20G<142 152.5>
VStem: 57 113<163 175.5>
LayerCount: 2
Fore
SplineSet
104 457 m 1,0,1
 95 457 95 457 82.5 468 c 128,-1,2
 70 479 70 479 68 488 c 1,3,4
 68 501 68 501 95.5 539 c 128,-1,5
 123 577 123 577 142 588 c 1,6,7
 158 588 158 588 180.5 571.5 c 128,-1,8
 203 555 203 555 203 543 c 1,9,10
 183 531 183 531 148.5 500 c 128,-1,11
 114 469 114 469 104 457 c 1,0,1
172 348 m 1,12,-1
 170 186 l 2,13,14
 170 108 170 108 174.5 71.5 c 128,-1,15
 179 35 179 35 200 3 c 1,16,17
 200 -7 200 -7 159 -29 c 128,-1,18
 118 -51 118 -51 89 -51 c 0,19,20
 80.1395348837 -51 80.1395348837 -51 71.0697674419 -21 c 128,-1,21
 62 9 62 9 59.5 36 c 128,-1,22
 57 63 57 63 57 218 c 128,-1,23
 57 373 57 373 64 387 c 1,24,25
 87 405 87 405 145 405 c 0,26,27
 168 405 168 405 173 399 c 1,28,-1
 172 348 l 1,12,-1
EndSplineSet
EndChar

StartChar: igrave
Encoding: 236 236 125
Width: 220
Flags: HMW
HStem: -51 21G<87 110> 564 20G<98.5 109>
VStem: 57 113<163 175.5>
LayerCount: 2
Fore
SplineSet
147 453 m 1,0,1
 137 465 137 465 102.5 496 c 128,-1,2
 68 527 68 527 48 539 c 1,3,4
 48 551 48 551 70.5 567.5 c 128,-1,5
 93 584 93 584 109 584 c 1,6,7
 128 573 128 573 155.5 535 c 128,-1,8
 183 497 183 497 183 484 c 1,9,10
 181 475 181 475 168.5 464 c 128,-1,11
 156 453 156 453 147 453 c 1,0,1
172 348 m 1,12,-1
 170 186 l 2,13,14
 170 108 170 108 174.5 71.5 c 128,-1,15
 179 35 179 35 200 3 c 1,16,17
 200 -7 200 -7 159 -29 c 128,-1,18
 118 -51 118 -51 89 -51 c 0,19,20
 80.1395348837 -51 80.1395348837 -51 71.0697674419 -21 c 128,-1,21
 62 9 62 9 59.5 36 c 128,-1,22
 57 63 57 63 57 218 c 128,-1,23
 57 373 57 373 64 387 c 1,24,25
 87 405 87 405 145 405 c 0,26,27
 168 405 168 405 173 399 c 1,28,-1
 172 348 l 1,12,-1
EndSplineSet
EndChar

StartChar: icircumflex
Encoding: 238 238 126
Width: 220
Flags: HMW
HStem: -51 21G<87 110> 569 20G<84 88.5 148.5 153>
VStem: 57 113<163 175.5>
LayerCount: 2
Fore
SplineSet
119 524 m 1,0,1
 110 519 110 519 82 493 c 128,-1,2
 54 467 54 467 47 458 c 1,3,4
 38 458 38 458 25 469 c 128,-1,5
 12 480 12 480 10 489 c 1,6,7
 10 502 10 502 37.5 540 c 128,-1,8
 65 578 65 578 84 589 c 1,9,10
 99 589 99 589 119 576 c 1,11,12
 138 589 138 589 153 589 c 1,13,14
 172 578 172 578 199.5 540 c 128,-1,15
 227 502 227 502 227 489 c 1,16,17
 225 480 225 480 212 469 c 128,-1,18
 199 458 199 458 190 458 c 1,19,20
 185 465 185 465 156 492 c 128,-1,21
 127 519 127 519 119 524 c 1,0,1
172 348 m 1,22,-1
 170 186 l 2,23,24
 170 108 170 108 174.5 71.5 c 128,-1,25
 179 35 179 35 200 3 c 1,26,27
 200 -7 200 -7 159 -29 c 128,-1,28
 118 -51 118 -51 89 -51 c 0,29,30
 80.1395348837 -51 80.1395348837 -51 71.0697674419 -21 c 128,-1,31
 62 9 62 9 59.5 36 c 128,-1,32
 57 63 57 63 57 218 c 128,-1,33
 57 373 57 373 64 387 c 1,34,35
 87 405 87 405 145 405 c 0,36,37
 168 405 168 405 173 399 c 1,38,-1
 172 348 l 1,22,-1
EndSplineSet
EndChar

StartChar: idieresis
Encoding: 239 239 127
Width: 220
Flags: HMW
HStem: -51 21G<87 110> 549 20G<10 38 198 226>
VStem: 57 113<163 175.5>
LayerCount: 2
Fore
SplineSet
75 518 m 128,-1,1
 75 497 75 497 59 481 c 128,-1,2
 43 465 43 465 21.5 465 c 128,-1,3
 0 465 0 465 -14 479 c 128,-1,4
 -28 493 -28 493 -28 515.5 c 128,-1,5
 -28 538 -28 538 -12.5 553.5 c 128,-1,6
 3 569 3 569 24 569 c 128,-1,7
 45 569 45 569 60 554 c 128,-1,0
 75 539 75 539 75 518 c 128,-1,1
262 518 m 128,-1,9
 262 497 262 497 246.5 481 c 128,-1,10
 231 465 231 465 209.5 465 c 128,-1,11
 188 465 188 465 174 479 c 128,-1,12
 160 493 160 493 160 515.5 c 128,-1,13
 160 538 160 538 175.5 553.5 c 128,-1,14
 191 569 191 569 212 569 c 128,-1,15
 233 569 233 569 247.5 554 c 128,-1,8
 262 539 262 539 262 518 c 128,-1,9
172 348 m 1,16,-1
 170 186 l 2,17,18
 170 108 170 108 174.5 71.5 c 128,-1,19
 179 35 179 35 200 3 c 1,20,21
 200 -7 200 -7 159 -29 c 128,-1,22
 118 -51 118 -51 89 -51 c 0,23,24
 80.1395348837 -51 80.1395348837 -51 71.0697674419 -21 c 128,-1,25
 62 9 62 9 59.5 36 c 128,-1,26
 57 63 57 63 57 218 c 128,-1,27
 57 373 57 373 64 387 c 1,28,29
 87 405 87 405 145 405 c 0,30,31
 168 405 168 405 173 399 c 1,32,-1
 172 348 l 1,16,-1
EndSplineSet
EndChar

StartChar: oacute
Encoding: 243 243 128
Width: 484
Flags: HMW
HStem: -26 21G<173 309.5> 599 20G<249 259.5>
VStem: 339 115<154.5 242>
LayerCount: 2
Fore
SplineSet
396.5 43.5 m 128,-1,1
 339 -26 339 -26 240.5 -26 c 128,-1,2
 142 -26 142 -26 86 35 c 128,-1,3
 30 96 30 96 30 193.5 c 128,-1,4
 30 291 30 291 99.5 366.5 c 128,-1,5
 169 442 169 442 287 442 c 1,6,7
 335 440 335 440 339 436 c 128,-1,8
 343 432 343 432 343 417 c 128,-1,9
 343 402 343 402 340 384 c 1,10,11
 354.884615385 384 354.884615385 384 378.442307692 366.5 c 128,-1,12
 402 349 402 349 417 331 c 128,-1,13
 432 313 432 313 443 280.5 c 128,-1,14
 454 248 454 248 454 208 c 0,15,0
 454 113 454 113 396.5 43.5 c 128,-1,1
308.5 278.5 m 0,16,17
 285.470588235 293 285.470588235 293 263 293 c 2,18,-1
 255 293 l 1,19,20
 253 297 253 297 253 310 c 128,-1,21
 253 323 253 323 256 335 c 1,22,23
 215 335 215 335 179.5 298 c 128,-1,24
 144 261 144 261 144 195 c 0,25,26
 144 117.461538462 144 117.461538462 193.5 87 c 0,27,28
 213 75 213 75 246.5 75 c 128,-1,29
 280 75 280 75 309.5 106 c 128,-1,30
 339 137 339 137 339 198.148148148 c 128,-1,31
 339 259.296296296 339 259.296296296 308.5 278.5 c 0,16,17
211 488 m 1,32,33
 202 488 202 488 189.5 499 c 128,-1,34
 177 510 177 510 175 519 c 1,35,36
 175 532 175 532 202.5 570 c 128,-1,37
 230 608 230 608 249 619 c 1,38,39
 265 619 265 619 287.5 602.5 c 128,-1,40
 310 586 310 586 310 574 c 1,41,42
 290 562 290 562 255.5 531 c 128,-1,43
 221 500 221 500 211 488 c 1,32,33
EndSplineSet
EndChar

StartChar: ograve
Encoding: 242 242 129
Width: 484
Flags: HMW
HStem: -26 21G<173 309.5> 599 20G<224.5 235>
VStem: 339 115<154.5 242>
LayerCount: 2
Fore
SplineSet
396.5 43.5 m 128,-1,1
 339 -26 339 -26 240.5 -26 c 128,-1,2
 142 -26 142 -26 86 35 c 128,-1,3
 30 96 30 96 30 193.5 c 128,-1,4
 30 291 30 291 99.5 366.5 c 128,-1,5
 169 442 169 442 287 442 c 1,6,7
 335 440 335 440 339 436 c 128,-1,8
 343 432 343 432 343 417 c 128,-1,9
 343 402 343 402 340 384 c 1,10,11
 354.884615385 384 354.884615385 384 378.442307692 366.5 c 128,-1,12
 402 349 402 349 417 331 c 128,-1,13
 432 313 432 313 443 280.5 c 128,-1,14
 454 248 454 248 454 208 c 0,15,0
 454 113 454 113 396.5 43.5 c 128,-1,1
308.5 278.5 m 0,16,17
 285.470588235 293 285.470588235 293 263 293 c 2,18,-1
 255 293 l 1,19,20
 253 297 253 297 253 310 c 128,-1,21
 253 323 253 323 256 335 c 1,22,23
 215 335 215 335 179.5 298 c 128,-1,24
 144 261 144 261 144 195 c 0,25,26
 144 117.461538462 144 117.461538462 193.5 87 c 0,27,28
 213 75 213 75 246.5 75 c 128,-1,29
 280 75 280 75 309.5 106 c 128,-1,30
 339 137 339 137 339 198.148148148 c 128,-1,31
 339 259.296296296 339 259.296296296 308.5 278.5 c 0,16,17
273 488 m 1,32,33
 263 500 263 500 228.5 531 c 128,-1,34
 194 562 194 562 174 574 c 1,35,36
 174 586 174 586 196.5 602.5 c 128,-1,37
 219 619 219 619 235 619 c 1,38,39
 254 608 254 608 281.5 570 c 128,-1,40
 309 532 309 532 309 519 c 1,41,42
 307 510 307 510 294.5 499 c 128,-1,43
 282 488 282 488 273 488 c 1,32,33
EndSplineSet
EndChar

StartChar: ocircumflex
Encoding: 244 244 130
Width: 484
Flags: HMW
HStem: -26 21G<173 309.5> 599 20G<207 211.5 271.5 276>
VStem: 339 115<154.5 242>
LayerCount: 2
Fore
SplineSet
396.5 43.5 m 128,-1,1
 339 -26 339 -26 240.5 -26 c 128,-1,2
 142 -26 142 -26 86 35 c 128,-1,3
 30 96 30 96 30 193.5 c 128,-1,4
 30 291 30 291 99.5 366.5 c 128,-1,5
 169 442 169 442 287 442 c 1,6,7
 335 440 335 440 339 436 c 128,-1,8
 343 432 343 432 343 417 c 128,-1,9
 343 402 343 402 340 384 c 1,10,11
 354.884615385 384 354.884615385 384 378.442307692 366.5 c 128,-1,12
 402 349 402 349 417 331 c 128,-1,13
 432 313 432 313 443 280.5 c 128,-1,14
 454 248 454 248 454 208 c 0,15,0
 454 113 454 113 396.5 43.5 c 128,-1,1
308.5 278.5 m 0,16,17
 285.470588235 293 285.470588235 293 263 293 c 2,18,-1
 255 293 l 1,19,20
 253 297 253 297 253 310 c 128,-1,21
 253 323 253 323 256 335 c 1,22,23
 215 335 215 335 179.5 298 c 128,-1,24
 144 261 144 261 144 195 c 0,25,26
 144 117.461538462 144 117.461538462 193.5 87 c 0,27,28
 213 75 213 75 246.5 75 c 128,-1,29
 280 75 280 75 309.5 106 c 128,-1,30
 339 137 339 137 339 198.148148148 c 128,-1,31
 339 259.296296296 339 259.296296296 308.5 278.5 c 0,16,17
242 554 m 1,32,33
 233 549 233 549 205 523 c 128,-1,34
 177 497 177 497 170 488 c 1,35,36
 161 488 161 488 148 499 c 128,-1,37
 135 510 135 510 133 519 c 1,38,39
 133 532 133 532 160.5 570 c 128,-1,40
 188 608 188 608 207 619 c 1,41,42
 222 619 222 619 242 606 c 1,43,44
 262 619 262 619 276 619 c 1,45,46
 295 608 295 608 322.5 570 c 128,-1,47
 350 532 350 532 350 519 c 1,48,49
 348 510 348 510 335 499 c 128,-1,50
 322 488 322 488 313 488 c 1,51,52
 308 495 308 495 279 522 c 128,-1,53
 250 549 250 549 242 554 c 1,32,33
EndSplineSet
EndChar

StartChar: odieresis
Encoding: 246 246 131
Width: 484
Flags: HMW
HStem: -26 21G<173 309.5> 578 20G<135 163 323 351>
VStem: 339 115<154.5 242>
LayerCount: 2
Fore
SplineSet
396.5 43.5 m 128,-1,1
 339 -26 339 -26 240.5 -26 c 128,-1,2
 142 -26 142 -26 86 35 c 128,-1,3
 30 96 30 96 30 193.5 c 128,-1,4
 30 291 30 291 99.5 366.5 c 128,-1,5
 169 442 169 442 287 442 c 1,6,7
 335 440 335 440 339 436 c 128,-1,8
 343 432 343 432 343 417 c 128,-1,9
 343 402 343 402 340 384 c 1,10,11
 354.884615385 384 354.884615385 384 378.442307692 366.5 c 128,-1,12
 402 349 402 349 417 331 c 128,-1,13
 432 313 432 313 443 280.5 c 128,-1,14
 454 248 454 248 454 208 c 0,15,0
 454 113 454 113 396.5 43.5 c 128,-1,1
308.5 278.5 m 0,16,17
 285.470588235 293 285.470588235 293 263 293 c 2,18,-1
 255 293 l 1,19,20
 253 297 253 297 253 310 c 128,-1,21
 253 323 253 323 256 335 c 1,22,23
 215 335 215 335 179.5 298 c 128,-1,24
 144 261 144 261 144 195 c 0,25,26
 144 117.461538462 144 117.461538462 193.5 87 c 0,27,28
 213 75 213 75 246.5 75 c 128,-1,29
 280 75 280 75 309.5 106 c 128,-1,30
 339 137 339 137 339 198.148148148 c 128,-1,31
 339 259.296296296 339 259.296296296 308.5 278.5 c 0,16,17
200 547 m 128,-1,33
 200 526 200 526 184 510 c 128,-1,34
 168 494 168 494 146.5 494 c 128,-1,35
 125 494 125 494 111 508 c 128,-1,36
 97 522 97 522 97 544.5 c 128,-1,37
 97 567 97 567 112.5 582.5 c 128,-1,38
 128 598 128 598 149 598 c 128,-1,39
 170 598 170 598 185 583 c 128,-1,32
 200 568 200 568 200 547 c 128,-1,33
387 547 m 128,-1,41
 387 526 387 526 371.5 510 c 128,-1,42
 356 494 356 494 334.5 494 c 128,-1,43
 313 494 313 494 299 508 c 128,-1,44
 285 522 285 522 285 544.5 c 128,-1,45
 285 567 285 567 300.5 582.5 c 128,-1,46
 316 598 316 598 337 598 c 128,-1,47
 358 598 358 598 372.5 583 c 128,-1,40
 387 568 387 568 387 547 c 128,-1,41
EndSplineSet
EndChar

StartChar: guillemotleft
Encoding: 171 171 132
Width: 554
Flags: HMW
HStem: -13 21G<259 277.5 486 504.5> -9 21G<210.5 225 437.5 452> -8 21G<310 310.5 536 537> 442 20G<259 277.5 486 504.5>
LayerCount: 2
Fore
SplineSet
349 225 m 128,-1,1
 349 208 349 208 427 116 c 128,-1,2
 505 24 505 24 537 -2 c 0,3,4
 539 -4 539 -4 538.5 -6 c 0,5,6
 536.75 -13 536.75 -13 498 -13 c 1,7,-1
 452 -9 l 1,8,9
 431 -9 431 -9 334 98 c 128,-1,10
 237 205 237 205 237 223.5 c 128,-1,11
 237 242 237 242 335.5 350 c 128,-1,12
 434 458 434 458 452 458 c 1,13,14
 474 462 474 462 498 462 c 128,-1,15
 522 462 522 462 530 459.5 c 0,16,17
 541.047619048 456.047619048 541.047619048 456.047619048 537 452 c 0,18,19
 505 425 505 425 427 333.5 c 128,-1,0
 349 242 349 242 349 225 c 128,-1,1
122 225 m 128,-1,21
 122 208 122 208 200.5 115.5 c 128,-1,22
 279 23 279 23 311 -2 c 1,23,24
 315 -8 315 -8 310 -8 c 1,25,26
 296 -13 296 -13 271 -13 c 1,27,-1
 225 -9 l 1,28,29
 204 -9 204 -9 107 98 c 128,-1,30
 10 205 10 205 10 223.5 c 128,-1,31
 10 242 10 242 108.5 350 c 128,-1,32
 207 458 207 458 225 458 c 1,33,34
 247 462 247 462 271.5 462 c 128,-1,35
 296 462 296 462 303.5 459.5 c 0,36,37
 313.142857143 456.285714286 313.142857143 456.285714286 311 452 c 1,38,39
 279 426 279 426 200.5 334 c 128,-1,20
 122 242 122 242 122 225 c 128,-1,21
EndSplineSet
EndChar

StartChar: Scaron
Encoding: 352 352 133
Width: 519
Flags: HMW
HStem: -33 21G<107 248.5> 824 20G<191.5 198 342 348.5>
VStem: 52 142<439 522 439 527.5> 353 136<171 265>
LayerCount: 2
Fore
SplineSet
270 778 m 1,0,1
 279 783 279 783 306 808.5 c 128,-1,2
 333 834 333 834 342 844 c 1,3,4
 351 844 351 844 364 833 c 128,-1,5
 377 822 377 822 379 813 c 1,6,7
 379 801 379 801 351 763 c 128,-1,8
 323 725 323 725 305 713 c 1,9,10
 289 713 289 713 270 727 c 1,11,12
 249 713 249 713 236 713 c 1,13,14
 217 725 217 725 189.5 763 c 128,-1,15
 162 801 162 801 162 813 c 1,16,17
 164 822 164 822 176.5 833 c 128,-1,18
 189 844 189 844 198 844 c 1,19,20
 206 835 206 835 234 809 c 128,-1,21
 262 783 262 783 270 778 c 1,0,1
413 571 m 1,22,23
 397 573 397 573 376.5 573 c 128,-1,24
 356 573 356 573 326.5 569 c 128,-1,25
 297 565 297 565 265.5 556.5 c 128,-1,26
 234 548 234 548 214 530 c 128,-1,27
 194 512 194 512 194 486.5 c 128,-1,28
 194 461 194 461 224.5 441.5 c 128,-1,29
 255 422 255 422 298 405.5 c 128,-1,30
 341 389 341 389 384.5 368 c 128,-1,31
 428 347 428 347 458.5 306.5 c 128,-1,32
 489 266 489 266 489 209 c 0,33,34
 489 108 489 108 392.5 37.5 c 128,-1,35
 296 -33 296 -33 149 -33 c 0,36,37
 75 -33 75 -33 39 -25 c 1,38,39
 30 -16 30 -16 30 82.5 c 128,-1,40
 30 181 30 181 34 201 c 1,41,42
 37 210 37 210 69 223 c 128,-1,43
 101 236 101 236 131 236 c 1,44,45
 131 118 131 118 156 93 c 0,46,47
 166 83 166 83 194 83 c 0,48,49
 258 83 258 83 305.5 119 c 128,-1,50
 353 155 353 155 353 204 c 0,51,52
 353 237 353 237 322 262 c 128,-1,53
 291 287 291 287 246.5 305.5 c 128,-1,54
 202 324 202 324 158 344.5 c 128,-1,55
 114 365 114 365 83 401 c 128,-1,56
 52 437 52 437 52 486 c 0,57,58
 52 559 52 559 139.5 619.5 c 128,-1,59
 227 680 227 680 393 680 c 0,60,61
 432 680 432 680 437 675 c 1,62,63
 438 672 438 672 438 660.5 c 128,-1,64
 438 649 438 649 431 616 c 128,-1,65
 424 583 424 583 413 571 c 1,22,23
EndSplineSet
EndChar

StartChar: scaron
Encoding: 353 353 134
Width: 356
Flags: HMW
HStem: -61 96<64 87.5 30 108> 599 20G<99.5 106 250 256.5>
VStem: 30 142<273 324.5 273 334.5> 190 141<102 115 56.5 147>
LayerCount: 2
Fore
SplineSet
331 115 m 1,0,1
 331 61 331 61 280.5 18.5 c 128,-1,2
 230 -24 230 -24 171.5 -42.5 c 128,-1,3
 113 -61 113 -61 69 -61 c 0,4,5
 64 -61 64 -61 55 -49 c 0,6,7
 30 -15.6666666667 30 -15.6666666667 30 28 c 2,8,-1
 30 35 l 1,9,10
 108 35 108 35 149 62 c 128,-1,11
 190 89 190 89 190 118 c 0,12,13
 190 137 190 137 165 158 c 128,-1,14
 140 179 140 179 110 195 c 128,-1,15
 80 211 80 211 55 237.5 c 128,-1,16
 30 264 30 264 30 293 c 0,17,18
 30 354 30 354 106 405 c 128,-1,19
 182 456 182 456 268 456 c 0,20,21
 278 456 278 456 294 428.5 c 128,-1,22
 310 401 310 401 311 372 c 1,23,24
 291.25 372 291.25 372 250.625 359.5 c 0,25,26
 172 335.307692308 172 335.307692308 172 298 c 0,27,28
 172 272.237288136 172 272.237288136 250.5 227 c 0,29,30
 280 210 280 210 305 180 c 128,-1,31
 330 150 330 150 331 115 c 1,0,1
178 553 m 1,32,33
 187 558 187 558 214 583.5 c 128,-1,34
 241 609 241 609 250 619 c 1,35,36
 259 619 259 619 272 608 c 128,-1,37
 285 597 285 597 287 588 c 1,38,39
 287 576 287 576 259 538 c 128,-1,40
 231 500 231 500 213 488 c 1,41,42
 197 488 197 488 178 502 c 1,43,44
 157 488 157 488 144 488 c 1,45,46
 125 500 125 500 97.5 538 c 128,-1,47
 70 576 70 576 70 588 c 1,48,49
 72 597 72 597 84.5 608 c 128,-1,50
 97 619 97 619 106 619 c 1,51,52
 114 610 114 610 142 584 c 128,-1,53
 170 558 170 558 178 553 c 1,32,33
EndSplineSet
EndChar

StartChar: Yacute
Encoding: 221 221 135
Width: 624
Flags: HMW
HStem: -38 21G<266 318.5> 803 20G<344 354.5>
VStem: 243 129<-30 199.5>
LayerCount: 2
Fore
SplineSet
243 -30 m 1,0,-1
 246 245 l 1,1,-1
 246 258 l 1,2,3
 218 297 218 297 146.5 425.5 c 128,-1,4
 75 554 75 554 69 562 c 1,5,6
 46 585 46 585 6 585 c 1,7,8
 5 587 5 587 5 596 c 128,-1,9
 5 605 5 605 11.5 624.5 c 128,-1,10
 18 644 18 644 20.5 646.5 c 128,-1,11
 23 649 23 649 39 652 c 0,12,13
 81.6666666667 660 81.6666666667 660 125.833333333 660 c 128,-1,14
 170 660 170 660 172.5 658 c 128,-1,15
 175 656 175 656 200 603 c 0,16,17
 278.434504792 436.71884984 278.434504792 436.71884984 315 381 c 1,18,-1
 317 381 l 1,19,20
 323 403 323 403 402.5 540 c 128,-1,21
 482 677 482 677 495 677 c 0,22,23
 525 677 525 677 555 669 c 128,-1,24
 585 661 585 661 602 651.5 c 128,-1,25
 619 642 619 642 618 636 c 1,26,27
 565 577 565 577 477.5 446.5 c 128,-1,28
 390 316 390 316 374 258 c 1,29,30
 372 238 372 238 372 129 c 128,-1,31
 372 20 372 20 380 -14 c 1,32,33
 380 -25.7446808511 380 -25.7446808511 348 -31.8723404255 c 128,-1,34
 316 -38 316 -38 285.5 -38 c 128,-1,35
 255 -38 255 -38 243 -30 c 1,0,-1
306 692 m 1,36,37
 297 692 297 692 284.5 703 c 128,-1,38
 272 714 272 714 270 723 c 1,39,40
 270 736 270 736 297.5 774 c 128,-1,41
 325 812 325 812 344 823 c 1,42,43
 360 823 360 823 382.5 806.5 c 128,-1,44
 405 790 405 790 405 778 c 1,45,46
 385 766 385 766 350.5 735 c 128,-1,47
 316 704 316 704 306 692 c 1,36,37
EndSplineSet
EndChar

StartChar: yacute
Encoding: 253 253 136
Width: 457
Flags: HMW
HStem: -309 21G<143 184.5> 595 20G<268 278.5>
VStem: 40 113<251 332.5 251 352.5> 299 111<-69 37.5 -125 45>
LayerCount: 2
Fore
SplineSet
230 484 m 1,0,1
 221 484 221 484 208.5 495 c 128,-1,2
 196 506 196 506 194 515 c 1,3,4
 194 528 194 528 221.5 566 c 128,-1,5
 249 604 249 604 268 615 c 1,6,7
 284 615 284 615 306.5 598.5 c 128,-1,8
 329 582 329 582 329 570 c 1,9,10
 309 558 309 558 274.5 527 c 128,-1,11
 240 496 240 496 230 484 c 1,0,1
298 69 m 2,12,-1
 299 40 l 1,13,14
 299 -69.8064516129 299 -69.8064516129 268.5 -119 c 0,15,16
 253 -144 253 -144 238 -160.5 c 128,-1,17
 223 -177 223 -177 199.5 -186 c 0,18,19
 147.277777778 -206 147.277777778 -206 109 -206 c 1,20,21
 109 -228 109 -228 117 -253.5 c 128,-1,22
 125 -279 125 -279 134 -294 c 128,-1,23
 143 -309 143 -309 146 -309 c 0,24,25
 209.720930233 -309 209.720930233 -309 271.5 -274.5 c 0,26,27
 310 -253 310 -253 339.5 -220 c 128,-1,28
 369 -187 369 -187 389.5 -126 c 128,-1,29
 410 -65 410 -65 410 13 c 2,30,-1
 409 279 l 2,31,32
 409 394 409 394 417 441 c 0,33,34
 417 444 417 444 397 444 c 128,-1,35
 377 444 377 444 344.5 437 c 128,-1,36
 312 430 312 430 299 417 c 0,37,38
 294 412 294 412 294 325 c 1,39,-1
 296 204 l 2,40,41
 296 197.090909091 296 197.090909091 289 180.545454545 c 128,-1,42
 282 164 282 164 274 154 c 0,43,44
 252.4 127 252.4 127 216.7 127 c 128,-1,45
 181 127 181 127 167 172 c 128,-1,46
 153 217 153 217 153 285 c 128,-1,47
 153 353 153 353 164 452 c 1,48,49
 151 457 151 457 131.5 457 c 128,-1,50
 112 457 112 457 92.5 452.5 c 0,51,52
 51 442.923076923 51 442.923076923 51 436 c 1,53,54
 40 385 40 385 40 330 c 128,-1,55
 40 275 40 275 40.5 248 c 128,-1,56
 41 221 41 221 43.5 183 c 128,-1,57
 46 145 46 145 51 123 c 128,-1,58
 56 101 56 101 65 75.5 c 128,-1,59
 74 50 74 50 87.5 36 c 0,60,61
 118.357142857 4 118.357142857 4 161.678571429 4 c 128,-1,62
 205 4 205 4 236 21 c 128,-1,63
 267 38 267 38 279.5 55 c 2,64,-1
 292 72 l 2,65,66
 293.5 75 293.5 75 295.75 75 c 128,-1,67
 298 75 298 75 298 69 c 2,12,-1
EndSplineSet
EndChar

StartChar: Zcaron
Encoding: 381 381 137
Width: 574
Flags: HMW
HStem: -20 21G<478.5 495> -14 21G<46 53> -5 21G<317.5 375.5> 831 20G<240.5 247 391 397.5>
LayerCount: 2
Fore
SplineSet
319 785 m 1,0,1
 328 790 328 790 355 815.5 c 128,-1,2
 382 841 382 841 391 851 c 1,3,4
 400 851 400 851 413 840 c 128,-1,5
 426 829 426 829 428 820 c 1,6,7
 428 808 428 808 400 770 c 128,-1,8
 372 732 372 732 354 720 c 1,9,10
 338 720 338 720 319 734 c 1,11,12
 298 720 298 720 285 720 c 1,13,14
 266 732 266 732 238.5 770 c 128,-1,15
 211 808 211 808 211 820 c 1,16,17
 213 829 213 829 225.5 840 c 128,-1,18
 238 851 238 851 247 851 c 1,19,20
 255 842 255 842 283 816 c 128,-1,21
 311 790 311 790 319 785 c 1,0,1
554 199 m 0,22,23
 554 154 554 154 534 72.5 c 128,-1,24
 514 -9 514 -9 505 -17 c 0,25,26
 502 -20 502 -20 491 -20 c 0,27,28
 469 -20 469 -20 422.5 -9.5 c 2,29,-1
 407 -6 l 2,30,31
 399 -5 399 -5 366 -5 c 2,32,-1
 53 -14 l 2,33,34
 43 -14 43 -14 31.5 14 c 128,-1,35
 20 42 20 42 20 59 c 128,-1,36
 20 76 20 76 21 80 c 0,37,38
 37 114 37 114 120.5 227 c 128,-1,39
 204 340 204 340 278 439.5 c 128,-1,40
 352 539 352 539 352 550 c 0,41,42
 352 556 352 556 277.5 556 c 128,-1,43
 203 556 203 556 173 541 c 1,44,45
 159.014184397 535.755319149 159.014184397 535.755319149 119 466.5 c 2,46,-1
 106 444 l 1,47,48
 92 444 92 444 66.5 459 c 128,-1,49
 41 474 41 474 41 482 c 0,50,51
 41 506 41 506 51.5 554 c 128,-1,52
 62 602 62 602 74.5 640 c 128,-1,53
 87 678 87 678 91 678 c 0,54,55
 119.307692308 678 119.307692308 678 148.153846154 665.5 c 128,-1,56
 177 653 177 653 179 653 c 0,57,58
 269 666 269 666 380.5 666 c 128,-1,59
 492 666 492 666 510 660 c 1,60,61
 518 653 518 653 528.5 629 c 128,-1,62
 539 605 539 605 539 575 c 0,63,64
 539 572 539 572 531 564 c 0,65,66
 469 494 469 494 339.5 311 c 128,-1,67
 210 128 210 128 210 106 c 0,68,69
 210 99 210 99 293.5 99 c 128,-1,70
 377 99 377 99 403 115 c 1,71,72
 419 129 419 129 447 172 c 128,-1,73
 475 215 475 215 484 241 c 0,74,75
 484 243 484 243 492.5 243 c 128,-1,76
 501 243 501 243 527.5 227 c 128,-1,77
 554 211 554 211 554 199 c 0,22,23
EndSplineSet
EndChar

StartChar: zcaron
Encoding: 382 382 138
Width: 438
Flags: HMW
HStem: -20 21G<54.5 60> -2 21G<220.5 300> 354 98<89 225> 599 20G<158.5 165 309 315.5>
LayerCount: 2
Fore
SplineSet
392 -5 m 1,0,1
 354 -2 354 -2 290.5 -2 c 0,2,3
 172 -2 172 -2 88 -15.5 c 2,4,-1
 60 -20 l 1,5,6
 52 -20 52 -20 41 8 c 128,-1,7
 30 36 30 36 30 57 c 1,8,9
 40 93 40 93 118 195 c 128,-1,10
 196 297 196 297 234 333 c 0,11,12
 242.659574468 341.659574468 242.659574468 341.659574468 190.829787234 347.829787234 c 128,-1,13
 139 354 139 354 100.5 354 c 128,-1,14
 62 354 62 354 53 353 c 1,15,16
 53 400.1 53 400.1 62.5 420.05 c 128,-1,17
 72 440 72 440 75 443 c 0,18,19
 84 452 84 452 163.5 452 c 128,-1,20
 243 452 243 452 310 445 c 128,-1,21
 377 438 377 438 383 432 c 1,22,23
 402 404 402 404 402 351 c 1,24,25
 350 312 350 312 282 221 c 128,-1,26
 214 130 214 130 214 110 c 1,27,28
 253 110 253 110 327.5 103 c 128,-1,29
 402 96 402 96 408 89 c 1,30,-1
 408 78 l 2,31,32
 408 11 408 11 392 -5 c 1,0,1
237 553 m 1,33,34
 246 558 246 558 273 583.5 c 128,-1,35
 300 609 300 609 309 619 c 1,36,37
 318 619 318 619 331 608 c 128,-1,38
 344 597 344 597 346 588 c 1,39,40
 346 576 346 576 318 538 c 128,-1,41
 290 500 290 500 272 488 c 1,42,43
 256 488 256 488 237 502 c 1,44,45
 216 488 216 488 203 488 c 1,46,47
 184 500 184 500 156.5 538 c 128,-1,48
 129 576 129 576 129 588 c 1,49,50
 131 597 131 597 143.5 608 c 128,-1,51
 156 619 156 619 165 619 c 1,52,53
 173 610 173 610 201 584 c 128,-1,54
 229 558 229 558 237 553 c 1,33,34
EndSplineSet
EndChar

StartChar: Adieresis
Encoding: 196 196 139
Width: 616
Flags: HMW
HStem: -61 21G<468 503.5> 813 20G<235 263 423 451>
LayerCount: 2
Fore
SplineSet
300 782 m 128,-1,1
 300 761 300 761 284 745 c 128,-1,2
 268 729 268 729 246.5 729 c 128,-1,3
 225 729 225 729 211 743 c 128,-1,4
 197 757 197 757 197 779.5 c 128,-1,5
 197 802 197 802 212.5 817.5 c 128,-1,6
 228 833 228 833 249 833 c 128,-1,7
 270 833 270 833 285 818 c 128,-1,0
 300 803 300 803 300 782 c 128,-1,1
487 782 m 128,-1,9
 487 761 487 761 471.5 745 c 128,-1,10
 456 729 456 729 434.5 729 c 128,-1,11
 413 729 413 729 399 743 c 128,-1,12
 385 757 385 757 385 779.5 c 128,-1,13
 385 802 385 802 400.5 817.5 c 128,-1,14
 416 833 416 833 437 833 c 128,-1,15
 458 833 458 833 472.5 818 c 128,-1,8
 487 803 487 803 487 782 c 128,-1,9
385 224 m 1,16,17
 397 166 397 166 431.5 52.5 c 128,-1,18
 466 -61 466 -61 475 -61 c 0,19,20
 501 -61 501 -61 532 -50 c 128,-1,21
 563 -39 563 -39 582 -27 c 128,-1,22
 601 -15 601 -15 601 -10 c 1,23,24
 595 1 595 1 594 2 c 0,25,26
 550 76 550 76 504.5 249 c 128,-1,27
 459 422 459 422 435 558 c 2,28,-1
 411 694 l 1,29,30
 359 694 359 694 310 669.5 c 0,31,32
 293 661 293 661 293 658 c 0,33,34
 293 653 293 653 295.5 636.5 c 128,-1,35
 298 620 298 620 300 606.5 c 2,36,-1
 302 593 l 1,37,38
 293 593 293 593 261 586.5 c 128,-1,39
 229 580 229 580 225 577 c 1,40,41
 214 564 214 564 132 326 c 1,42,43
 49 323 49 323 49 322 c 0,44,45
 49 299 49 299 66 264.5 c 128,-1,46
 83 230 83 230 96 219 c 1,47,48
 25 26 25 26 25 -14 c 0,49,50
 25 -20.0961538462 25 -20.0961538462 65.5 -25.5480769231 c 128,-1,51
 106 -31 106 -31 130.5 -31 c 128,-1,52
 155 -31 155 -31 155 -30 c 0,53,54
 162 47 162 47 215 221 c 1,55,56
 227 225 227 225 299 225 c 128,-1,57
 371 225 371 225 385 224 c 1,16,17
321 502 m 1,58,59
 327 471 327 471 361 327 c 1,60,61
 360 329 360 329 249 329 c 1,62,63
 256 354 256 354 280.5 419 c 128,-1,64
 305 484 305 484 314 501 c 0,65,66
 317 505 317 505 319 505 c 1,67,-1
 321 502 l 1,58,59
EndSplineSet
EndChar

StartChar: Aring
Encoding: 197 197 140
Width: 616
Flags: HMW
HStem: -61 21G<468 503.5> 718 37<334.5 350 334.5 359.5> 814 38<336 351.5>
LayerCount: 2
Fore
SplineSet
363.5 805.5 m 128,-1,1
 355 814 355 814 343.5 814 c 128,-1,2
 332 814 332 814 323 805 c 128,-1,3
 314 796 314 796 314 783.5 c 128,-1,4
 314 771 314 771 322 763 c 128,-1,5
 330 755 330 755 342 755 c 128,-1,6
 354 755 354 755 363 764 c 128,-1,7
 372 773 372 773 372 785 c 128,-1,0
 372 797 372 797 363.5 805.5 c 128,-1,1
409 786 m 128,-1,9
 409 759 409 759 388.5 738.5 c 128,-1,10
 368 718 368 718 341 718 c 128,-1,11
 314 718 314 718 295.5 736 c 128,-1,12
 277 754 277 754 277 782.5 c 128,-1,13
 277 811 277 811 297 831.5 c 128,-1,14
 317 852 317 852 344 852 c 128,-1,15
 371 852 371 852 390 832.5 c 128,-1,8
 409 813 409 813 409 786 c 128,-1,9
385 224 m 1,16,17
 397 166 397 166 431.5 52.5 c 128,-1,18
 466 -61 466 -61 475 -61 c 0,19,20
 501 -61 501 -61 532 -50 c 128,-1,21
 563 -39 563 -39 582 -27 c 128,-1,22
 601 -15 601 -15 601 -10 c 1,23,24
 595 1 595 1 594 2 c 0,25,26
 550 76 550 76 504.5 249 c 128,-1,27
 459 422 459 422 435 558 c 2,28,-1
 411 694 l 1,29,30
 359 694 359 694 310 669.5 c 0,31,32
 293 661 293 661 293 658 c 0,33,34
 293 653 293 653 295.5 636.5 c 128,-1,35
 298 620 298 620 300 606.5 c 2,36,-1
 302 593 l 1,37,38
 293 593 293 593 261 586.5 c 128,-1,39
 229 580 229 580 225 577 c 1,40,41
 214 564 214 564 132 326 c 1,42,43
 49 323 49 323 49 322 c 0,44,45
 49 299 49 299 66 264.5 c 128,-1,46
 83 230 83 230 96 219 c 1,47,48
 25 26 25 26 25 -14 c 0,49,50
 25 -20.0961538462 25 -20.0961538462 65.5 -25.5480769231 c 128,-1,51
 106 -31 106 -31 130.5 -31 c 128,-1,52
 155 -31 155 -31 155 -30 c 0,53,54
 162 47 162 47 215 221 c 1,55,56
 227 225 227 225 299 225 c 128,-1,57
 371 225 371 225 385 224 c 1,16,17
321 502 m 1,58,59
 327 471 327 471 361 327 c 1,60,61
 360 329 360 329 249 329 c 1,62,63
 256 354 256 354 280.5 419 c 128,-1,64
 305 484 305 484 314 501 c 0,65,66
 317 505 317 505 319 505 c 1,67,-1
 321 502 l 1,58,59
EndSplineSet
EndChar

StartChar: uacute
Encoding: 250 250 141
Width: 457
Flags: HMW
HStem: -50 21G<324 347> -20 21G<117 185.5> 586 20G<258 268.5>
VStem: 40 115<195.5 297.5> 294 112<61 227 195 227 152.5 229 195 195>
LayerCount: 2
Fore
SplineSet
161 421 m 0,0,1
 156 426 156 426 139 426 c 2,2,-1
 133 426 l 2,3,4
 79.5454545455 426 79.5454545455 426 57 410.5 c 2,5,-1
 49 405 l 1,6,7
 40 385 40 385 40 277 c 128,-1,8
 40 169 40 169 42 143 c 0,9,10
 57 -20 57 -20 162 -20 c 0,11,12
 197 -20 197 -20 233.5 2 c 128,-1,13
 270 24 270 24 294 61 c 0,14,15
 295 61 295 61 295 59 c 2,16,-1
 296 38 l 1,17,18
 299.715328467 -14.0145985401 299.715328467 -14.0145985401 317.5 -41.5 c 0,19,20
 323 -50 323 -50 326 -50 c 0,21,22
 355 -50 355 -50 396 -28 c 128,-1,23
 437 -6 437 -6 437 4 c 1,24,25
 417 34 417 34 410 84 c 1,26,27
 406 105 406 105 406 163 c 0,28,29
 406 261 406 261 412 403.5 c 2,30,-1
 414 451 l 1,31,32
 410 455 410 455 384 455 c 128,-1,33
 358 455 358 455 331.5 445 c 128,-1,34
 305 435 305 435 300 426 c 1,35,36
 294 412 294 412 294 229 c 2,37,-1
 294 195 l 1,38,39
 295 182 295 182 270.5 150.5 c 128,-1,40
 246 119 246 119 217 119 c 128,-1,41
 188 119 188 119 174 139.5 c 128,-1,42
 160 160 160 160 158.5 180 c 2,43,-1
 157 200 l 2,44,45
 155 236 155 236 155 264.5 c 128,-1,46
 155 293 155 293 156.5 331 c 128,-1,47
 158 369 158 369 159.5 394.5 c 128,-1,48
 161 420 161 420 161 421 c 0,0,1
220 475 m 1,49,50
 211 475 211 475 198.5 486 c 128,-1,51
 186 497 186 497 184 506 c 1,52,53
 184 519 184 519 211.5 557 c 128,-1,54
 239 595 239 595 258 606 c 1,55,56
 274 606 274 606 296.5 589.5 c 128,-1,57
 319 573 319 573 319 561 c 1,58,59
 299 549 299 549 264.5 518 c 128,-1,60
 230 487 230 487 220 475 c 1,49,50
EndSplineSet
EndChar

StartChar: ugrave
Encoding: 249 249 142
Width: 457
Flags: HMW
HStem: -50 21G<324 347> -20 21G<117 185.5> 586 20G<202.5 213>
VStem: 40 115<195.5 297.5> 294 112<61 227 195 227 152.5 229 152.5 264.5>
LayerCount: 2
Fore
SplineSet
296 38 m 2,0,-1
 295 59 l 1,1,-1
 294 61 l 1,2,3
 270 24 270 24 233.5 2 c 128,-1,4
 197 -20 197 -20 162 -20 c 0,5,6
 57 -20 57 -20 42 143 c 0,7,8
 40 169 40 169 40 277 c 128,-1,9
 40 385 40 385 49 405 c 1,10,11
 75 426 75 426 133 426 c 0,12,13
 156 426 156 426 161 421 c 0,14,15
 161 420 161 420 159.5 394.5 c 0,16,17
 155 318 155 318 155 277 c 128,-1,18
 155 236 155 236 156 216.5 c 128,-1,19
 157 197 157 197 157.5 191.5 c 128,-1,20
 158 186 158 186 160.5 172 c 128,-1,21
 163 158 163 158 168.5 147.5 c 0,22,23
 183.428571429 119 183.428571429 119 214.714285714 119 c 128,-1,24
 246 119 246 119 270.5 150.5 c 128,-1,25
 295 182 295 182 294 195 c 1,26,-1
 294 229 l 2,27,28
 294 412 294 412 300 426 c 1,29,30
 305 435 305 435 331.5 445 c 128,-1,31
 358 455 358 455 384 455 c 128,-1,32
 410 455 410 455 414 451 c 1,33,-1
 412 403.5 l 2,34,35
 406 261 406 261 406 183 c 128,-1,36
 406 105 406 105 410 84 c 1,37,38
 417 34 417 34 437 4 c 1,39,40
 437 -6 437 -6 396 -28 c 128,-1,41
 355 -50 355 -50 326 -50 c 0,42,43
 317.534883721 -50 317.534883721 -50 307.76744186 -20 c 128,-1,44
 298 10 298 10 296 38 c 2,0,-1
251 475 m 1,45,46
 241 487 241 487 206.5 518 c 128,-1,47
 172 549 172 549 152 561 c 1,48,49
 152 573 152 573 174.5 589.5 c 128,-1,50
 197 606 197 606 213 606 c 1,51,52
 232 595 232 595 259.5 557 c 128,-1,53
 287 519 287 519 287 506 c 1,54,55
 285 497 285 497 272.5 486 c 128,-1,56
 260 475 260 475 251 475 c 1,45,46
EndSplineSet
EndChar

StartChar: ucircumflex
Encoding: 251 251 143
Width: 457
Flags: HMW
HStem: -50 21G<324 347> -20 21G<117 185.5> 599 20G<194 198.5 258.5 263>
VStem: 40 115<195.5 297.5> 294 112<61 227 195 227 152.5 229 152.5 264.5>
LayerCount: 2
Fore
SplineSet
296 38 m 2,0,-1
 295 59 l 1,1,-1
 294 61 l 1,2,3
 270 24 270 24 233.5 2 c 128,-1,4
 197 -20 197 -20 162 -20 c 0,5,6
 57 -20 57 -20 42 143 c 0,7,8
 40 169 40 169 40 277 c 128,-1,9
 40 385 40 385 49 405 c 1,10,11
 75 426 75 426 133 426 c 0,12,13
 156 426 156 426 161 421 c 0,14,15
 161 420 161 420 159.5 394.5 c 0,16,17
 155 318 155 318 155 277 c 128,-1,18
 155 236 155 236 156 216.5 c 128,-1,19
 157 197 157 197 157.5 191.5 c 128,-1,20
 158 186 158 186 160.5 172 c 128,-1,21
 163 158 163 158 168.5 147.5 c 0,22,23
 183.428571429 119 183.428571429 119 214.714285714 119 c 128,-1,24
 246 119 246 119 270.5 150.5 c 128,-1,25
 295 182 295 182 294 195 c 1,26,-1
 294 229 l 2,27,28
 294 412 294 412 300 426 c 1,29,30
 305 435 305 435 331.5 445 c 128,-1,31
 358 455 358 455 384 455 c 128,-1,32
 410 455 410 455 414 451 c 1,33,-1
 412 403.5 l 2,34,35
 406 261 406 261 406 183 c 128,-1,36
 406 105 406 105 410 84 c 1,37,38
 417 34 417 34 437 4 c 1,39,40
 437 -6 437 -6 396 -28 c 128,-1,41
 355 -50 355 -50 326 -50 c 0,42,43
 317.534883721 -50 317.534883721 -50 307.76744186 -20 c 128,-1,44
 298 10 298 10 296 38 c 2,0,-1
229 554 m 1,45,46
 220 549 220 549 192 523 c 128,-1,47
 164 497 164 497 157 488 c 1,48,49
 148 488 148 488 135 499 c 128,-1,50
 122 510 122 510 120 519 c 1,51,52
 120 532 120 532 147.5 570 c 128,-1,53
 175 608 175 608 194 619 c 1,54,55
 209 619 209 619 229 606 c 1,56,57
 248 619 248 619 263 619 c 1,58,59
 282 608 282 608 309.5 570 c 128,-1,60
 337 532 337 532 337 519 c 1,61,62
 335 510 335 510 322 499 c 128,-1,63
 309 488 309 488 300 488 c 1,64,65
 295 495 295 495 266 522 c 128,-1,66
 237 549 237 549 229 554 c 1,45,46
EndSplineSet
EndChar

StartChar: udieresis
Encoding: 252 252 144
Width: 457
Flags: HMW
HStem: -50 21G<324 347> -20 21G<117 185.5> 578 20G<122 150 310 338>
VStem: 40 115<195.5 297.5> 294 112<61 227 195 227 152.5 229 195 195>
LayerCount: 2
Fore
SplineSet
161 421 m 0,0,1
 156 426 156 426 139 426 c 2,2,-1
 133 426 l 2,3,4
 79.5454545455 426 79.5454545455 426 57 410.5 c 2,5,-1
 49 405 l 1,6,7
 40 385 40 385 40 277 c 128,-1,8
 40 169 40 169 42 143 c 0,9,10
 57 -20 57 -20 162 -20 c 0,11,12
 197 -20 197 -20 233.5 2 c 128,-1,13
 270 24 270 24 294 61 c 0,14,15
 295 61 295 61 295 59 c 2,16,-1
 296 38 l 1,17,18
 299.715328467 -14.0145985401 299.715328467 -14.0145985401 317.5 -41.5 c 0,19,20
 323 -50 323 -50 326 -50 c 0,21,22
 355 -50 355 -50 396 -28 c 128,-1,23
 437 -6 437 -6 437 4 c 1,24,25
 417 34 417 34 410 84 c 1,26,27
 406 105 406 105 406 163 c 0,28,29
 406 261 406 261 412 403.5 c 2,30,-1
 414 451 l 1,31,32
 410 455 410 455 384 455 c 128,-1,33
 358 455 358 455 331.5 445 c 128,-1,34
 305 435 305 435 300 426 c 1,35,36
 294 412 294 412 294 229 c 2,37,-1
 294 195 l 1,38,39
 295 182 295 182 270.5 150.5 c 128,-1,40
 246 119 246 119 217 119 c 128,-1,41
 188 119 188 119 174 139.5 c 128,-1,42
 160 160 160 160 158.5 180 c 2,43,-1
 157 200 l 2,44,45
 155 236 155 236 155 264.5 c 128,-1,46
 155 293 155 293 156.5 331 c 128,-1,47
 158 369 158 369 159.5 394.5 c 128,-1,48
 161 420 161 420 161 421 c 0,0,1
187 547 m 128,-1,50
 187 526 187 526 171 510 c 128,-1,51
 155 494 155 494 133.5 494 c 128,-1,52
 112 494 112 494 98 508 c 128,-1,53
 84 522 84 522 84 544.5 c 128,-1,54
 84 567 84 567 99.5 582.5 c 128,-1,55
 115 598 115 598 136 598 c 128,-1,56
 157 598 157 598 172 583 c 128,-1,49
 187 568 187 568 187 547 c 128,-1,50
374 547 m 128,-1,58
 374 526 374 526 358.5 510 c 128,-1,59
 343 494 343 494 321.5 494 c 128,-1,60
 300 494 300 494 286 508 c 128,-1,61
 272 522 272 522 272 544.5 c 128,-1,62
 272 567 272 567 287.5 582.5 c 128,-1,63
 303 598 303 598 324 598 c 128,-1,64
 345 598 345 598 359.5 583 c 128,-1,57
 374 568 374 568 374 547 c 128,-1,58
EndSplineSet
EndChar

StartChar: bracketleft
Encoding: 91 91 145
Width: 213
Flags: HMW
HStem: -108 21G<142 152> 735 20G<142 152>
LayerCount: 2
Fore
SplineSet
203 -79 m 1,0,1
 186.246376812 -99.9420289855 186.246376812 -99.9420289855 152 -108 c 1,2,3
 137 -108 137 -108 87.5 -78.5 c 128,-1,4
 38 -49 38 -49 32 -37 c 0,5,6
 30 -33 30 -33 30 240 c 2,7,-1
 30 442 l 2,8,9
 30 680 30 680 32 683 c 0,10,11
 38 696 38 696 87.5 725.5 c 128,-1,12
 137 755 137 755 152 755 c 1,13,14
 184 748 184 748 203 725 c 1,15,16
 132 668 132 668 126 643 c 1,17,18
 124 414 124 414 124 322 c 2,19,-1
 126 4 l 1,20,21
 129 -8 129 -8 148 -28.5 c 128,-1,22
 167 -49 167 -49 185 -64 c 2,23,-1
 203 -79 l 1,0,1
EndSplineSet
EndChar

StartChar: bracketright
Encoding: 93 93 146
Width: 213
Flags: HMW
HStem: -108 21G<61 71> 735 20G<61 71>
LayerCount: 2
Fore
SplineSet
10 725 m 1,0,1
 25.6923076923 744.615384615 25.6923076923 744.615384615 61 755 c 1,2,3
 76 755 76 755 125.5 725.5 c 128,-1,4
 175 696 175 696 181 683 c 0,5,6
 183 677 183 677 183 509 c 2,7,-1
 183 111 l 2,8,9
 183 -33 183 -33 181 -37 c 0,10,11
 175 -49 175 -49 125.5 -78.5 c 128,-1,12
 76 -108 76 -108 61 -108 c 1,13,14
 29 -102 29 -102 10 -79 c 1,15,16
 81 -22 81 -22 87 4 c 1,17,18
 89 232 89 232 89 325 c 2,19,-1
 87 643 l 1,20,21
 84 654 84 654 65 674.5 c 128,-1,22
 46 695 46 695 28 710 c 2,23,-1
 10 725 l 1,0,1
EndSplineSet
EndChar

